<svg width="121" height="40" viewBox="0 0 121 40" fill="none" xmlns="http://www.w3.org/2000/svg">
<rect x="0.5" y="0.5" width="120" height="39" rx="3.5" fill="#F2F2F2"/>
<rect x="0.5" y="0.5" width="120" height="39" rx="3.5" stroke="#373737"/>
<path d="M7.17 16.35V13.88H7.72C8.16 13.33 8.34 11.64 8.34 8.73V8H13.1V13.88H13.92V16.35H12.67V15H8.42V16.35H7.17ZM11.81 13.88V9.11H9.6V9.22C9.58 11.53 9.37 13.04 8.97 13.88H11.81ZM17.231 15.09C15.631 15.09 14.481 14 14.481 12.47V12.33C14.481 10.8 15.631 9.71 17.231 9.71H17.311C18.911 9.71 20.061 10.8 20.061 12.33V12.47C20.061 14 18.911 15.09 17.311 15.09H17.231ZM17.241 14.11H17.301C18.151 14.11 18.771 13.42 18.771 12.45V12.35C18.771 11.38 18.161 10.69 17.301 10.69H17.241C16.391 10.69 15.781 11.38 15.781 12.35V12.45C15.781 13.42 16.391 14.11 17.241 14.11ZM23.5959 15.08C22.0259 15.08 20.9459 14 20.9459 12.47V12.31C20.9459 10.8 22.0659 9.72 23.5759 9.72H23.6359C24.6459 9.72 25.4159 10.18 25.8759 10.91L24.9559 11.52C24.6759 10.99 24.2459 10.71 23.6559 10.71H23.6259C22.7659 10.71 22.2359 11.32 22.2359 12.35V12.45C22.2359 13.44 22.8259 14.07 23.6759 14.07H23.7259C24.3259 14.07 24.7459 13.75 25.0159 13.26L25.9159 13.93C25.4359 14.64 24.6759 15.08 23.6659 15.08H23.5959ZM27.9102 15V10.82H26.3402V9.8H30.7202V10.82H29.1502V15H27.9102ZM32.4467 17.01C32.1667 17.01 31.7767 16.97 31.4867 16.82V15.76C31.7267 15.88 31.9567 15.96 32.2067 15.96C32.6267 15.96 32.9667 15.69 33.2267 15.23L30.9767 9.8H32.2967L33.8267 13.79H33.8967L35.1667 9.8H36.4267L34.5167 15.29C34.2267 16.13 33.7067 17.01 32.4467 17.01ZM37.2129 15V9.8H42.0429V15H40.8029V10.8H38.4529V15H37.2129ZM43.541 15V9.8H44.781V11.78H47.141V9.8H48.381V15H47.141V12.78H44.781V15H43.541ZM52.2489 15.09C50.6689 15.09 49.5689 14.03 49.5689 12.5V12.36C49.5689 10.83 50.6989 9.71 52.2289 9.71H52.2889C53.7289 9.71 54.7689 10.71 54.7689 12.11V12.78H50.7989V12.79C50.8889 13.54 51.4889 14.05 52.3289 14.05H52.3789C53.0189 14.05 53.5989 13.76 53.8989 13.38L54.5889 14.13C54.0989 14.72 53.1989 15.09 52.3389 15.09H52.2489ZM50.8289 11.95H53.5889C53.5289 11.21 52.9989 10.68 52.2389 10.68H52.2289C51.5089 10.68 50.9689 11.18 50.8289 11.95ZM58.6387 15V9.8H59.8787V11.78H62.2387V9.8H63.4787V15H62.2387V12.78H59.8787V15H58.6387ZM66.4266 15.1C65.3466 15.1 64.6066 14.47 64.6066 13.55V13.48C64.6066 12.37 65.6566 11.79 67.7466 11.79H68.1666V11.56C68.1666 11.06 67.7766 10.72 67.0866 10.72H67.0566C66.5166 10.72 65.8866 10.92 65.3666 11.25L64.8566 10.35C65.4966 9.95 66.2966 9.69 67.1266 9.69H67.1866C68.5066 9.69 69.3366 10.41 69.3366 11.58V13.93C69.3366 14.29 69.4166 14.66 69.5166 15H68.3366C68.2766 14.84 68.2266 14.61 68.1966 14.38C67.7566 14.82 67.1366 15.1 66.4266 15.1ZM66.6766 14.1C67.2566 14.1 67.8066 13.85 68.1666 13.46V12.59H67.8166C66.4466 12.59 65.8066 12.87 65.8066 13.42V13.46C65.8066 13.83 66.1566 14.1 66.6766 14.1ZM6.872 32L10.68 20.8H14.328L18.104 32H15.032L14.408 29.952H10.584L9.96 32H6.872ZM11.192 27.696H13.8L12.584 23.872H12.392L11.192 27.696ZM18.9444 32V23.68H21.1524C21.2644 24.032 21.4084 24.688 21.4084 25.04C22.2884 23.984 23.4724 23.488 24.5444 23.488H24.5924C26.4484 23.488 27.5364 24.688 27.5364 26.704V32H24.7524V27.328C24.7524 26.272 24.3204 25.76 23.4404 25.76H23.3924C22.3844 25.76 21.7284 26.592 21.7284 27.696V32H18.9444ZM30.711 22.768C29.783 22.768 29.159 22.224 29.159 21.424C29.159 20.608 29.783 20.048 30.711 20.048C31.671 20.048 32.327 20.608 32.327 21.424C32.327 22.224 31.687 22.768 30.711 22.768ZM29.335 32V23.68H32.119V32H29.335ZM36.123 32V23.296H33.211V20.8H41.947V23.296H39.051V32H36.123ZM45.5718 32.192C43.7638 32.192 42.6918 31.008 42.6918 29.024V23.68H45.4758V28.384C45.4758 29.408 45.8918 29.92 46.7238 29.92H46.7398C47.7638 29.92 48.3718 29.12 48.3718 27.904V23.68H51.1558V32H48.9478C48.8358 31.664 48.7078 31.024 48.7078 30.656C47.9718 31.584 46.8678 32.192 45.6038 32.192H45.5718ZM58.3334 32.192C57.1974 32.192 56.1894 31.76 55.5014 31.008C55.4534 31.344 55.3574 31.744 55.2774 32H53.0694V20.48H55.8534V24.352C56.5094 23.792 57.3734 23.488 58.3334 23.488H58.4454C60.7174 23.488 62.3814 25.248 62.3814 27.616V28.064C62.3814 30.432 60.7174 32.192 58.4454 32.192H58.3334ZM57.5974 30.224H57.7574C58.7494 30.224 59.5014 29.264 59.5014 27.968V27.712C59.5014 26.416 58.7654 25.456 57.7574 25.456H57.5974C56.6054 25.456 55.8534 26.416 55.8534 27.712V27.968C55.8534 29.264 56.6054 30.224 57.5974 30.224ZM67.9303 32.192C65.2743 32.192 63.4342 30.528 63.4342 27.984V27.696C63.4342 25.28 65.3223 23.488 67.8343 23.488H68.0263C70.3943 23.488 72.1543 25.12 72.1543 27.264V28.528H66.1063V28.544C66.2343 29.488 67.0023 30.048 68.0903 30.048H68.2343C69.1623 30.048 70.0263 29.648 70.5383 29.152L71.7863 30.928C70.9862 31.632 69.4823 32.192 68.2183 32.192H67.9303ZM66.1703 26.976H69.5303C69.4663 26.08 68.8583 25.424 67.9463 25.424H67.8983C67.0663 25.424 66.3943 26 66.1703 26.976Z" fill="black"/>
<g clip-path="url(#clip0_1133_158)">
<path d="M108.647 20C108.647 26.7084 103.209 32.1467 96.5002 32.1467C89.7918 32.1467 84.3535 26.7084 84.3535 20C84.3535 13.2916 89.7918 7.8533 96.5002 7.8533C103.209 7.8533 108.647 13.2916 108.647 20Z" fill="#EEEEEE" stroke="black" stroke-width="0.5"/>
<g filter="url(#filter0_d_1133_158)">
<path d="M96.6033 29.6074C101.966 29.6074 106.314 25.2598 106.314 19.8967C106.314 14.5336 101.966 10.186 96.6033 10.186C91.2402 10.186 86.8926 14.5336 86.8926 19.8967C86.8926 25.2598 91.2402 29.6074 96.6033 29.6074Z" fill="white"/>
</g>
<g filter="url(#filter1_i_1133_158)">
<path d="M96.2811 24.7033C94.6306 25.7536 92.4707 24.568 92.4707 22.6116V17.1818C92.4707 15.2254 94.6306 14.0398 96.2811 15.0901L100.547 17.805C102.078 18.7792 102.078 21.0142 100.547 21.9884L96.2811 24.7033Z" fill="#81BE5D"/>
</g>
</g>
<defs>
<filter id="filter0_d_1133_158" x="82.8926" y="7.18595" width="27.4219" height="27.4215" filterUnits="userSpaceOnUse" color-interpolation-filters="sRGB">
<feFlood flood-opacity="0" result="BackgroundImageFix"/>
<feColorMatrix in="SourceAlpha" type="matrix" values="0 0 0 0 0 0 0 0 0 0 0 0 0 0 0 0 0 0 127 0" result="hardAlpha"/>
<feOffset dy="1"/>
<feGaussianBlur stdDeviation="2"/>
<feComposite in2="hardAlpha" operator="out"/>
<feColorMatrix type="matrix" values="0 0 0 0 0 0 0 0 0 0 0 0 0 0 0 0 0 0 0.25 0"/>
<feBlend mode="normal" in2="BackgroundImageFix" result="effect1_dropShadow_1133_158"/>
<feBlend mode="normal" in="SourceGraphic" in2="effect1_dropShadow_1133_158" result="shape"/>
</filter>
<filter id="filter1_i_1133_158" x="92.4707" y="14.6985" width="11.2246" height="11.3965" filterUnits="userSpaceOnUse" color-interpolation-filters="sRGB">
<feFlood flood-opacity="0" result="BackgroundImageFix"/>
<feBlend mode="normal" in="SourceGraphic" in2="BackgroundImageFix" result="shape"/>
<feColorMatrix in="SourceAlpha" type="matrix" values="0 0 0 0 0 0 0 0 0 0 0 0 0 0 0 0 0 0 127 0" result="hardAlpha"/>
<feOffset dx="2" dy="1"/>
<feGaussianBlur stdDeviation="2"/>
<feComposite in2="hardAlpha" operator="arithmetic" k2="-1" k3="1"/>
<feColorMatrix type="matrix" values="0 0 0 0 0 0 0 0 0 0 0 0 0 0 0 0 0 0 0.25 0"/>
<feBlend mode="normal" in2="shape" result="effect1_innerShadow_1133_158"/>
</filter>
<clipPath id="clip0_1133_158">
<rect width="25" height="25" fill="white" transform="translate(84 7.5)"/>
</clipPath>
</defs>
</svg>
