<svg width="121" height="40" viewBox="0 0 121 40" fill="none" xmlns="http://www.w3.org/2000/svg">
<rect x="0.5" y="0.5" width="120" height="39" rx="3.5" fill="url(#paint0_radial_1188_237)"/>
<rect x="0.5" y="0.5" width="120" height="39" rx="3.5" stroke="#373737"/>
<path d="M7.17 16.35V13.88H7.72C8.16 13.33 8.34 11.64 8.34 8.73V8H13.1V13.88H13.92V16.35H12.67V15H8.42V16.35H7.17ZM11.81 13.88V9.11H9.6V9.22C9.58 11.53 9.37 13.04 8.97 13.88H11.81ZM17.231 15.09C15.631 15.09 14.481 14 14.481 12.47V12.33C14.481 10.8 15.631 9.71 17.231 9.71H17.311C18.911 9.71 20.061 10.8 20.061 12.33V12.47C20.061 14 18.911 15.09 17.311 15.09H17.231ZM17.241 14.11H17.301C18.151 14.11 18.771 13.42 18.771 12.45V12.35C18.771 11.38 18.161 10.69 17.301 10.69H17.241C16.391 10.69 15.781 11.38 15.781 12.35V12.45C15.781 13.42 16.391 14.11 17.241 14.11ZM23.5959 15.08C22.0259 15.08 20.9459 14 20.9459 12.47V12.31C20.9459 10.8 22.0659 9.72 23.5759 9.72H23.6359C24.6459 9.72 25.4159 10.18 25.8759 10.91L24.9559 11.52C24.6759 10.99 24.2459 10.71 23.6559 10.71H23.6259C22.7659 10.71 22.2359 11.32 22.2359 12.35V12.45C22.2359 13.44 22.8259 14.07 23.6759 14.07H23.7259C24.3259 14.07 24.7459 13.75 25.0159 13.26L25.9159 13.93C25.4359 14.64 24.6759 15.08 23.6659 15.08H23.5959ZM27.9102 15V10.82H26.3402V9.8H30.7202V10.82H29.1502V15H27.9102ZM32.4467 17.01C32.1667 17.01 31.7767 16.97 31.4867 16.82V15.76C31.7267 15.88 31.9567 15.96 32.2067 15.96C32.6267 15.96 32.9667 15.69 33.2267 15.23L30.9767 9.8H32.2967L33.8267 13.79H33.8967L35.1667 9.8H36.4267L34.5167 15.29C34.2267 16.13 33.7067 17.01 32.4467 17.01ZM37.2129 15V9.8H42.0429V15H40.8029V10.8H38.4529V15H37.2129ZM43.541 15V9.8H44.781V11.78H47.141V9.8H48.381V15H47.141V12.78H44.781V15H43.541ZM52.2489 15.09C50.6689 15.09 49.5689 14.03 49.5689 12.5V12.36C49.5689 10.83 50.6989 9.71 52.2289 9.71H52.2889C53.7289 9.71 54.7689 10.71 54.7689 12.11V12.78H50.7989V12.79C50.8889 13.54 51.4889 14.05 52.3289 14.05H52.3789C53.0189 14.05 53.5989 13.76 53.8989 13.38L54.5889 14.13C54.0989 14.72 53.1989 15.09 52.3389 15.09H52.2489ZM50.8289 11.95H53.5889C53.5289 11.21 52.9989 10.68 52.2389 10.68H52.2289C51.5089 10.68 50.9689 11.18 50.8289 11.95ZM58.6387 15V9.8H59.8787V11.78H62.2387V9.8H63.4787V15H62.2387V12.78H59.8787V15H58.6387ZM66.4266 15.1C65.3466 15.1 64.6066 14.47 64.6066 13.55V13.48C64.6066 12.37 65.6566 11.79 67.7466 11.79H68.1666V11.56C68.1666 11.06 67.7766 10.72 67.0866 10.72H67.0566C66.5166 10.72 65.8866 10.92 65.3666 11.25L64.8566 10.35C65.4966 9.95 66.2966 9.69 67.1266 9.69H67.1866C68.5066 9.69 69.3366 10.41 69.3366 11.58V13.93C69.3366 14.29 69.4166 14.66 69.5166 15H68.3366C68.2766 14.84 68.2266 14.61 68.1966 14.38C67.7566 14.82 67.1366 15.1 66.4266 15.1ZM66.6766 14.1C67.2566 14.1 67.8066 13.85 68.1666 13.46V12.59H67.8166C66.4466 12.59 65.8066 12.87 65.8066 13.42V13.46C65.8066 13.83 66.1566 14.1 66.6766 14.1ZM8.104 32V20.8H15.368V23.296H11V25.248H15.048V27.584H11V29.504H15.528V32H8.104ZM17.3194 32V23.68H19.5274C19.6394 24.032 19.7834 24.688 19.7834 25.04C20.6634 23.984 21.8474 23.488 22.9194 23.488H22.9674C24.8234 23.488 25.9114 24.688 25.9114 26.704V32H23.1274V27.328C23.1274 26.272 22.6954 25.76 21.8154 25.76H21.7674C20.7594 25.76 20.1034 26.592 20.1034 27.696V32H17.3194ZM31.774 32.192C29.118 32.192 27.278 30.528 27.278 27.984V27.696C27.278 25.28 29.166 23.488 31.678 23.488H31.87C34.238 23.488 35.998 25.12 35.998 27.264V28.528H29.95V28.544C30.078 29.488 30.846 30.048 31.934 30.048H32.078C33.006 30.048 33.87 29.648 34.382 29.152L35.63 30.928C34.83 31.632 33.326 32.192 32.062 32.192H31.774ZM30.014 26.976H33.374C33.31 26.08 32.702 25.424 31.79 25.424H31.742C30.91 25.424 30.238 26 30.014 26.976ZM38.8774 35.296C38.3334 35.296 37.5974 35.216 37.0854 34.992V32.688C37.4374 32.912 37.8374 33.072 38.3334 33.072C38.7814 33.072 39.2614 32.88 39.6454 32.384L36.2374 23.68H39.1174L41.0374 29.504H41.1494L42.7014 23.68H45.4694L42.5094 32.576C42.1414 33.664 41.3094 35.296 38.8774 35.296ZM47.836 22.768C46.908 22.768 46.284 22.224 46.284 21.424C46.284 20.608 46.908 20.048 47.836 20.048C48.796 20.048 49.452 20.608 49.452 21.424C49.452 22.224 48.812 22.768 47.836 22.768ZM46.46 32V23.68H49.244V32H46.46ZM54.6515 32.192C52.3795 32.192 50.7155 30.448 50.7155 28.032V27.648C50.7155 25.232 52.3795 23.488 54.6515 23.488H54.7635C55.7395 23.488 56.6035 23.808 57.2595 24.384V20.48H60.0435V32H57.8355C57.7395 31.744 57.6595 31.312 57.6115 30.976C56.9075 31.744 55.9155 32.192 54.7635 32.192H54.6515ZM55.3555 30.224H55.5155C56.5075 30.224 57.2595 29.264 57.2595 27.936V27.744C57.2595 26.416 56.5235 25.456 55.5155 25.456H55.3555C54.3635 25.456 53.6115 26.416 53.6115 27.744V27.936C53.6115 29.264 54.3635 30.224 55.3555 30.224ZM64.344 32.192C62.648 32.192 61.448 31.2 61.448 29.728V29.552C61.448 27.776 63.096 26.848 66.392 26.848H66.968V26.704C66.968 26.064 66.536 25.584 65.592 25.584H65.512C64.712 25.584 63.784 25.872 62.872 26.368L61.832 24.48C62.824 23.872 64.264 23.488 65.656 23.488H65.832C68.12 23.488 69.544 24.72 69.544 26.848V29.92C69.544 30.656 69.672 31.28 69.832 32H67.272C67.176 31.728 67.096 31.424 67.048 31.056C66.504 31.68 65.576 32.192 64.344 32.192ZM65.144 30.176C65.784 30.176 66.504 29.92 66.984 29.424V28.32H66.376C64.856 28.32 64.072 28.704 64.072 29.36V29.424C64.072 29.856 64.504 30.176 65.144 30.176Z" fill="white"/>
<path d="M88.9142 27.252L102.003 32.1344C102.537 32.3336 103.129 32.0469 103.304 31.5045L103.873 29.7431C104.031 29.2528 103.791 28.7225 103.318 28.5182L96.1946 25.4403C95.5073 25.1434 95.3781 24.2242 95.9569 23.7493L98.3101 21.8185C98.7953 21.4204 98.7981 20.679 98.3159 20.2772L95.5073 17.9367C94.9548 17.4763 95.0545 16.6006 95.6963 16.2761L103.729 12.2144C104.264 11.9438 104.443 11.2663 104.11 10.7673L102.447 8.27234C102.156 7.83681 101.579 7.69888 101.123 7.95606L88.7724 14.9233C88.4581 15.1006 88.2637 15.4335 88.2637 15.7943V17.6743C88.2637 18.0294 88.452 18.3579 88.7585 18.5373L91.5475 20.1699C92.2143 20.5602 92.2055 21.5271 91.5316 21.9051L88.7744 23.4518C88.459 23.6288 88.2637 23.9623 88.2637 24.3239V26.3151C88.2637 26.7325 88.523 27.1061 88.9142 27.252Z" fill="white" stroke="white"/>
<defs>
<radialGradient id="paint0_radial_1188_237" cx="0" cy="0" r="1" gradientUnits="userSpaceOnUse" gradientTransform="translate(96.5 20) rotate(-180) scale(58.5 66.8198)">
<stop stop-color="#0F3D20"/>
<stop offset="1" stop-color="#18181B"/>
</radialGradient>
</defs>
</svg>
