<svg width="129" height="48" viewBox="0 0 129 48" fill="none" xmlns="http://www.w3.org/2000/svg">
<g filter="url(#filter0_d_1000_67)">
<rect x="4" width="121" height="40" rx="4" fill="#D9D9D9"/>
<rect x="4.5" y="0.5" width="120" height="39" rx="3.5" stroke="#373737"/>
<g clip-path="url(#clip0_1000_67)">
<path d="M102.723 13.4457C104.897 13.4457 106.641 14.1664 107.955 15.6078C109.268 17.0267 109.925 18.986 109.925 21.486V32.499H104.15V22.263C104.15 21.0017 103.821 20.0221 103.165 19.3238C102.508 18.6257 101.625 18.2766 100.515 18.2766C99.405 18.2766 98.5217 18.6257 97.8649 19.3238C97.2081 20.0221 96.8796 21.0017 96.8796 22.263V32.499H91.0703V7.5H96.8796V16.1821C97.4686 15.3488 98.2725 14.6844 99.2917 14.1889C100.311 13.6934 101.455 13.4457 102.723 13.4457Z" fill="black"/>
</g>
<path d="M11.17 14.35V11.88H11.72C12.16 11.33 12.34 9.64 12.34 6.73V6H17.1V11.88H17.92V14.35H16.67V13H12.42V14.35H11.17ZM15.81 11.88V7.11H13.6V7.22C13.58 9.53 13.37 11.04 12.97 11.88H15.81ZM19.5087 7.1C19.0787 7.1 18.7787 6.82 18.7787 6.43C18.7787 6.03 19.0787 5.75 19.5087 5.75C19.9487 5.75 20.2687 6.03 20.2687 6.43C20.2687 6.82 19.9487 7.1 19.5087 7.1ZM18.8887 13V7.8H20.1287V13H18.8887ZM23.5928 13.09C22.5228 13.09 21.6428 12.69 21.1228 11.85L22.0528 11.28C22.3628 11.84 22.8628 12.1 23.4628 12.1H23.5228C24.0728 12.1 24.4428 11.81 24.4428 11.46V11.41C24.4428 11 24.1128 10.77 23.5328 10.77H22.7828V9.93H23.4928C23.9628 9.93 24.2528 9.68 24.2528 9.32V9.28C24.2528 8.95 23.9428 8.69 23.4328 8.69H23.3928C22.8128 8.69 22.3628 8.99 22.1228 9.45L21.2628 8.76C21.7228 8.14 22.5028 7.71 23.5228 7.71H23.6028C24.6128 7.71 25.4828 8.29 25.4828 9.08V9.19C25.4828 9.62 25.2128 9.98 24.7428 10.25C25.3328 10.46 25.6928 10.98 25.6928 11.5V11.58C25.6928 12.42 24.8128 13.09 23.6828 13.09H23.5928ZM26.7598 13V7.8H27.9998V9.78H30.3598V7.8H31.5998V13H30.3598V10.78H27.9998V13H26.7598ZM34.5477 13.1C33.4677 13.1 32.7277 12.47 32.7277 11.55V11.48C32.7277 10.37 33.7777 9.79 35.8677 9.79H36.2877V9.56C36.2877 9.06 35.8977 8.72 35.2077 8.72H35.1777C34.6377 8.72 34.0077 8.92 33.4877 9.25L32.9777 8.35C33.6177 7.95 34.4177 7.69 35.2477 7.69H35.3077C36.6277 7.69 37.4577 8.41 37.4577 9.58V11.93C37.4577 12.29 37.5377 12.66 37.6377 13H36.4577C36.3977 12.84 36.3477 12.61 36.3177 12.38C35.8777 12.82 35.2577 13.1 34.5477 13.1ZM34.7977 12.1C35.3777 12.1 35.9277 11.85 36.2877 11.46V10.59H35.9377C34.5677 10.59 33.9277 10.87 33.9277 11.42V11.46C33.9277 11.83 34.2777 12.1 34.7977 12.1ZM39.957 13V8.82H38.387V7.8H42.767V8.82H41.197V13H39.957ZM43.6836 13V7.8H44.8936V11.11H44.9536L47.3036 7.8H48.5936V13H47.3736V9.41H47.3236L44.8136 13H43.6836ZM52.4298 13.08C50.8598 13.08 49.7798 12 49.7798 10.47V10.31C49.7798 8.8 50.8998 7.72 52.4098 7.72H52.4698C53.4798 7.72 54.2498 8.18 54.7098 8.91L53.7898 9.52C53.5098 8.99 53.0798 8.71 52.4898 8.71H52.4598C51.5998 8.71 51.0698 9.32 51.0698 10.35V10.45C51.0698 11.44 51.6598 12.07 52.5098 12.07H52.5598C53.1598 12.07 53.5798 11.75 53.8498 11.26L54.7498 11.93C54.2698 12.64 53.5098 13.08 52.4998 13.08H52.4298ZM55.2841 13L56.4641 10.99C55.8641 10.71 55.4741 10.23 55.4741 9.61V9.43C55.4741 8.48 56.2641 7.8 57.3541 7.8H59.9141V13H58.7441V11.23H57.5841L56.5941 13H55.2841ZM57.5541 10.32H58.7541V8.75H57.5541C57.0541 8.75 56.6741 9.04 56.6741 9.46V9.57C56.6741 10 57.0541 10.32 57.5541 10.32ZM64.0742 13V7.8H65.3142V9.78H67.6742V7.8H68.9142V13H67.6742V10.78H65.3142V13H64.0742ZM71.8621 13.1C70.7821 13.1 70.0421 12.47 70.0421 11.55V11.48C70.0421 10.37 71.0921 9.79 73.1821 9.79H73.6021V9.56C73.6021 9.06 73.2121 8.72 72.5221 8.72H72.4921C71.9521 8.72 71.3221 8.92 70.8021 9.25L70.2921 8.35C70.9321 7.95 71.7321 7.69 72.5621 7.69H72.6221C73.9421 7.69 74.7721 8.41 74.7721 9.58V11.93C74.7721 12.29 74.8521 12.66 74.9521 13H73.7721C73.7121 12.84 73.6621 12.61 73.6321 12.38C73.1921 12.82 72.5721 13.1 71.8621 13.1ZM72.1121 12.1C72.6921 12.1 73.2421 11.85 73.6021 11.46V10.59H73.2521C71.8821 10.59 71.2421 10.87 71.2421 11.42V11.46C71.2421 11.83 71.5921 12.1 72.1121 12.1ZM12.38 33V19H16V24.36H20.72V19H24.34V33H20.72V27.48H16V33H12.38ZM28.9591 21.46C27.7991 21.46 27.0191 20.78 27.0191 19.78C27.0191 18.76 27.7991 18.06 28.9591 18.06C30.1591 18.06 30.9791 18.76 30.9791 19.78C30.9791 20.78 30.1791 21.46 28.9591 21.46ZM27.2391 33V22.6H30.7191V33H27.2391ZM33.5281 33V18.6H37.0081V26.8H37.2481L40.6481 22.6H44.3681L40.1281 27.36L44.3281 33H40.3881L37.2281 28.3H37.0081V33H33.5281ZM45.657 33V18.6H49.137V26.8H49.377L52.777 22.6H56.497L52.257 27.36L56.457 33H52.517L49.357 28.3H49.137V33H45.657ZM60.5706 33.24C58.4506 33.24 56.9506 32 56.9506 30.16V29.94C56.9506 27.72 59.0106 26.56 63.1306 26.56H63.8506V26.38C63.8506 25.58 63.3106 24.98 62.1306 24.98H62.0306C61.0306 24.98 59.8706 25.34 58.7306 25.96L57.4306 23.6C58.6706 22.84 60.4706 22.36 62.2106 22.36H62.4306C65.2906 22.36 67.0706 23.9 67.0706 26.56V30.4C67.0706 31.32 67.2306 32.1 67.4306 33H64.2306C64.1106 32.66 64.0106 32.28 63.9506 31.82C63.2706 32.6 62.1106 33.24 60.5706 33.24ZM61.5706 30.72C62.3706 30.72 63.2706 30.4 63.8706 29.78V28.4H63.1106C61.2106 28.4 60.2306 28.88 60.2306 29.7V29.78C60.2306 30.32 60.7706 30.72 61.5706 30.72Z" fill="black"/>
</g>
<defs>
<filter id="filter0_d_1000_67" x="0" y="0" width="129" height="48" filterUnits="userSpaceOnUse" color-interpolation-filters="sRGB">
<feFlood flood-opacity="0" result="BackgroundImageFix"/>
<feColorMatrix in="SourceAlpha" type="matrix" values="0 0 0 0 0 0 0 0 0 0 0 0 0 0 0 0 0 0 127 0" result="hardAlpha"/>
<feOffset dy="4"/>
<feGaussianBlur stdDeviation="2"/>
<feComposite in2="hardAlpha" operator="out"/>
<feColorMatrix type="matrix" values="0 0 0 0 0 0 0 0 0 0 0 0 0 0 0 0 0 0 0.25 0"/>
<feBlend mode="normal" in2="BackgroundImageFix" result="effect1_dropShadow_1000_67"/>
<feBlend mode="normal" in="SourceGraphic" in2="effect1_dropShadow_1000_67" result="shape"/>
</filter>
<clipPath id="clip0_1000_67">
<rect width="18.8575" height="25" fill="white" transform="translate(91.0703 7.5)"/>
</clipPath>
</defs>
</svg>
