<svg width="121" height="40" viewBox="0 0 121 40" fill="none" xmlns="http://www.w3.org/2000/svg">
<rect x="0.5" y="0.5" width="120" height="39" rx="3.5" fill="url(#paint0_radial_1000_66)"/>
<rect x="0.5" y="0.5" width="120" height="39" rx="3.5" stroke="#373737"/>
<path d="M7.17 14.85V12.38H7.72C8.16 11.83 8.34 10.14 8.34 7.23V6.5H13.1V12.38H13.92V14.85H12.67V13.5H8.42V14.85H7.17ZM11.81 12.38V7.61H9.6V7.72C9.58 10.03 9.37 11.54 8.97 12.38H11.81ZM15.5087 7.6C15.0787 7.6 14.7787 7.32 14.7787 6.93C14.7787 6.53 15.0787 6.25 15.5087 6.25C15.9487 6.25 16.2687 6.53 16.2687 6.93C16.2687 7.32 15.9487 7.6 15.5087 7.6ZM14.8887 13.5V8.3H16.1287V13.5H14.8887ZM19.5928 13.59C18.5228 13.59 17.6428 13.19 17.1228 12.35L18.0528 11.78C18.3628 12.34 18.8628 12.6 19.4628 12.6H19.5228C20.0728 12.6 20.4428 12.31 20.4428 11.96V11.91C20.4428 11.5 20.1128 11.27 19.5328 11.27H18.7828V10.43H19.4928C19.9628 10.43 20.2528 10.18 20.2528 9.82V9.78C20.2528 9.45 19.9428 9.19 19.4328 9.19H19.3928C18.8128 9.19 18.3628 9.49 18.1228 9.95L17.2628 9.26C17.7228 8.64 18.5028 8.21 19.5228 8.21H19.6028C20.6128 8.21 21.4828 8.79 21.4828 9.58V9.69C21.4828 10.12 21.2128 10.48 20.7428 10.75C21.3328 10.96 21.6928 11.48 21.6928 12V12.08C21.6928 12.92 20.8128 13.59 19.6828 13.59H19.5928ZM22.7598 13.5V8.3H23.9998V10.28H26.3598V8.3H27.5998V13.5H26.3598V11.28H23.9998V13.5H22.7598ZM30.5477 13.6C29.4677 13.6 28.7277 12.97 28.7277 12.05V11.98C28.7277 10.87 29.7777 10.29 31.8677 10.29H32.2877V10.06C32.2877 9.56 31.8977 9.22 31.2077 9.22H31.1777C30.6377 9.22 30.0077 9.42 29.4877 9.75L28.9777 8.85C29.6177 8.45 30.4177 8.19 31.2477 8.19H31.3077C32.6277 8.19 33.4577 8.91 33.4577 10.08V12.43C33.4577 12.79 33.5377 13.16 33.6377 13.5H32.4577C32.3977 13.34 32.3477 13.11 32.3177 12.88C31.8777 13.32 31.2577 13.6 30.5477 13.6ZM30.7977 12.6C31.3777 12.6 31.9277 12.35 32.2877 11.96V11.09H31.9377C30.5677 11.09 29.9277 11.37 29.9277 11.92V11.96C29.9277 12.33 30.2777 12.6 30.7977 12.6ZM35.957 13.5V9.32H34.387V8.3H38.767V9.32H37.197V13.5H35.957ZM39.6836 13.5V8.3H40.8936V11.61H40.9536L43.3036 8.3H44.5936V13.5H43.3736V9.91H43.3236L40.8136 13.5H39.6836ZM48.4298 13.58C46.8598 13.58 45.7798 12.5 45.7798 10.97V10.81C45.7798 9.3 46.8998 8.22 48.4098 8.22H48.4698C49.4798 8.22 50.2498 8.68 50.7098 9.41L49.7898 10.02C49.5098 9.49 49.0798 9.21 48.4898 9.21H48.4598C47.5998 9.21 47.0698 9.82 47.0698 10.85V10.95C47.0698 11.94 47.6598 12.57 48.5098 12.57H48.5598C49.1598 12.57 49.5798 12.25 49.8498 11.76L50.7498 12.43C50.2698 13.14 49.5098 13.58 48.4998 13.58H48.4298ZM51.2841 13.5L52.4641 11.49C51.8641 11.21 51.4741 10.73 51.4741 10.11V9.93C51.4741 8.98 52.2641 8.3 53.3541 8.3H55.9141V13.5H54.7441V11.73H53.5841L52.5941 13.5H51.2841ZM53.5541 10.82H54.7541V9.25H53.5541C53.0541 9.25 52.6741 9.54 52.6741 9.96V10.07C52.6741 10.5 53.0541 10.82 53.5541 10.82ZM60.0742 13.5V8.3H61.3142V10.28H63.6742V8.3H64.9142V13.5H63.6742V11.28H61.3142V13.5H60.0742ZM67.8621 13.6C66.7821 13.6 66.0421 12.97 66.0421 12.05V11.98C66.0421 10.87 67.0921 10.29 69.1821 10.29H69.6021V10.06C69.6021 9.56 69.2121 9.22 68.5221 9.22H68.4921C67.9521 9.22 67.3221 9.42 66.8021 9.75L66.2921 8.85C66.9321 8.45 67.7321 8.19 68.5621 8.19H68.6221C69.9421 8.19 70.7721 8.91 70.7721 10.08V12.43C70.7721 12.79 70.8521 13.16 70.9521 13.5H69.7721C69.7121 13.34 69.6621 13.11 69.6321 12.88C69.1921 13.32 68.5721 13.6 67.8621 13.6ZM68.1121 12.6C68.6921 12.6 69.2421 12.35 69.6021 11.96V11.09H69.2521C67.8821 11.09 67.2421 11.37 67.2421 11.92V11.96C67.2421 12.33 67.5921 12.6 68.1121 12.6ZM8.38 33.5V19.5H12V24.86H16.72V19.5H20.34V33.5H16.72V27.98H12V33.5H8.38ZM24.9591 21.96C23.7991 21.96 23.0191 21.28 23.0191 20.28C23.0191 19.26 23.7991 18.56 24.9591 18.56C26.1591 18.56 26.9791 19.26 26.9791 20.28C26.9791 21.28 26.1791 21.96 24.9591 21.96ZM23.2391 33.5V23.1H26.7191V33.5H23.2391ZM29.5281 33.5V19.1H33.0081V27.3H33.2481L36.6481 23.1H40.3681L36.1281 27.86L40.3281 33.5H36.3881L33.2281 28.8H33.0081V33.5H29.5281ZM41.657 33.5V19.1H45.137V27.3H45.377L48.777 23.1H52.497L48.257 27.86L52.457 33.5H48.517L45.357 28.8H45.137V33.5H41.657ZM56.5706 33.74C54.4506 33.74 52.9506 32.5 52.9506 30.66V30.44C52.9506 28.22 55.0106 27.06 59.1306 27.06H59.8506V26.88C59.8506 26.08 59.3106 25.48 58.1306 25.48H58.0306C57.0306 25.48 55.8706 25.84 54.7306 26.46L53.4306 24.1C54.6706 23.34 56.4706 22.86 58.2106 22.86H58.4306C61.2906 22.86 63.0706 24.4 63.0706 27.06V30.9C63.0706 31.82 63.2306 32.6 63.4306 33.5H60.2306C60.1106 33.16 60.0106 32.78 59.9506 32.32C59.2706 33.1 58.1106 33.74 56.5706 33.74ZM57.5706 31.22C58.3706 31.22 59.2706 30.9 59.8706 30.28V28.9H59.1106C57.2106 28.9 56.2306 29.38 56.2306 30.2V30.28C56.2306 30.82 56.7706 31.22 57.5706 31.22Z" fill="white"/>
<path d="M88.9308 8.68328L85.0618 12.5618C84.4758 13.1492 84.4781 14.1009 85.067 14.6856L89.3678 18.9556C89.9508 19.5344 89.9598 20.4744 89.3879 21.0642L85.0429 25.5456C84.4668 26.1399 84.4809 27.0886 85.0745 27.6655L88.9927 31.4732C89.5793 32.0432 90.5145 32.0382 91.095 31.4619L95.4072 27.1806C95.9941 26.5979 96.9419 26.6002 97.526 27.1857L101.771 31.4408C102.355 32.0263 103.302 32.0287 103.889 31.4463L107.799 27.5671C108.392 26.9785 108.39 26.0187 107.794 25.4328L103.482 21.1931C102.885 20.6054 102.885 19.642 103.482 19.0542L107.918 14.6909C108.513 14.105 108.515 13.1454 107.922 12.5569L103.904 8.56918C103.312 7.98074 102.352 7.99003 101.771 8.58985L97.5258 12.9693C96.9443 13.5692 95.9847 13.5784 95.3918 12.9897L91.0496 8.67821C90.4627 8.09546 89.5149 8.09773 88.9308 8.68328Z" fill="url(#paint1_linear_1000_66)"/>
<defs>
<radialGradient id="paint0_radial_1000_66" cx="0" cy="0" r="1" gradientUnits="userSpaceOnUse" gradientTransform="translate(96.5 20) rotate(-180) scale(58.5 66.8198)">
<stop stop-color="#391553"/>
<stop offset="1" stop-color="#18181B"/>
</radialGradient>
<linearGradient id="paint1_linear_1000_66" x1="86.1448" y1="10.2554" x2="109.038" y2="26.6335" gradientUnits="userSpaceOnUse">
<stop offset="0.290756" stop-color="#D691F7"/>
<stop offset="1" stop-color="#226CBB"/>
</linearGradient>
</defs>
</svg>
