<svg width="129" height="48" viewBox="0 0 129 48" fill="none" xmlns="http://www.w3.org/2000/svg">
<g filter="url(#filter0_d_1000_66)">
<rect x="4" width="121" height="40" rx="4" fill="url(#paint0_radial_1000_66)"/>
<g clip-path="url(#clip0_1000_66)">
<path d="M102.723 13.4457C104.897 13.4457 106.641 14.1664 107.955 15.6078C109.268 17.0267 109.925 18.986 109.925 21.486V32.499H104.15V22.263C104.15 21.0017 103.821 20.0221 103.165 19.3238C102.508 18.6257 101.625 18.2766 100.515 18.2766C99.405 18.2766 98.5217 18.6257 97.8649 19.3238C97.2081 20.0221 96.8796 21.0017 96.8796 22.263V32.499H91.0703V7.5H96.8796V16.1821C97.4686 15.3488 98.2725 14.6844 99.2917 14.1889C100.311 13.6934 101.455 13.4457 102.723 13.4457Z" fill="white"/>
</g>
<path d="M11.17 14.35V11.88H11.72C12.16 11.33 12.34 9.64 12.34 6.73V6H17.1V11.88H17.92V14.35H16.67V13H12.42V14.35H11.17ZM15.81 11.88V7.11H13.6V7.22C13.58 9.53 13.37 11.04 12.97 11.88H15.81ZM21.231 13.09C19.631 13.09 18.481 12 18.481 10.47V10.33C18.481 8.8 19.631 7.71 21.231 7.71H21.311C22.911 7.71 24.061 8.8 24.061 10.33V10.47C24.061 12 22.911 13.09 21.311 13.09H21.231ZM21.241 12.11H21.301C22.151 12.11 22.771 11.42 22.771 10.45V10.35C22.771 9.38 22.161 8.69 21.301 8.69H21.241C20.391 8.69 19.781 9.38 19.781 10.35V10.45C19.781 11.42 20.391 12.11 21.241 12.11ZM27.5959 13.08C26.0259 13.08 24.9459 12 24.9459 10.47V10.31C24.9459 8.8 26.0659 7.72 27.5759 7.72H27.6359C28.6459 7.72 29.4159 8.18 29.8759 8.91L28.9559 9.52C28.6759 8.99 28.2459 8.71 27.6559 8.71H27.6259C26.7659 8.71 26.2359 9.32 26.2359 10.35V10.45C26.2359 11.44 26.8259 12.07 27.6759 12.07H27.7259C28.3259 12.07 28.7459 11.75 29.0159 11.26L29.9159 11.93C29.4359 12.64 28.6759 13.08 27.6659 13.08H27.5959ZM31.9102 13V8.82H30.3402V7.8H34.7202V8.82H33.1502V13H31.9102ZM36.4467 15.01C36.1667 15.01 35.7767 14.97 35.4867 14.82V13.76C35.7267 13.88 35.9567 13.96 36.2067 13.96C36.6267 13.96 36.9667 13.69 37.2267 13.23L34.9767 7.8H36.2967L37.8267 11.79H37.8967L39.1667 7.8H40.4267L38.5167 13.29C38.2267 14.13 37.7067 15.01 36.4467 15.01ZM41.2129 13V7.8H46.0429V13H44.8029V8.8H42.4529V13H41.2129ZM47.541 13V7.8H48.781V9.78H51.141V7.8H52.381V13H51.141V10.78H48.781V13H47.541ZM56.2489 13.09C54.6689 13.09 53.5689 12.03 53.5689 10.5V10.36C53.5689 8.83 54.6989 7.71 56.2289 7.71H56.2889C57.7289 7.71 58.7689 8.71 58.7689 10.11V10.78H54.7989V10.79C54.8889 11.54 55.4889 12.05 56.3289 12.05H56.3789C57.0189 12.05 57.5989 11.76 57.8989 11.38L58.5889 12.13C58.0989 12.72 57.1989 13.09 56.3389 13.09H56.2489ZM54.8289 9.95H57.5889C57.5289 9.21 56.9989 8.68 56.2389 8.68H56.2289C55.5089 8.68 54.9689 9.18 54.8289 9.95ZM62.6387 13V7.8H63.8787V9.78H66.2387V7.8H67.4787V13H66.2387V10.78H63.8787V13H62.6387ZM70.4266 13.1C69.3466 13.1 68.6066 12.47 68.6066 11.55V11.48C68.6066 10.37 69.6566 9.79 71.7466 9.79H72.1666V9.56C72.1666 9.06 71.7766 8.72 71.0866 8.72H71.0566C70.5166 8.72 69.8866 8.92 69.3666 9.25L68.8566 8.35C69.4966 7.95 70.2966 7.69 71.1266 7.69H71.1866C72.5066 7.69 73.3366 8.41 73.3366 9.58V11.93C73.3366 12.29 73.4166 12.66 73.5166 13H72.3366C72.2766 12.84 72.2266 12.61 72.1966 12.38C71.7566 12.82 71.1366 13.1 70.4266 13.1ZM70.6766 12.1C71.2566 12.1 71.8066 11.85 72.1666 11.46V10.59H71.8166C70.4466 10.59 69.8066 10.87 69.8066 11.42V11.46C69.8066 11.83 70.1566 12.1 70.6766 12.1ZM12.38 33V19H16V24.36H20.72V19H24.34V33H20.72V27.48H16V33H12.38ZM28.9591 21.46C27.7991 21.46 27.0191 20.78 27.0191 19.78C27.0191 18.76 27.7991 18.06 28.9591 18.06C30.1591 18.06 30.9791 18.76 30.9791 19.78C30.9791 20.78 30.1791 21.46 28.9591 21.46ZM27.2391 33V22.6H30.7191V33H27.2391ZM33.5281 33V18.6H37.0081V26.8H37.2481L40.6481 22.6H44.3681L40.1281 27.36L44.3281 33H40.3881L37.2281 28.3H37.0081V33H33.5281ZM45.657 33V18.6H49.137V26.8H49.377L52.777 22.6H56.497L52.257 27.36L56.457 33H52.517L49.357 28.3H49.137V33H45.657ZM60.5706 33.24C58.4506 33.24 56.9506 32 56.9506 30.16V29.94C56.9506 27.72 59.0106 26.56 63.1306 26.56H63.8506V26.38C63.8506 25.58 63.3106 24.98 62.1306 24.98H62.0306C61.0306 24.98 59.8706 25.34 58.7306 25.96L57.4306 23.6C58.6706 22.84 60.4706 22.36 62.2106 22.36H62.4306C65.2906 22.36 67.0706 23.9 67.0706 26.56V30.4C67.0706 31.32 67.2306 32.1 67.4306 33H64.2306C64.1106 32.66 64.0106 32.28 63.9506 31.82C63.2706 32.6 62.1106 33.24 60.5706 33.24ZM61.5706 30.72C62.3706 30.72 63.2706 30.4 63.8706 29.78V28.4H63.1106C61.2106 28.4 60.2306 28.88 60.2306 29.7V29.78C60.2306 30.32 60.7706 30.72 61.5706 30.72Z" fill="white"/>
</g>
<defs>
<filter id="filter0_d_1000_66" x="0" y="0" width="129" height="48" filterUnits="userSpaceOnUse" color-interpolation-filters="sRGB">
<feFlood flood-opacity="0" result="BackgroundImageFix"/>
<feColorMatrix in="SourceAlpha" type="matrix" values="0 0 0 0 0 0 0 0 0 0 0 0 0 0 0 0 0 0 127 0" result="hardAlpha"/>
<feOffset dy="4"/>
<feGaussianBlur stdDeviation="2"/>
<feComposite in2="hardAlpha" operator="out"/>
<feColorMatrix type="matrix" values="0 0 0 0 0 0 0 0 0 0 0 0 0 0 0 0 0 0 0.25 0"/>
<feBlend mode="normal" in2="BackgroundImageFix" result="effect1_dropShadow_1000_66"/>
<feBlend mode="normal" in="SourceGraphic" in2="effect1_dropShadow_1000_66" result="shape"/>
</filter>
<radialGradient id="paint0_radial_1000_66" cx="0" cy="0" r="1" gradientUnits="userSpaceOnUse" gradientTransform="translate(100.5 20) rotate(-180) scale(58.5 66.8198)">
<stop stop-color="#391553"/>
<stop offset="1" stop-color="#18181B"/>
</radialGradient>
<clipPath id="clip0_1000_66">
<rect width="18.8575" height="25" fill="white" transform="translate(91.0703 7.5)"/>
</clipPath>
</defs>
</svg>
