<svg width="121" height="40" viewBox="0 0 121 40" fill="none" xmlns="http://www.w3.org/2000/svg">
<rect x="0.5" y="0.5" width="120" height="39" rx="3.5" fill="#F2F2F2"/>
<rect x="0.5" y="0.5" width="120" height="39" rx="3.5" stroke="#373737"/>
<path d="M7.17 14.85V12.38H7.72C8.16 11.83 8.34 10.14 8.34 7.23V6.5H13.1V12.38H13.92V14.85H12.67V13.5H8.42V14.85H7.17ZM11.81 12.38V7.61H9.6V7.72C9.58 10.03 9.37 11.54 8.97 12.38H11.81ZM17.231 13.59C15.631 13.59 14.481 12.5 14.481 10.97V10.83C14.481 9.3 15.631 8.21 17.231 8.21H17.311C18.911 8.21 20.061 9.3 20.061 10.83V10.97C20.061 12.5 18.911 13.59 17.311 13.59H17.231ZM17.241 12.61H17.301C18.151 12.61 18.771 11.92 18.771 10.95V10.85C18.771 9.88 18.161 9.19 17.301 9.19H17.241C16.391 9.19 15.781 9.88 15.781 10.85V10.95C15.781 11.92 16.391 12.61 17.241 12.61ZM23.5959 13.58C22.0259 13.58 20.9459 12.5 20.9459 10.97V10.81C20.9459 9.3 22.0659 8.22 23.5759 8.22H23.6359C24.6459 8.22 25.4159 8.68 25.8759 9.41L24.9559 10.02C24.6759 9.49 24.2459 9.21 23.6559 9.21H23.6259C22.7659 9.21 22.2359 9.82 22.2359 10.85V10.95C22.2359 11.94 22.8259 12.57 23.6759 12.57H23.7259C24.3259 12.57 24.7459 12.25 25.0159 11.76L25.9159 12.43C25.4359 13.14 24.6759 13.58 23.6659 13.58H23.5959ZM27.9102 13.5V9.32H26.3402V8.3H30.7202V9.32H29.1502V13.5H27.9102ZM32.4467 15.51C32.1667 15.51 31.7767 15.47 31.4867 15.32V14.26C31.7267 14.38 31.9567 14.46 32.2067 14.46C32.6267 14.46 32.9667 14.19 33.2267 13.73L30.9767 8.3H32.2967L33.8267 12.29H33.8967L35.1667 8.3H36.4267L34.5167 13.79C34.2267 14.63 33.7067 15.51 32.4467 15.51ZM37.2129 13.5V8.3H42.0429V13.5H40.8029V9.3H38.4529V13.5H37.2129ZM43.541 13.5V8.3H44.781V10.28H47.141V8.3H48.381V13.5H47.141V11.28H44.781V13.5H43.541ZM52.2489 13.59C50.6689 13.59 49.5689 12.53 49.5689 11V10.86C49.5689 9.33 50.6989 8.21 52.2289 8.21H52.2889C53.7289 8.21 54.7689 9.21 54.7689 10.61V11.28H50.7989V11.29C50.8889 12.04 51.4889 12.55 52.3289 12.55H52.3789C53.0189 12.55 53.5989 12.26 53.8989 11.88L54.5889 12.63C54.0989 13.22 53.1989 13.59 52.3389 13.59H52.2489ZM50.8289 10.45H53.5889C53.5289 9.71 52.9989 9.18 52.2389 9.18H52.2289C51.5089 9.18 50.9689 9.68 50.8289 10.45ZM58.6387 13.5V8.3H59.8787V10.28H62.2387V8.3H63.4787V13.5H62.2387V11.28H59.8787V13.5H58.6387ZM66.4266 13.6C65.3466 13.6 64.6066 12.97 64.6066 12.05V11.98C64.6066 10.87 65.6566 10.29 67.7466 10.29H68.1666V10.06C68.1666 9.56 67.7766 9.22 67.0866 9.22H67.0566C66.5166 9.22 65.8866 9.42 65.3666 9.75L64.8566 8.85C65.4966 8.45 66.2966 8.19 67.1266 8.19H67.1866C68.5066 8.19 69.3366 8.91 69.3366 10.08V12.43C69.3366 12.79 69.4166 13.16 69.5166 13.5H68.3366C68.2766 13.34 68.2266 13.11 68.1966 12.88C67.7566 13.32 67.1366 13.6 66.4266 13.6ZM66.6766 12.6C67.2566 12.6 67.8066 12.35 68.1666 11.96V11.09H67.8166C66.4466 11.09 65.8066 11.37 65.8066 11.92V11.96C65.8066 12.33 66.1566 12.6 66.6766 12.6ZM8.38 33.5V19.5H12.02V25.2H12.22L16.34 19.5H20.38L15.26 25.94L20.64 33.5H16.4L12.2 27.1H12.02V33.5H8.38ZM24.7264 33.74C22.4664 33.74 21.1264 32.26 21.1264 29.78V23.1H24.6064V28.98C24.6064 30.26 25.1264 30.9 26.1664 30.9H26.1864C27.4664 30.9 28.2264 29.9 28.2264 28.38V23.1H31.7064V33.5H28.9464C28.8064 33.08 28.6464 32.28 28.6464 31.82C27.7264 32.98 26.3464 33.74 24.7664 33.74H24.7264ZM34.0984 33.5V19.1H37.5784V33.5H34.0984ZM41.8341 21.96C40.6741 21.96 39.8941 21.28 39.8941 20.28C39.8941 19.26 40.6741 18.56 41.8341 18.56C43.0341 18.56 43.8541 19.26 43.8541 20.28C43.8541 21.28 43.0541 21.96 41.8341 21.96ZM40.1141 33.5V23.1H43.5941V33.5H40.1141Z" fill="black"/>
<g clip-path="url(#clip0_1138_282)">
<mask id="mask0_1138_282" style="mask-type:luminance" maskUnits="userSpaceOnUse" x="79" y="10" width="30" height="20">
<path d="M109 10.1818H79V29.8182H109V10.1818Z" fill="white"/>
</mask>
<g mask="url(#mask0_1138_282)">
<mask id="mask1_1138_282" style="mask-type:luminance" maskUnits="userSpaceOnUse" x="79" y="10" width="30" height="20">
<path d="M108.95 10.1818H79V29.8182H108.95V10.1818Z" fill="white"/>
</mask>
<g mask="url(#mask1_1138_282)">
<path d="M81.4047 12.3925C81.3239 11.9381 81.599 11.4961 82.0424 11.368L85.4327 10.3886C85.9254 10.2463 86.4374 10.5429 86.5592 11.0411L86.9317 12.5662L81.6163 13.5825L81.4047 12.3925Z" fill="#8298CD"/>
<path d="M106.295 12.3924C106.375 11.9381 106.1 11.4961 105.657 11.368L102.267 10.3886C101.774 10.2463 101.262 10.5429 101.14 11.0411L100.768 12.5662L106.083 13.5825L106.295 12.3924Z" fill="#8298CD"/>
<path d="M81.4047 12.3921C81.3239 11.9377 81.599 11.4957 82.0424 11.3677L85.4327 10.3882C85.9254 10.2459 86.4374 10.5425 86.5592 11.0407L86.9317 12.5658L81.6163 13.5821L81.4047 12.3921Z" fill="#8298CD"/>
<path d="M106.295 12.3921C106.375 11.9377 106.1 11.4957 105.657 11.3676L102.267 10.3882C101.774 10.2459 101.262 10.5425 101.14 11.0407L100.768 12.5658L106.083 13.5821L106.295 12.3921Z" fill="#8298CD"/>
<path fill-rule="evenodd" clip-rule="evenodd" d="M100.062 24.7618C98.8102 24.1867 89.0894 24.1867 87.838 24.7618C86.3633 25.4382 85.2133 27.9456 83.8288 29.2715C82.4443 30.5974 79.9279 29.7225 79.3574 26.8521C78.5908 22.9894 78.9313 16.766 81.2064 13.1898C82.5593 11.0634 85.6688 10.9168 87.8155 11.0814C89.9621 11.2461 97.9376 11.2461 100.086 11.0814C102.235 10.9168 105.34 11.0634 106.695 13.1898C108.971 16.766 109.309 22.9894 108.542 26.8521C107.972 29.7293 105.46 30.5974 104.073 29.2715C102.686 27.9456 101.536 25.4405 100.062 24.7618Z" fill="#2E53AC"/>
<path fill-rule="evenodd" clip-rule="evenodd" d="M93.0967 20.9898C93.0967 20.9547 93.0881 20.92 93.0715 20.8875C93.0549 20.8551 93.0305 20.8256 92.9998 20.8008C92.9691 20.776 92.9326 20.7563 92.8924 20.7429C92.8523 20.7294 92.8093 20.7225 92.7658 20.7225H91.1726C91.0849 20.7225 91.0007 20.7507 90.9387 20.8008C90.8767 20.8509 90.8418 20.9189 90.8418 20.9898V21.1317C90.8418 21.2026 90.8767 21.2705 90.9387 21.3207C91.0007 21.3708 91.0849 21.3989 91.1726 21.3989H92.7614C92.8491 21.3989 92.9332 21.3708 92.9953 21.3207C93.0573 21.2705 93.0922 21.2026 93.0922 21.1317L93.0967 20.9898Z" fill="#8298CD"/>
<path fill-rule="evenodd" clip-rule="evenodd" d="M96.9287 20.9898C96.9287 20.9189 96.8938 20.8509 96.8316 20.8008C96.7695 20.7507 96.6851 20.7225 96.5972 20.7225H95.0053C94.9174 20.7225 94.8331 20.7507 94.7709 20.8008C94.7087 20.8509 94.6738 20.9189 94.6738 20.9898V21.1317C94.6738 21.2026 94.7087 21.2705 94.7709 21.3207C94.8331 21.3708 94.9174 21.3989 95.0053 21.3989H96.5972C96.6851 21.3989 96.7695 21.3708 96.8316 21.3207C96.8938 21.2705 96.9287 21.2026 96.9287 21.1317V20.9898Z" fill="#8298CD"/>
<path fill-rule="evenodd" clip-rule="evenodd" d="M102.794 14.4164C102.995 14.4164 103.191 14.476 103.358 14.5875C103.525 14.6989 103.655 14.8574 103.731 15.0428C103.808 15.2282 103.828 15.4323 103.789 15.6291C103.75 15.8259 103.653 16.0067 103.511 16.1487C103.37 16.2905 103.189 16.3872 102.992 16.4263C102.795 16.4655 102.591 16.4454 102.406 16.3686C102.22 16.2918 102.062 16.1617 101.95 15.9949C101.839 15.828 101.779 15.6318 101.779 15.4311C101.779 15.162 101.886 14.9039 102.077 14.7136C102.267 14.5233 102.525 14.4164 102.794 14.4164Z" fill="#8298CD"/>
<path fill-rule="evenodd" clip-rule="evenodd" d="M105.725 17.3476C105.725 17.5483 105.665 17.7444 105.554 17.9113C105.442 18.0782 105.284 18.2082 105.098 18.285C104.913 18.3618 104.709 18.382 104.512 18.3428C104.315 18.3036 104.134 18.207 103.993 18.0651C103.851 17.9232 103.754 17.7424 103.715 17.5456C103.676 17.3487 103.696 17.1447 103.773 16.9593C103.849 16.7739 103.979 16.6154 104.146 16.5039C104.313 16.3924 104.509 16.3329 104.71 16.3329C104.979 16.3329 105.237 16.4398 105.427 16.6301C105.618 16.8204 105.725 17.0785 105.725 17.3476Z" fill="#8298CD"/>
<path fill-rule="evenodd" clip-rule="evenodd" d="M102.794 18.2494C102.995 18.2494 103.191 18.3089 103.358 18.4204C103.525 18.5319 103.655 18.6903 103.731 18.8757C103.808 19.0612 103.828 19.2652 103.789 19.462C103.75 19.6588 103.653 19.8396 103.511 19.9815C103.37 20.1234 103.189 20.2201 102.992 20.2593C102.795 20.2984 102.591 20.2783 102.406 20.2015C102.22 20.1247 102.062 19.9947 101.95 19.8277C101.839 19.6609 101.779 19.4647 101.779 19.264C101.779 18.9949 101.886 18.7368 102.077 18.5465C102.267 18.3563 102.525 18.2494 102.794 18.2494Z" fill="#8298CD"/>
<path fill-rule="evenodd" clip-rule="evenodd" d="M101.893 17.3488C101.893 17.5494 101.833 17.7456 101.722 17.9125C101.61 18.0793 101.452 18.2094 101.266 18.2862C101.081 18.363 100.877 18.3831 100.68 18.3439C100.483 18.3048 100.302 18.2081 100.16 18.0663C100.019 17.9243 99.9219 17.7436 99.8828 17.5467C99.8436 17.3499 99.8637 17.1459 99.9405 16.9605C100.017 16.7751 100.147 16.6165 100.314 16.5051C100.481 16.3936 100.677 16.3341 100.878 16.3341C101.147 16.3341 101.405 16.441 101.595 16.6313C101.786 16.8215 101.893 17.0796 101.893 17.3488Z" fill="#8298CD"/>
<path d="M84.2004 14.9625C84.1378 14.6809 84.3521 14.4137 84.6406 14.4137H85.7711C86.0596 14.4137 86.2739 14.6809 86.2113 14.9625L85.9608 16.09C85.9149 16.2963 85.7319 16.4431 85.5206 16.4431H84.8912C84.6798 16.4431 84.4967 16.2963 84.4509 16.09L84.2004 14.9625Z" fill="#8298CD"/>
<path d="M87.588 16.3402C87.8697 16.2776 88.1368 16.4919 88.1368 16.7804V17.9109C88.1368 18.1994 87.8697 18.4137 87.588 18.3511L86.4606 18.1006C86.2543 18.0547 86.1074 17.8717 86.1074 17.6604V17.031C86.1074 16.8196 86.2543 16.6366 86.4606 16.5907L87.588 16.3402Z" fill="#8298CD"/>
<path d="M84.2004 19.729C84.1378 20.0106 84.3521 20.2777 84.6406 20.2777H85.7711C86.0596 20.2777 86.2739 20.0106 86.2113 19.729L85.9608 18.6015C85.9149 18.3952 85.7319 18.2484 85.5206 18.2484H84.8912C84.6798 18.2484 84.4967 18.3952 84.4509 18.6015L84.2004 19.729Z" fill="#8298CD"/>
<path d="M82.8222 16.3402C82.5406 16.2776 82.2734 16.4919 82.2734 16.7804V17.9109C82.2734 18.1994 82.5406 18.4137 82.8222 18.3511L83.9497 18.1006C84.156 18.0547 84.3028 17.8717 84.3028 17.6604V17.031C84.3028 16.8196 84.156 16.6366 83.9497 16.5907L82.8222 16.3402Z" fill="#8298CD"/>
<path d="M81.4047 12.3921C81.3239 11.9377 81.599 11.4957 82.0424 11.3676L85.4327 10.3882C85.9254 10.2459 86.4374 10.5425 86.5592 11.0407L86.9317 12.5658L81.6163 13.5821L81.4047 12.3921Z" fill="#8298CD"/>
<path d="M106.295 12.3921C106.375 11.9377 106.1 11.4957 105.657 11.3676L102.267 10.3882C101.774 10.2459 101.262 10.5425 101.14 11.0407L100.768 12.5658L106.083 13.5821L106.295 12.3921Z" fill="#8298CD"/>
<path fill-rule="evenodd" clip-rule="evenodd" d="M100.062 24.7618C98.8102 24.1867 89.0894 24.1867 87.838 24.7618C86.3633 25.4382 85.2133 27.9456 83.8288 29.2715C82.4443 30.5974 79.9279 29.7225 79.3574 26.8521C78.5908 22.9894 78.9313 16.766 81.2064 13.1898C82.5593 11.0634 85.6688 10.9168 87.8155 11.0814C89.9621 11.2461 97.9376 11.2461 100.086 11.0814C102.235 10.9168 105.34 11.0634 106.695 13.1898C108.971 16.766 109.309 22.9894 108.542 26.8521C107.972 29.7293 105.46 30.5974 104.073 29.2715C102.686 27.9456 101.536 25.4405 100.062 24.7618Z" fill="#2E53AC"/>
<path d="M91.8288 11.195C90.1052 11.1782 88.5942 11.1404 87.8271 11.0816C85.6805 10.917 82.5711 11.0636 81.2181 13.1899C78.943 16.7662 78.6025 22.9896 79.3691 26.8522C79.9396 29.7227 82.4561 30.5976 83.8406 29.2717C84.3913 28.7443 84.9049 28.0299 85.4166 27.3182C86.1913 26.2407 86.9616 25.1693 87.8497 24.7619C88.4225 24.4988 90.7689 24.3561 93.2657 24.3338C94.095 22.6915 94.5621 20.835 94.5621 18.8695C94.5621 15.9583 93.5373 13.2865 91.8288 11.195Z" fill="#4174D9"/>
<path fill-rule="evenodd" clip-rule="evenodd" d="M93.0967 20.9898C93.0967 20.9547 93.0881 20.92 93.0715 20.8875C93.0549 20.8551 93.0305 20.8256 92.9998 20.8008C92.9691 20.776 92.9326 20.7563 92.8924 20.7429C92.8523 20.7294 92.8093 20.7225 92.7658 20.7225H91.1726C91.0849 20.7225 91.0007 20.7507 90.9387 20.8008C90.8767 20.8509 90.8418 20.9189 90.8418 20.9898V21.1317C90.8418 21.2026 90.8767 21.2705 90.9387 21.3207C91.0007 21.3708 91.0849 21.3989 91.1726 21.3989H92.7614C92.8491 21.3989 92.9332 21.3708 92.9953 21.3207C93.0573 21.2705 93.0922 21.2026 93.0922 21.1317L93.0967 20.9898Z" fill="#ABBADE"/>
<path fill-rule="evenodd" clip-rule="evenodd" d="M96.9287 20.9902C96.9287 20.9193 96.8938 20.8513 96.8316 20.8012C96.7695 20.751 96.6851 20.7229 96.5972 20.7229H95.0053C94.9174 20.7229 94.8331 20.751 94.7709 20.8012C94.7087 20.8513 94.6738 20.9193 94.6738 20.9902V21.132C94.6738 21.2029 94.7087 21.2709 94.7709 21.321C94.8331 21.3712 94.9174 21.3994 95.0053 21.3994H96.5972C96.6851 21.3994 96.7695 21.3712 96.8316 21.321C96.8938 21.2709 96.9287 21.2029 96.9287 21.132V20.9902Z" fill="#8298CD"/>
<path fill-rule="evenodd" clip-rule="evenodd" d="M102.794 14.4164C102.995 14.4164 103.191 14.476 103.358 14.5875C103.525 14.6989 103.655 14.8574 103.731 15.0428C103.808 15.2282 103.828 15.4323 103.789 15.6291C103.75 15.8259 103.653 16.0067 103.511 16.1487C103.37 16.2905 103.189 16.3872 102.992 16.4263C102.795 16.4655 102.591 16.4454 102.406 16.3686C102.22 16.2918 102.062 16.1617 101.95 15.9949C101.839 15.828 101.779 15.6318 101.779 15.4311C101.779 15.162 101.886 14.9039 102.077 14.7136C102.267 14.5233 102.525 14.4164 102.794 14.4164Z" fill="#8298CD"/>
<path fill-rule="evenodd" clip-rule="evenodd" d="M105.725 17.3476C105.725 17.5483 105.665 17.7444 105.554 17.9113C105.442 18.0782 105.284 18.2082 105.098 18.285C104.913 18.3618 104.709 18.382 104.512 18.3428C104.315 18.3036 104.134 18.207 103.993 18.0651C103.851 17.9232 103.754 17.7424 103.715 17.5456C103.676 17.3487 103.696 17.1447 103.773 16.9593C103.849 16.7739 103.979 16.6154 104.146 16.5039C104.313 16.3924 104.509 16.3329 104.71 16.3329C104.979 16.3329 105.237 16.4398 105.427 16.6301C105.618 16.8204 105.725 17.0785 105.725 17.3476Z" fill="#8298CD"/>
<path fill-rule="evenodd" clip-rule="evenodd" d="M102.794 18.2494C102.995 18.2494 103.191 18.3089 103.358 18.4204C103.525 18.5319 103.655 18.6903 103.731 18.8758C103.808 19.0612 103.828 19.2652 103.789 19.462C103.75 19.6588 103.653 19.8396 103.511 19.9816C103.37 20.1234 103.189 20.2201 102.992 20.2593C102.795 20.2984 102.591 20.2783 102.406 20.2015C102.22 20.1247 102.062 19.9946 101.95 19.8278C101.839 19.6609 101.779 19.4647 101.779 19.2641C101.779 18.9949 101.886 18.7368 102.077 18.5465C102.267 18.3563 102.525 18.2494 102.794 18.2494Z" fill="#8298CD"/>
<path fill-rule="evenodd" clip-rule="evenodd" d="M101.893 17.3488C101.893 17.5494 101.833 17.7456 101.722 17.9125C101.61 18.0793 101.452 18.2094 101.266 18.2862C101.081 18.363 100.877 18.3831 100.68 18.3439C100.483 18.3048 100.302 18.2081 100.16 18.0663C100.019 17.9243 99.9219 17.7436 99.8828 17.5467C99.8436 17.3499 99.8637 17.1459 99.9405 16.9605C100.017 16.7751 100.147 16.6165 100.314 16.5051C100.481 16.3936 100.677 16.3341 100.878 16.3341C101.147 16.3341 101.405 16.441 101.595 16.6313C101.786 16.8215 101.893 17.0796 101.893 17.3488Z" fill="#8298CD"/>
<path d="M84.2004 14.9625C84.1378 14.6809 84.3521 14.4137 84.6406 14.4137H85.7711C86.0596 14.4137 86.2739 14.6809 86.2113 14.9625L85.9608 16.09C85.9149 16.2963 85.7319 16.4431 85.5206 16.4431H84.8912C84.6798 16.4431 84.4967 16.2963 84.4509 16.09L84.2004 14.9625Z" fill="#ABBADE"/>
<path d="M87.588 16.3402C87.8697 16.2776 88.1368 16.4919 88.1368 16.7804V17.9109C88.1368 18.1994 87.8697 18.4137 87.588 18.3511L86.4606 18.1006C86.2543 18.0547 86.1074 17.8717 86.1074 17.6604V17.031C86.1074 16.8196 86.2543 16.6366 86.4606 16.5907L87.588 16.3402Z" fill="#ABBADE"/>
<path d="M84.2004 19.729C84.1378 20.0106 84.3521 20.2777 84.6406 20.2777H85.7711C86.0596 20.2777 86.2739 20.0106 86.2113 19.729L85.9608 18.6015C85.9149 18.3952 85.7319 18.2484 85.5206 18.2484H84.8912C84.6798 18.2484 84.4967 18.3952 84.4509 18.6015L84.2004 19.729Z" fill="#ABBADE"/>
<path d="M82.8222 16.3402C82.5406 16.2776 82.2734 16.4919 82.2734 16.7804V17.9109C82.2734 18.1994 82.5406 18.4137 82.8222 18.3511L83.9497 18.1006C84.156 18.0547 84.3028 17.8717 84.3028 17.6604V17.031C84.3028 16.8196 84.156 16.6366 83.9497 16.5907L82.8222 16.3402Z" fill="#ABBADE"/>
<path d="M94.1537 17.67L95.1677 14.9958H95.6356L96.6496 17.67H96.1816L95.9476 16.9903H94.8668L94.6217 17.67H94.1537ZM95.0005 16.6003H95.8028L95.4128 15.4972H95.3905L95.0005 16.6003ZM92.3932 17.0015L92.0812 16.6895L93.2066 15.564C93.0654 15.408 92.942 15.2465 92.8362 15.0793C92.7303 14.9122 92.6383 14.7358 92.5603 14.5501H93.0283C93.0951 14.6838 93.1667 14.8045 93.2429 14.9122C93.319 15.0199 93.4108 15.1332 93.5186 15.2521C93.682 15.0738 93.8175 14.8909 93.9252 14.7034C94.033 14.5158 94.124 14.3161 94.1982 14.1044H91.7246V13.6587H93.2846V13.213H93.7302V13.6587H95.2902V14.1044H94.6439C94.5659 14.3681 94.4601 14.6244 94.3264 14.8732C94.1927 15.1221 94.0274 15.3561 93.8306 15.5752L94.3654 16.1212L94.1982 16.578L93.5074 15.8872L92.3932 17.0015Z" fill="#ABBADE"/>
<path fill-rule="evenodd" clip-rule="evenodd" d="M93.6152 14.1044C93.5127 13.8613 93.4026 13.6221 93.2852 13.3874V13.213H93.7309V13.6587H95.2908V14.1044H94.6446C94.5666 14.3681 94.4607 14.6244 94.327 14.8732C94.2459 15.0242 94.1532 15.1697 94.0488 15.3097C93.9957 15.1328 93.9385 14.9576 93.8775 14.7843C93.8942 14.7574 93.9104 14.7305 93.9258 14.7034C94.0336 14.5158 94.1246 14.3161 94.1988 14.1044H93.6152ZM94.5087 17.67C94.4866 17.4326 94.4576 17.1973 94.422 16.9641L95.1683 14.9958H95.6363L96.6502 17.67H96.1822L95.9482 16.9903H94.8674L94.6223 17.67H94.5087ZM94.3012 16.2984C94.2789 16.1927 94.2552 16.0874 94.2302 15.9826L94.366 16.1212L94.3012 16.2984ZM95.8034 16.6003H95.0012L95.3911 15.4972H95.4134L95.8034 16.6003Z" fill="#8298CD"/>
</g>
</g>
</g>
<defs>
<clipPath id="clip0_1138_282">
<rect width="30" height="19.6364" fill="white" transform="translate(79 10.1818)"/>
</clipPath>
</defs>
</svg>
