<svg width="121" height="40" viewBox="0 0 121 40" fill="none" xmlns="http://www.w3.org/2000/svg">
<rect x="0.5" y="0.5" width="120" height="39" rx="3.5" fill="url(#paint0_radial_1136_240)"/>
<rect x="0.5" y="0.5" width="120" height="39" rx="3.5" stroke="#373737"/>
<path d="M7.84 13.5V6.5H13.36V13.5H12.05V7.66H9.15V13.5H7.84ZM17.327 13.59C15.747 13.59 14.647 12.53 14.647 11V10.86C14.647 9.33 15.777 8.21 17.307 8.21H17.367C18.807 8.21 19.847 9.21 19.847 10.61V11.28H15.877V11.29C15.967 12.04 16.567 12.55 17.407 12.55H17.457C18.097 12.55 18.677 12.26 18.977 11.88L19.667 12.63C19.177 13.22 18.277 13.59 17.417 13.59H17.327ZM15.907 10.45H18.667C18.607 9.71 18.077 9.18 17.317 9.18H17.307C16.587 9.18 16.047 9.68 15.907 10.45ZM21.0505 15.5V8.3H22.0305C22.1005 8.47 22.1605 8.77 22.1905 9C22.6305 8.5 23.2705 8.21 24.0205 8.21H24.0705C25.5205 8.21 26.5705 9.29 26.5705 10.83V10.97C26.5705 12.51 25.5205 13.59 24.0705 13.59H24.0205C23.3305 13.59 22.7205 13.34 22.2905 12.9V15.5H21.0505ZM23.7505 12.6H23.8205C24.6805 12.6 25.2805 11.94 25.2805 10.95V10.85C25.2805 9.86 24.6905 9.2 23.8205 9.2H23.7505C22.8905 9.2 22.2905 9.86 22.2905 10.85V10.95C22.2905 11.94 22.8905 12.6 23.7505 12.6ZM30.1395 13.59C28.5595 13.59 27.4595 12.53 27.4595 11V10.86C27.4595 9.33 28.5895 8.21 30.1195 8.21H30.1795C31.6195 8.21 32.6595 9.21 32.6595 10.61V11.28H28.6895V11.29C28.7795 12.04 29.3795 12.55 30.2195 12.55H30.2695C30.9095 12.55 31.4895 12.26 31.7895 11.88L32.4795 12.63C31.9895 13.22 31.0895 13.59 30.2295 13.59H30.1395ZM28.7195 10.45H31.4795C31.4195 9.71 30.8895 9.18 30.1295 9.18H30.1195C29.3995 9.18 28.8595 9.68 28.7195 10.45ZM33.873 13.5V8.3H35.113V10.49H35.193L37.293 8.3H38.693L36.293 10.71L38.753 13.5H37.263L35.193 11.04H35.113V13.5H33.873ZM39.5464 13.59C39.3164 13.59 39.1364 13.56 38.9564 13.49V12.49C39.0764 12.55 39.2264 12.57 39.3264 12.57C39.8564 12.57 39.9464 12.17 39.9664 10.65L39.9864 8.3H43.9564V13.5H42.7164V9.3H41.1364L41.1164 10.62C41.0864 12.97 40.6164 13.59 39.5464 13.59ZM46.8953 13.6C45.8153 13.6 45.0753 12.97 45.0753 12.05V11.98C45.0753 10.87 46.1253 10.29 48.2153 10.29H48.6353V10.06C48.6353 9.56 48.2453 9.22 47.5553 9.22H47.5253C46.9853 9.22 46.3553 9.42 45.8353 9.75L45.3253 8.85C45.9653 8.45 46.7653 8.19 47.5953 8.19H47.6553C48.9753 8.19 49.8053 8.91 49.8053 10.08V12.43C49.8053 12.79 49.8853 13.16 49.9853 13.5H48.8053C48.7453 13.34 48.6953 13.11 48.6653 12.88C48.2253 13.32 47.6053 13.6 46.8953 13.6ZM47.1453 12.6C47.7253 12.6 48.2753 12.35 48.6353 11.96V11.09H48.2853C46.9153 11.09 46.2753 11.37 46.2753 11.92V11.96C46.2753 12.33 46.6253 12.6 47.1453 12.6ZM50.6847 14.78V12.52H51.1647C51.5247 12.12 51.6747 10.77 51.6747 8.3H55.7747V12.52H56.5047V14.78H55.3247V13.5H51.8647V14.78H50.6847ZM52.3747 12.52H54.5447V9.27H52.8347C52.8047 11.13 52.6347 12.2 52.3747 12.52ZM60.1133 13.5V8.3H61.3533V10.28H63.7133V8.3H64.9533V13.5H63.7133V11.28H61.3533V13.5H60.1133ZM67.9012 13.6C66.8212 13.6 66.0812 12.97 66.0812 12.05V11.98C66.0812 10.87 67.1312 10.29 69.2212 10.29H69.6412V10.06C69.6412 9.56 69.2512 9.22 68.5612 9.22H68.5312C67.9912 9.22 67.3612 9.42 66.8412 9.75L66.3312 8.85C66.9712 8.45 67.7712 8.19 68.6012 8.19H68.6612C69.9812 8.19 70.8112 8.91 70.8112 10.08V12.43C70.8112 12.79 70.8912 13.16 70.9912 13.5H69.8112C69.7512 13.34 69.7012 13.11 69.6712 12.88C69.2312 13.32 68.6112 13.6 67.9012 13.6ZM68.1512 12.6C68.7312 12.6 69.2812 12.35 69.6412 11.96V11.09H69.2912C67.9212 11.09 67.2812 11.37 67.2812 11.92V11.96C67.2812 12.33 67.6312 12.6 68.1512 12.6ZM8.38 33.5V19.5H12.02V25.2H12.22L16.34 19.5H20.38L15.26 25.94L20.64 33.5H16.4L12.2 27.1H12.02V33.5H8.38ZM27.9119 33.8C24.1719 33.8 21.8519 31.64 21.8519 28.14V19.5H25.4919V28C25.4919 29.56 26.4319 30.54 27.9319 30.54C29.3919 30.54 30.3119 29.56 30.3119 28V19.5H33.9519V28.14C33.9519 31.8 31.4719 33.8 27.9119 33.8ZM36.505 33.5V19.5H40.125V30.38H45.305V33.5H36.505ZM47.2667 33.5V19.5H50.8867V33.5H47.2667Z" fill="white"/>
<g clip-path="url(#clip0_1136_240)">
<mask id="mask0_1136_240" style="mask-type:luminance" maskUnits="userSpaceOnUse" x="81" y="10" width="30" height="20">
<path d="M111 10.1818H81V29.8182H111V10.1818Z" fill="white"/>
</mask>
<g mask="url(#mask0_1136_240)">
<mask id="mask1_1136_240" style="mask-type:luminance" maskUnits="userSpaceOnUse" x="81" y="10" width="30" height="20">
<path d="M110.95 10.1818H81V29.8182H110.95V10.1818Z" fill="white"/>
</mask>
<g mask="url(#mask1_1136_240)">
<path d="M83.4047 12.3925C83.3239 11.9381 83.599 11.4961 84.0424 11.368L87.4327 10.3886C87.9254 10.2463 88.4374 10.5429 88.5592 11.0411L88.9317 12.5662L83.6163 13.5825L83.4047 12.3925Z" fill="#8298CD"/>
<path d="M108.295 12.3924C108.375 11.9381 108.1 11.4961 107.657 11.368L104.267 10.3886C103.774 10.2463 103.262 10.5429 103.14 11.0411L102.768 12.5662L108.083 13.5825L108.295 12.3924Z" fill="#8298CD"/>
<path d="M83.4047 12.3921C83.3239 11.9377 83.599 11.4957 84.0424 11.3677L87.4327 10.3882C87.9254 10.2459 88.4374 10.5425 88.5592 11.0407L88.9317 12.5658L83.6163 13.5821L83.4047 12.3921Z" fill="#8298CD"/>
<path d="M108.295 12.3921C108.375 11.9377 108.1 11.4957 107.657 11.3676L104.267 10.3882C103.774 10.2459 103.262 10.5425 103.14 11.0407L102.768 12.5658L108.083 13.5821L108.295 12.3921Z" fill="#8298CD"/>
<path fill-rule="evenodd" clip-rule="evenodd" d="M102.062 24.7618C100.81 24.1867 91.0894 24.1867 89.838 24.7618C88.3633 25.4382 87.2133 27.9456 85.8288 29.2715C84.4443 30.5974 81.9279 29.7225 81.3574 26.8521C80.5908 22.9894 80.9313 16.766 83.2064 13.1898C84.5593 11.0634 87.6688 10.9168 89.8155 11.0814C91.9621 11.2461 99.9376 11.2461 102.086 11.0814C104.235 10.9168 107.34 11.0634 108.695 13.1898C110.971 16.766 111.309 22.9894 110.542 26.8521C109.972 29.7293 107.46 30.5974 106.073 29.2715C104.686 27.9456 103.536 25.4405 102.062 24.7618Z" fill="#2E53AC"/>
<path fill-rule="evenodd" clip-rule="evenodd" d="M95.0967 20.9898C95.0967 20.9547 95.0881 20.92 95.0715 20.8875C95.0549 20.8551 95.0305 20.8256 94.9998 20.8008C94.9691 20.776 94.9326 20.7563 94.8924 20.7429C94.8523 20.7294 94.8093 20.7225 94.7658 20.7225H93.1726C93.0849 20.7225 93.0007 20.7507 92.9387 20.8008C92.8767 20.8509 92.8418 20.9189 92.8418 20.9898V21.1317C92.8418 21.2026 92.8767 21.2705 92.9387 21.3207C93.0007 21.3708 93.0849 21.3989 93.1726 21.3989H94.7614C94.8491 21.3989 94.9332 21.3708 94.9953 21.3207C95.0573 21.2705 95.0922 21.2026 95.0922 21.1317L95.0967 20.9898Z" fill="#8298CD"/>
<path fill-rule="evenodd" clip-rule="evenodd" d="M98.9287 20.9898C98.9287 20.9189 98.8938 20.8509 98.8316 20.8008C98.7695 20.7507 98.6851 20.7225 98.5972 20.7225H97.0053C96.9174 20.7225 96.8331 20.7507 96.7709 20.8008C96.7087 20.8509 96.6738 20.9189 96.6738 20.9898V21.1317C96.6738 21.2026 96.7087 21.2705 96.7709 21.3207C96.8331 21.3708 96.9174 21.3989 97.0053 21.3989H98.5972C98.6851 21.3989 98.7695 21.3708 98.8316 21.3207C98.8938 21.2705 98.9287 21.2026 98.9287 21.1317V20.9898Z" fill="#8298CD"/>
<path fill-rule="evenodd" clip-rule="evenodd" d="M104.794 14.4164C104.995 14.4164 105.191 14.476 105.358 14.5875C105.525 14.6989 105.655 14.8574 105.731 15.0428C105.808 15.2282 105.828 15.4323 105.789 15.6291C105.75 15.8259 105.653 16.0067 105.511 16.1487C105.37 16.2905 105.189 16.3872 104.992 16.4263C104.795 16.4655 104.591 16.4454 104.406 16.3686C104.22 16.2918 104.062 16.1617 103.95 15.9949C103.839 15.828 103.779 15.6318 103.779 15.4311C103.779 15.162 103.886 14.9039 104.077 14.7136C104.267 14.5233 104.525 14.4164 104.794 14.4164Z" fill="#8298CD"/>
<path fill-rule="evenodd" clip-rule="evenodd" d="M107.725 17.3476C107.725 17.5483 107.665 17.7444 107.554 17.9113C107.442 18.0782 107.284 18.2082 107.098 18.285C106.913 18.3618 106.709 18.382 106.512 18.3428C106.315 18.3036 106.134 18.207 105.993 18.0651C105.851 17.9232 105.754 17.7424 105.715 17.5456C105.676 17.3487 105.696 17.1447 105.773 16.9593C105.849 16.7739 105.979 16.6154 106.146 16.5039C106.313 16.3924 106.509 16.3329 106.71 16.3329C106.979 16.3329 107.237 16.4398 107.427 16.6301C107.618 16.8204 107.725 17.0785 107.725 17.3476Z" fill="#8298CD"/>
<path fill-rule="evenodd" clip-rule="evenodd" d="M104.794 18.2494C104.995 18.2494 105.191 18.3089 105.358 18.4204C105.525 18.5319 105.655 18.6903 105.731 18.8757C105.808 19.0612 105.828 19.2652 105.789 19.462C105.75 19.6588 105.653 19.8396 105.511 19.9815C105.37 20.1234 105.189 20.2201 104.992 20.2593C104.795 20.2984 104.591 20.2783 104.406 20.2015C104.22 20.1247 104.062 19.9947 103.95 19.8277C103.839 19.6609 103.779 19.4647 103.779 19.264C103.779 18.9949 103.886 18.7368 104.077 18.5465C104.267 18.3563 104.525 18.2494 104.794 18.2494Z" fill="#8298CD"/>
<path fill-rule="evenodd" clip-rule="evenodd" d="M103.893 17.3488C103.893 17.5494 103.833 17.7456 103.722 17.9125C103.61 18.0793 103.452 18.2094 103.266 18.2862C103.081 18.363 102.877 18.3831 102.68 18.3439C102.483 18.3048 102.302 18.2081 102.16 18.0663C102.019 17.9243 101.922 17.7436 101.883 17.5467C101.844 17.3499 101.864 17.1459 101.941 16.9605C102.017 16.7751 102.147 16.6165 102.314 16.5051C102.481 16.3936 102.677 16.3341 102.878 16.3341C103.147 16.3341 103.405 16.441 103.595 16.6313C103.786 16.8215 103.893 17.0796 103.893 17.3488Z" fill="#8298CD"/>
<path d="M86.2004 14.9625C86.1378 14.6809 86.3521 14.4137 86.6406 14.4137H87.7711C88.0596 14.4137 88.2739 14.6809 88.2113 14.9625L87.9608 16.09C87.9149 16.2963 87.7319 16.4431 87.5206 16.4431H86.8912C86.6798 16.4431 86.4967 16.2963 86.4509 16.09L86.2004 14.9625Z" fill="#8298CD"/>
<path d="M89.588 16.3402C89.8697 16.2776 90.1368 16.4919 90.1368 16.7804V17.9109C90.1368 18.1994 89.8697 18.4137 89.588 18.3511L88.4606 18.1006C88.2543 18.0547 88.1074 17.8717 88.1074 17.6604V17.031C88.1074 16.8196 88.2543 16.6366 88.4606 16.5907L89.588 16.3402Z" fill="#8298CD"/>
<path d="M86.2004 19.729C86.1378 20.0106 86.3521 20.2777 86.6406 20.2777H87.7711C88.0596 20.2777 88.2739 20.0106 88.2113 19.729L87.9608 18.6015C87.9149 18.3952 87.7319 18.2484 87.5206 18.2484H86.8912C86.6798 18.2484 86.4967 18.3952 86.4509 18.6015L86.2004 19.729Z" fill="#8298CD"/>
<path d="M84.8222 16.3402C84.5406 16.2776 84.2734 16.4919 84.2734 16.7804V17.9109C84.2734 18.1994 84.5406 18.4137 84.8222 18.3511L85.9497 18.1006C86.156 18.0547 86.3028 17.8717 86.3028 17.6604V17.031C86.3028 16.8196 86.156 16.6366 85.9497 16.5907L84.8222 16.3402Z" fill="#8298CD"/>
<path d="M83.4047 12.3921C83.3239 11.9377 83.599 11.4957 84.0424 11.3676L87.4327 10.3882C87.9254 10.2459 88.4374 10.5425 88.5592 11.0407L88.9317 12.5658L83.6163 13.5821L83.4047 12.3921Z" fill="#8298CD"/>
<path d="M108.295 12.3921C108.375 11.9377 108.1 11.4957 107.657 11.3676L104.267 10.3882C103.774 10.2459 103.262 10.5425 103.14 11.0407L102.768 12.5658L108.083 13.5821L108.295 12.3921Z" fill="#8298CD"/>
<path fill-rule="evenodd" clip-rule="evenodd" d="M102.062 24.7618C100.81 24.1867 91.0894 24.1867 89.838 24.7618C88.3633 25.4382 87.2133 27.9456 85.8288 29.2715C84.4443 30.5974 81.9279 29.7225 81.3574 26.8521C80.5908 22.9894 80.9313 16.766 83.2064 13.1898C84.5593 11.0634 87.6688 10.9168 89.8155 11.0814C91.9621 11.2461 99.9376 11.2461 102.086 11.0814C104.235 10.9168 107.34 11.0634 108.695 13.1898C110.971 16.766 111.309 22.9894 110.542 26.8521C109.972 29.7293 107.46 30.5974 106.073 29.2715C104.686 27.9456 103.536 25.4405 102.062 24.7618Z" fill="#2E53AC"/>
<path d="M93.8288 11.195C92.1052 11.1782 90.5942 11.1404 89.8271 11.0816C87.6805 10.917 84.5711 11.0636 83.2181 13.1899C80.943 16.7662 80.6025 22.9896 81.3691 26.8522C81.9396 29.7227 84.4561 30.5976 85.8406 29.2717C86.3913 28.7443 86.9049 28.0299 87.4166 27.3182C88.1913 26.2407 88.9616 25.1693 89.8497 24.7619C90.4225 24.4988 92.7689 24.3561 95.2657 24.3338C96.095 22.6915 96.5621 20.835 96.5621 18.8695C96.5621 15.9583 95.5373 13.2865 93.8288 11.195Z" fill="#4174D9"/>
<path fill-rule="evenodd" clip-rule="evenodd" d="M95.0967 20.9898C95.0967 20.9547 95.0881 20.92 95.0715 20.8875C95.0549 20.8551 95.0305 20.8256 94.9998 20.8008C94.9691 20.776 94.9326 20.7563 94.8924 20.7429C94.8523 20.7294 94.8093 20.7225 94.7658 20.7225H93.1726C93.0849 20.7225 93.0007 20.7507 92.9387 20.8008C92.8767 20.8509 92.8418 20.9189 92.8418 20.9898V21.1317C92.8418 21.2026 92.8767 21.2705 92.9387 21.3207C93.0007 21.3708 93.0849 21.3989 93.1726 21.3989H94.7614C94.8491 21.3989 94.9332 21.3708 94.9953 21.3207C95.0573 21.2705 95.0922 21.2026 95.0922 21.1317L95.0967 20.9898Z" fill="#ABBADE"/>
<path fill-rule="evenodd" clip-rule="evenodd" d="M98.9287 20.9902C98.9287 20.9193 98.8938 20.8513 98.8316 20.8012C98.7695 20.751 98.6851 20.7229 98.5972 20.7229H97.0053C96.9174 20.7229 96.8331 20.751 96.7709 20.8012C96.7087 20.8513 96.6738 20.9193 96.6738 20.9902V21.132C96.6738 21.2029 96.7087 21.2709 96.7709 21.321C96.8331 21.3712 96.9174 21.3994 97.0053 21.3994H98.5972C98.6851 21.3994 98.7695 21.3712 98.8316 21.321C98.8938 21.2709 98.9287 21.2029 98.9287 21.132V20.9902Z" fill="#8298CD"/>
<path fill-rule="evenodd" clip-rule="evenodd" d="M104.794 14.4164C104.995 14.4164 105.191 14.476 105.358 14.5875C105.525 14.6989 105.655 14.8574 105.731 15.0428C105.808 15.2282 105.828 15.4323 105.789 15.6291C105.75 15.8259 105.653 16.0067 105.511 16.1487C105.37 16.2905 105.189 16.3872 104.992 16.4263C104.795 16.4655 104.591 16.4454 104.406 16.3686C104.22 16.2918 104.062 16.1617 103.95 15.9949C103.839 15.828 103.779 15.6318 103.779 15.4311C103.779 15.162 103.886 14.9039 104.077 14.7136C104.267 14.5233 104.525 14.4164 104.794 14.4164Z" fill="#8298CD"/>
<path fill-rule="evenodd" clip-rule="evenodd" d="M107.725 17.3476C107.725 17.5483 107.665 17.7444 107.554 17.9113C107.442 18.0782 107.284 18.2082 107.098 18.285C106.913 18.3618 106.709 18.382 106.512 18.3428C106.315 18.3036 106.134 18.207 105.993 18.0651C105.851 17.9232 105.754 17.7424 105.715 17.5456C105.676 17.3487 105.696 17.1447 105.773 16.9593C105.849 16.7739 105.979 16.6154 106.146 16.5039C106.313 16.3924 106.509 16.3329 106.71 16.3329C106.979 16.3329 107.237 16.4398 107.427 16.6301C107.618 16.8204 107.725 17.0785 107.725 17.3476Z" fill="#8298CD"/>
<path fill-rule="evenodd" clip-rule="evenodd" d="M104.794 18.2494C104.995 18.2494 105.191 18.3089 105.358 18.4204C105.525 18.5319 105.655 18.6903 105.731 18.8758C105.808 19.0612 105.828 19.2652 105.789 19.462C105.75 19.6588 105.653 19.8396 105.511 19.9816C105.37 20.1234 105.189 20.2201 104.992 20.2593C104.795 20.2984 104.591 20.2783 104.406 20.2015C104.22 20.1247 104.062 19.9946 103.95 19.8278C103.839 19.6609 103.779 19.4647 103.779 19.2641C103.779 18.9949 103.886 18.7368 104.077 18.5465C104.267 18.3563 104.525 18.2494 104.794 18.2494Z" fill="#8298CD"/>
<path fill-rule="evenodd" clip-rule="evenodd" d="M103.893 17.3488C103.893 17.5494 103.833 17.7456 103.722 17.9125C103.61 18.0793 103.452 18.2094 103.266 18.2862C103.081 18.363 102.877 18.3831 102.68 18.3439C102.483 18.3048 102.302 18.2081 102.16 18.0663C102.019 17.9243 101.922 17.7436 101.883 17.5467C101.844 17.3499 101.864 17.1459 101.941 16.9605C102.017 16.7751 102.147 16.6165 102.314 16.5051C102.481 16.3936 102.677 16.3341 102.878 16.3341C103.147 16.3341 103.405 16.441 103.595 16.6313C103.786 16.8215 103.893 17.0796 103.893 17.3488Z" fill="#8298CD"/>
<path d="M86.2004 14.9625C86.1378 14.6809 86.3521 14.4137 86.6406 14.4137H87.7711C88.0596 14.4137 88.2739 14.6809 88.2113 14.9625L87.9608 16.09C87.9149 16.2963 87.7319 16.4431 87.5206 16.4431H86.8912C86.6798 16.4431 86.4967 16.2963 86.4509 16.09L86.2004 14.9625Z" fill="#ABBADE"/>
<path d="M89.588 16.3402C89.8697 16.2776 90.1368 16.4919 90.1368 16.7804V17.9109C90.1368 18.1994 89.8697 18.4137 89.588 18.3511L88.4606 18.1006C88.2543 18.0547 88.1074 17.8717 88.1074 17.6604V17.031C88.1074 16.8196 88.2543 16.6366 88.4606 16.5907L89.588 16.3402Z" fill="#ABBADE"/>
<path d="M86.2004 19.729C86.1378 20.0106 86.3521 20.2777 86.6406 20.2777H87.7711C88.0596 20.2777 88.2739 20.0106 88.2113 19.729L87.9608 18.6015C87.9149 18.3952 87.7319 18.2484 87.5206 18.2484H86.8912C86.6798 18.2484 86.4967 18.3952 86.4509 18.6015L86.2004 19.729Z" fill="#ABBADE"/>
<path d="M84.8222 16.3402C84.5406 16.2776 84.2734 16.4919 84.2734 16.7804V17.9109C84.2734 18.1994 84.5406 18.4137 84.8222 18.3511L85.9497 18.1006C86.156 18.0547 86.3028 17.8717 86.3028 17.6604V17.031C86.3028 16.8196 86.156 16.6366 85.9497 16.5907L84.8222 16.3402Z" fill="#ABBADE"/>
<path d="M96.1537 17.67L97.1677 14.9958H97.6356L98.6496 17.67H98.1816L97.9476 16.9903H96.8668L96.6217 17.67H96.1537ZM97.0005 16.6003H97.8028L97.4128 15.4972H97.3905L97.0005 16.6003ZM94.3932 17.0015L94.0812 16.6895L95.2066 15.564C95.0654 15.408 94.942 15.2465 94.8362 15.0793C94.7303 14.9122 94.6383 14.7358 94.5603 14.5501H95.0283C95.0951 14.6838 95.1667 14.8045 95.2429 14.9122C95.319 15.0199 95.4108 15.1332 95.5186 15.2521C95.682 15.0738 95.8175 14.8909 95.9252 14.7034C96.033 14.5158 96.124 14.3161 96.1982 14.1044H93.7246V13.6587H95.2846V13.213H95.7302V13.6587H97.2902V14.1044H96.6439C96.5659 14.3681 96.4601 14.6244 96.3264 14.8732C96.1927 15.1221 96.0274 15.3561 95.8306 15.5752L96.3654 16.1212L96.1982 16.578L95.5074 15.8872L94.3932 17.0015Z" fill="#ABBADE"/>
<path fill-rule="evenodd" clip-rule="evenodd" d="M95.6152 14.1044C95.5127 13.8613 95.4026 13.6221 95.2852 13.3874V13.213H95.7309V13.6587H97.2908V14.1044H96.6446C96.5666 14.3681 96.4607 14.6244 96.327 14.8732C96.2459 15.0242 96.1532 15.1697 96.0488 15.3097C95.9957 15.1328 95.9385 14.9576 95.8775 14.7843C95.8942 14.7574 95.9104 14.7305 95.9258 14.7034C96.0336 14.5158 96.1246 14.3161 96.1988 14.1044H95.6152ZM96.5087 17.67C96.4866 17.4326 96.4576 17.1973 96.422 16.9641L97.1683 14.9958H97.6363L98.6502 17.67H98.1822L97.9482 16.9903H96.8674L96.6223 17.67H96.5087ZM96.3012 16.2984C96.2789 16.1927 96.2552 16.0874 96.2302 15.9826L96.366 16.1212L96.3012 16.2984ZM97.8034 16.6003H97.0012L97.3911 15.4972H97.4134L97.8034 16.6003Z" fill="#8298CD"/>
</g>
</g>
</g>
<defs>
<radialGradient id="paint0_radial_1136_240" cx="0" cy="0" r="1" gradientUnits="userSpaceOnUse" gradientTransform="translate(96 20) rotate(-180) scale(58 66.2487)">
<stop stop-color="#16264E"/>
<stop offset="1" stop-color="#18181B"/>
</radialGradient>
<clipPath id="clip0_1136_240">
<rect width="30" height="19.6364" fill="white" transform="translate(81 10.1818)"/>
</clipPath>
</defs>
</svg>
