<svg width="121" height="40" viewBox="0 0 121 40" fill="none" xmlns="http://www.w3.org/2000/svg">
<rect x="0.5" y="0.5" width="120" height="39" rx="3.5" fill="url(#paint0_radial_1136_240)"/>
<rect x="0.5" y="0.5" width="120" height="39" rx="3.5" stroke="#373737"/>
<path d="M7.84 13.5V6.5H13.36V13.5H12.05V7.66H9.15V13.5H7.84ZM17.327 13.59C15.747 13.59 14.647 12.53 14.647 11V10.86C14.647 9.33 15.777 8.21 17.307 8.21H17.367C18.807 8.21 19.847 9.21 19.847 10.61V11.28H15.877V11.29C15.967 12.04 16.567 12.55 17.407 12.55H17.457C18.097 12.55 18.677 12.26 18.977 11.88L19.667 12.63C19.177 13.22 18.277 13.59 17.417 13.59H17.327ZM15.907 10.45H18.667C18.607 9.71 18.077 9.18 17.317 9.18H17.307C16.587 9.18 16.047 9.68 15.907 10.45ZM21.0505 15.5V8.3H22.0305C22.1005 8.47 22.1605 8.77 22.1905 9C22.6305 8.5 23.2705 8.21 24.0205 8.21H24.0705C25.5205 8.21 26.5705 9.29 26.5705 10.83V10.97C26.5705 12.51 25.5205 13.59 24.0705 13.59H24.0205C23.3305 13.59 22.7205 13.34 22.2905 12.9V15.5H21.0505ZM23.7505 12.6H23.8205C24.6805 12.6 25.2805 11.94 25.2805 10.95V10.85C25.2805 9.86 24.6905 9.2 23.8205 9.2H23.7505C22.8905 9.2 22.2905 9.86 22.2905 10.85V10.95C22.2905 11.94 22.8905 12.6 23.7505 12.6ZM30.1395 13.59C28.5595 13.59 27.4595 12.53 27.4595 11V10.86C27.4595 9.33 28.5895 8.21 30.1195 8.21H30.1795C31.6195 8.21 32.6595 9.21 32.6595 10.61V11.28H28.6895V11.29C28.7795 12.04 29.3795 12.55 30.2195 12.55H30.2695C30.9095 12.55 31.4895 12.26 31.7895 11.88L32.4795 12.63C31.9895 13.22 31.0895 13.59 30.2295 13.59H30.1395ZM28.7195 10.45H31.4795C31.4195 9.71 30.8895 9.18 30.1295 9.18H30.1195C29.3995 9.18 28.8595 9.68 28.7195 10.45ZM33.873 13.5V8.3H35.113V10.49H35.193L37.293 8.3H38.693L36.293 10.71L38.753 13.5H37.263L35.193 11.04H35.113V13.5H33.873ZM39.5464 13.59C39.3164 13.59 39.1364 13.56 38.9564 13.49V12.49C39.0764 12.55 39.2264 12.57 39.3264 12.57C39.8564 12.57 39.9464 12.17 39.9664 10.65L39.9864 8.3H43.9564V13.5H42.7164V9.3H41.1364L41.1164 10.62C41.0864 12.97 40.6164 13.59 39.5464 13.59ZM46.8953 13.6C45.8153 13.6 45.0753 12.97 45.0753 12.05V11.98C45.0753 10.87 46.1253 10.29 48.2153 10.29H48.6353V10.06C48.6353 9.56 48.2453 9.22 47.5553 9.22H47.5253C46.9853 9.22 46.3553 9.42 45.8353 9.75L45.3253 8.85C45.9653 8.45 46.7653 8.19 47.5953 8.19H47.6553C48.9753 8.19 49.8053 8.91 49.8053 10.08V12.43C49.8053 12.79 49.8853 13.16 49.9853 13.5H48.8053C48.7453 13.34 48.6953 13.11 48.6653 12.88C48.2253 13.32 47.6053 13.6 46.8953 13.6ZM47.1453 12.6C47.7253 12.6 48.2753 12.35 48.6353 11.96V11.09H48.2853C46.9153 11.09 46.2753 11.37 46.2753 11.92V11.96C46.2753 12.33 46.6253 12.6 47.1453 12.6ZM50.6847 14.78V12.52H51.1647C51.5247 12.12 51.6747 10.77 51.6747 8.3H55.7747V12.52H56.5047V14.78H55.3247V13.5H51.8647V14.78H50.6847ZM52.3747 12.52H54.5447V9.27H52.8347C52.8047 11.13 52.6347 12.2 52.3747 12.52ZM60.1133 13.5V8.3H61.3533V10.28H63.7133V8.3H64.9533V13.5H63.7133V11.28H61.3533V13.5H60.1133ZM67.9012 13.6C66.8212 13.6 66.0812 12.97 66.0812 12.05V11.98C66.0812 10.87 67.1312 10.29 69.2212 10.29H69.6412V10.06C69.6412 9.56 69.2512 9.22 68.5612 9.22H68.5312C67.9912 9.22 67.3612 9.42 66.8412 9.75L66.3312 8.85C66.9712 8.45 67.7712 8.19 68.6012 8.19H68.6612C69.9812 8.19 70.8112 8.91 70.8112 10.08V12.43C70.8112 12.79 70.8912 13.16 70.9912 13.5H69.8112C69.7512 13.34 69.7012 13.11 69.6712 12.88C69.2312 13.32 68.6112 13.6 67.9012 13.6ZM68.1512 12.6C68.7312 12.6 69.2812 12.35 69.6412 11.96V11.09H69.2912C67.9212 11.09 67.2812 11.37 67.2812 11.92V11.96C67.2812 12.33 67.6312 12.6 68.1512 12.6ZM8.38 33.5V19.5H12.02V25.2H12.22L16.34 19.5H20.38L15.26 25.94L20.64 33.5H16.4L12.2 27.1H12.02V33.5H8.38ZM27.9119 33.8C24.1719 33.8 21.8519 31.64 21.8519 28.14V19.5H25.4919V28C25.4919 29.56 26.4319 30.54 27.9319 30.54C29.3919 30.54 30.3119 29.56 30.3119 28V19.5H33.9519V28.14C33.9519 31.8 31.4719 33.8 27.9119 33.8ZM36.505 33.5V19.5H40.125V30.38H45.305V33.5H36.505ZM47.2667 33.5V19.5H50.8867V33.5H47.2667Z" fill="white"/>
<g clip-path="url(#clip0_1136_240)">
<mask id="mask0_1136_240" style="mask-type:luminance" maskUnits="userSpaceOnUse" x="84" y="10" width="30" height="20">
<path d="M114 10.1818H84V29.8182H114V10.1818Z" fill="white"/>
</mask>
<g mask="url(#mask0_1136_240)">
<mask id="mask1_1136_240" style="mask-type:luminance" maskUnits="userSpaceOnUse" x="84" y="10" width="30" height="20">
<path d="M113.95 10.1818H84V29.8182H113.95V10.1818Z" fill="white"/>
</mask>
<g mask="url(#mask1_1136_240)">
<path d="M86.4047 12.3925C86.3239 11.9381 86.599 11.4961 87.0424 11.368L90.4327 10.3886C90.9254 10.2463 91.4374 10.5429 91.5592 11.0411L91.9317 12.5662L86.6163 13.5825L86.4047 12.3925Z" fill="#8298CD"/>
<path d="M111.295 12.3924C111.375 11.9381 111.1 11.4961 110.657 11.368L107.267 10.3886C106.774 10.2463 106.262 10.5429 106.14 11.0411L105.768 12.5662L111.083 13.5825L111.295 12.3924Z" fill="#8298CD"/>
<path d="M86.4047 12.3921C86.3239 11.9377 86.599 11.4957 87.0424 11.3677L90.4327 10.3882C90.9254 10.2459 91.4374 10.5425 91.5592 11.0407L91.9317 12.5658L86.6163 13.5821L86.4047 12.3921Z" fill="#8298CD"/>
<path d="M111.295 12.3921C111.375 11.9377 111.1 11.4957 110.657 11.3676L107.267 10.3882C106.774 10.2459 106.262 10.5425 106.14 11.0407L105.768 12.5658L111.083 13.5821L111.295 12.3921Z" fill="#8298CD"/>
<path fill-rule="evenodd" clip-rule="evenodd" d="M105.062 24.7618C103.81 24.1867 94.0894 24.1867 92.838 24.7618C91.3633 25.4382 90.2133 27.9456 88.8288 29.2715C87.4443 30.5974 84.9279 29.7225 84.3574 26.8521C83.5908 22.9894 83.9313 16.766 86.2064 13.1898C87.5593 11.0634 90.6688 10.9168 92.8155 11.0814C94.9621 11.2461 102.938 11.2461 105.086 11.0814C107.235 10.9168 110.34 11.0634 111.695 13.1898C113.971 16.766 114.309 22.9894 113.542 26.8521C112.972 29.7293 110.46 30.5974 109.073 29.2715C107.686 27.9456 106.536 25.4405 105.062 24.7618Z" fill="#2E53AC"/>
<path fill-rule="evenodd" clip-rule="evenodd" d="M98.0967 20.9898C98.0967 20.9547 98.0881 20.92 98.0715 20.8875C98.0549 20.8551 98.0305 20.8256 97.9998 20.8008C97.9691 20.776 97.9326 20.7563 97.8924 20.7429C97.8523 20.7294 97.8093 20.7225 97.7658 20.7225H96.1726C96.0849 20.7225 96.0007 20.7507 95.9387 20.8008C95.8767 20.8509 95.8418 20.9189 95.8418 20.9898V21.1317C95.8418 21.2026 95.8767 21.2705 95.9387 21.3207C96.0007 21.3708 96.0849 21.3989 96.1726 21.3989H97.7614C97.8491 21.3989 97.9332 21.3708 97.9953 21.3207C98.0573 21.2705 98.0922 21.2026 98.0922 21.1317L98.0967 20.9898Z" fill="#8298CD"/>
<path fill-rule="evenodd" clip-rule="evenodd" d="M101.929 20.9898C101.929 20.9189 101.894 20.8509 101.832 20.8008C101.769 20.7507 101.685 20.7225 101.597 20.7225H100.005C99.9174 20.7225 99.8331 20.7507 99.7709 20.8008C99.7087 20.8509 99.6738 20.9189 99.6738 20.9898V21.1317C99.6738 21.2026 99.7087 21.2705 99.7709 21.3207C99.8331 21.3708 99.9174 21.3989 100.005 21.3989H101.597C101.685 21.3989 101.769 21.3708 101.832 21.3207C101.894 21.2705 101.929 21.2026 101.929 21.1317V20.9898Z" fill="#8298CD"/>
<path fill-rule="evenodd" clip-rule="evenodd" d="M107.794 14.4164C107.995 14.4164 108.191 14.476 108.358 14.5875C108.525 14.6989 108.655 14.8574 108.731 15.0428C108.808 15.2282 108.828 15.4323 108.789 15.6291C108.75 15.8259 108.653 16.0067 108.511 16.1487C108.37 16.2905 108.189 16.3872 107.992 16.4263C107.795 16.4655 107.591 16.4454 107.406 16.3686C107.22 16.2918 107.062 16.1617 106.95 15.9949C106.839 15.828 106.779 15.6318 106.779 15.4311C106.779 15.162 106.886 14.9039 107.077 14.7136C107.267 14.5233 107.525 14.4164 107.794 14.4164Z" fill="#8298CD"/>
<path fill-rule="evenodd" clip-rule="evenodd" d="M110.725 17.3476C110.725 17.5483 110.665 17.7444 110.554 17.9113C110.442 18.0782 110.284 18.2082 110.098 18.285C109.913 18.3618 109.709 18.382 109.512 18.3428C109.315 18.3036 109.134 18.207 108.993 18.0651C108.851 17.9232 108.754 17.7424 108.715 17.5456C108.676 17.3487 108.696 17.1447 108.773 16.9593C108.849 16.7739 108.979 16.6154 109.146 16.5039C109.313 16.3924 109.509 16.3329 109.71 16.3329C109.979 16.3329 110.237 16.4398 110.427 16.6301C110.618 16.8204 110.725 17.0785 110.725 17.3476Z" fill="#8298CD"/>
<path fill-rule="evenodd" clip-rule="evenodd" d="M107.794 18.2494C107.995 18.2494 108.191 18.3089 108.358 18.4204C108.525 18.5319 108.655 18.6903 108.731 18.8757C108.808 19.0612 108.828 19.2652 108.789 19.462C108.75 19.6588 108.653 19.8396 108.511 19.9815C108.37 20.1234 108.189 20.2201 107.992 20.2593C107.795 20.2984 107.591 20.2783 107.406 20.2015C107.22 20.1247 107.062 19.9947 106.95 19.8277C106.839 19.6609 106.779 19.4647 106.779 19.264C106.779 18.9949 106.886 18.7368 107.077 18.5465C107.267 18.3563 107.525 18.2494 107.794 18.2494Z" fill="#8298CD"/>
<path fill-rule="evenodd" clip-rule="evenodd" d="M106.893 17.3488C106.893 17.5494 106.833 17.7456 106.722 17.9125C106.61 18.0793 106.452 18.2094 106.266 18.2862C106.081 18.363 105.877 18.3831 105.68 18.3439C105.483 18.3048 105.302 18.2081 105.16 18.0663C105.019 17.9243 104.922 17.7436 104.883 17.5467C104.844 17.3499 104.864 17.1459 104.941 16.9605C105.017 16.7751 105.147 16.6165 105.314 16.5051C105.481 16.3936 105.677 16.3341 105.878 16.3341C106.147 16.3341 106.405 16.441 106.595 16.6313C106.786 16.8215 106.893 17.0796 106.893 17.3488Z" fill="#8298CD"/>
<path d="M89.2004 14.9625C89.1378 14.6809 89.3521 14.4137 89.6406 14.4137H90.7711C91.0596 14.4137 91.2739 14.6809 91.2113 14.9625L90.9608 16.09C90.9149 16.2963 90.7319 16.4431 90.5206 16.4431H89.8912C89.6798 16.4431 89.4967 16.2963 89.4509 16.09L89.2004 14.9625Z" fill="#8298CD"/>
<path d="M92.588 16.3402C92.8697 16.2776 93.1368 16.4919 93.1368 16.7804V17.9109C93.1368 18.1994 92.8697 18.4137 92.588 18.3511L91.4606 18.1006C91.2543 18.0547 91.1074 17.8717 91.1074 17.6604V17.031C91.1074 16.8196 91.2543 16.6366 91.4606 16.5907L92.588 16.3402Z" fill="#8298CD"/>
<path d="M89.2004 19.729C89.1378 20.0106 89.3521 20.2777 89.6406 20.2777H90.7711C91.0596 20.2777 91.2739 20.0106 91.2113 19.729L90.9608 18.6015C90.9149 18.3952 90.7319 18.2484 90.5206 18.2484H89.8912C89.6798 18.2484 89.4967 18.3952 89.4509 18.6015L89.2004 19.729Z" fill="#8298CD"/>
<path d="M87.8222 16.3402C87.5406 16.2776 87.2734 16.4919 87.2734 16.7804V17.9109C87.2734 18.1994 87.5406 18.4137 87.8222 18.3511L88.9497 18.1006C89.156 18.0547 89.3028 17.8717 89.3028 17.6604V17.031C89.3028 16.8196 89.156 16.6366 88.9497 16.5907L87.8222 16.3402Z" fill="#8298CD"/>
<path d="M86.4047 12.3921C86.3239 11.9377 86.599 11.4957 87.0424 11.3676L90.4327 10.3882C90.9254 10.2459 91.4374 10.5425 91.5592 11.0407L91.9317 12.5658L86.6163 13.5821L86.4047 12.3921Z" fill="#8298CD"/>
<path d="M111.295 12.3921C111.375 11.9377 111.1 11.4957 110.657 11.3676L107.267 10.3882C106.774 10.2459 106.262 10.5425 106.14 11.0407L105.768 12.5658L111.083 13.5821L111.295 12.3921Z" fill="#8298CD"/>
<path fill-rule="evenodd" clip-rule="evenodd" d="M105.062 24.7618C103.81 24.1867 94.0894 24.1867 92.838 24.7618C91.3633 25.4382 90.2133 27.9456 88.8288 29.2715C87.4443 30.5974 84.9279 29.7225 84.3574 26.8521C83.5908 22.9894 83.9313 16.766 86.2064 13.1898C87.5593 11.0634 90.6688 10.9168 92.8155 11.0814C94.9621 11.2461 102.938 11.2461 105.086 11.0814C107.235 10.9168 110.34 11.0634 111.695 13.1898C113.971 16.766 114.309 22.9894 113.542 26.8521C112.972 29.7293 110.46 30.5974 109.073 29.2715C107.686 27.9456 106.536 25.4405 105.062 24.7618Z" fill="#2E53AC"/>
<path d="M96.8288 11.195C95.1052 11.1782 93.5942 11.1404 92.8271 11.0816C90.6805 10.917 87.5711 11.0636 86.2181 13.1899C83.943 16.7662 83.6025 22.9896 84.3691 26.8522C84.9396 29.7227 87.4561 30.5976 88.8406 29.2717C89.3913 28.7443 89.9049 28.0299 90.4166 27.3182C91.1913 26.2407 91.9616 25.1693 92.8497 24.7619C93.4225 24.4988 95.7689 24.3561 98.2657 24.3338C99.095 22.6915 99.5621 20.835 99.5621 18.8695C99.5621 15.9583 98.5373 13.2865 96.8288 11.195Z" fill="#4174D9"/>
<path fill-rule="evenodd" clip-rule="evenodd" d="M98.0967 20.9898C98.0967 20.9547 98.0881 20.92 98.0715 20.8875C98.0549 20.8551 98.0305 20.8256 97.9998 20.8008C97.9691 20.776 97.9326 20.7563 97.8924 20.7429C97.8523 20.7294 97.8093 20.7225 97.7658 20.7225H96.1726C96.0849 20.7225 96.0007 20.7507 95.9387 20.8008C95.8767 20.8509 95.8418 20.9189 95.8418 20.9898V21.1317C95.8418 21.2026 95.8767 21.2705 95.9387 21.3207C96.0007 21.3708 96.0849 21.3989 96.1726 21.3989H97.7614C97.8491 21.3989 97.9332 21.3708 97.9953 21.3207C98.0573 21.2705 98.0922 21.2026 98.0922 21.1317L98.0967 20.9898Z" fill="#ABBADE"/>
<path fill-rule="evenodd" clip-rule="evenodd" d="M101.929 20.9902C101.929 20.9193 101.894 20.8513 101.832 20.8012C101.769 20.751 101.685 20.7229 101.597 20.7229H100.005C99.9174 20.7229 99.8331 20.751 99.7709 20.8012C99.7087 20.8513 99.6738 20.9193 99.6738 20.9902V21.132C99.6738 21.2029 99.7087 21.2709 99.7709 21.321C99.8331 21.3712 99.9174 21.3994 100.005 21.3994H101.597C101.685 21.3994 101.769 21.3712 101.832 21.321C101.894 21.2709 101.929 21.2029 101.929 21.132V20.9902Z" fill="#8298CD"/>
<path fill-rule="evenodd" clip-rule="evenodd" d="M107.794 14.4164C107.995 14.4164 108.191 14.476 108.358 14.5875C108.525 14.6989 108.655 14.8574 108.731 15.0428C108.808 15.2282 108.828 15.4323 108.789 15.6291C108.75 15.8259 108.653 16.0067 108.511 16.1487C108.37 16.2905 108.189 16.3872 107.992 16.4263C107.795 16.4655 107.591 16.4454 107.406 16.3686C107.22 16.2918 107.062 16.1617 106.95 15.9949C106.839 15.828 106.779 15.6318 106.779 15.4311C106.779 15.162 106.886 14.9039 107.077 14.7136C107.267 14.5233 107.525 14.4164 107.794 14.4164Z" fill="#8298CD"/>
<path fill-rule="evenodd" clip-rule="evenodd" d="M110.725 17.3476C110.725 17.5483 110.665 17.7444 110.554 17.9113C110.442 18.0782 110.284 18.2082 110.098 18.285C109.913 18.3618 109.709 18.382 109.512 18.3428C109.315 18.3036 109.134 18.207 108.993 18.0651C108.851 17.9232 108.754 17.7424 108.715 17.5456C108.676 17.3487 108.696 17.1447 108.773 16.9593C108.849 16.7739 108.979 16.6154 109.146 16.5039C109.313 16.3924 109.509 16.3329 109.71 16.3329C109.979 16.3329 110.237 16.4398 110.427 16.6301C110.618 16.8204 110.725 17.0785 110.725 17.3476Z" fill="#8298CD"/>
<path fill-rule="evenodd" clip-rule="evenodd" d="M107.794 18.2494C107.995 18.2494 108.191 18.3089 108.358 18.4204C108.525 18.5319 108.655 18.6903 108.731 18.8758C108.808 19.0612 108.828 19.2652 108.789 19.462C108.75 19.6588 108.653 19.8396 108.511 19.9816C108.37 20.1234 108.189 20.2201 107.992 20.2593C107.795 20.2984 107.591 20.2783 107.406 20.2015C107.22 20.1247 107.062 19.9946 106.95 19.8278C106.839 19.6609 106.779 19.4647 106.779 19.2641C106.779 18.9949 106.886 18.7368 107.077 18.5465C107.267 18.3563 107.525 18.2494 107.794 18.2494Z" fill="#8298CD"/>
<path fill-rule="evenodd" clip-rule="evenodd" d="M106.893 17.3488C106.893 17.5494 106.833 17.7456 106.722 17.9125C106.61 18.0793 106.452 18.2094 106.266 18.2862C106.081 18.363 105.877 18.3831 105.68 18.3439C105.483 18.3048 105.302 18.2081 105.16 18.0663C105.019 17.9243 104.922 17.7436 104.883 17.5467C104.844 17.3499 104.864 17.1459 104.941 16.9605C105.017 16.7751 105.147 16.6165 105.314 16.5051C105.481 16.3936 105.677 16.3341 105.878 16.3341C106.147 16.3341 106.405 16.441 106.595 16.6313C106.786 16.8215 106.893 17.0796 106.893 17.3488Z" fill="#8298CD"/>
<path d="M89.2004 14.9625C89.1378 14.6809 89.3521 14.4137 89.6406 14.4137H90.7711C91.0596 14.4137 91.2739 14.6809 91.2113 14.9625L90.9608 16.09C90.9149 16.2963 90.7319 16.4431 90.5206 16.4431H89.8912C89.6798 16.4431 89.4967 16.2963 89.4509 16.09L89.2004 14.9625Z" fill="#ABBADE"/>
<path d="M92.588 16.3402C92.8697 16.2776 93.1368 16.4919 93.1368 16.7804V17.9109C93.1368 18.1994 92.8697 18.4137 92.588 18.3511L91.4606 18.1006C91.2543 18.0547 91.1074 17.8717 91.1074 17.6604V17.031C91.1074 16.8196 91.2543 16.6366 91.4606 16.5907L92.588 16.3402Z" fill="#ABBADE"/>
<path d="M89.2004 19.729C89.1378 20.0106 89.3521 20.2777 89.6406 20.2777H90.7711C91.0596 20.2777 91.2739 20.0106 91.2113 19.729L90.9608 18.6015C90.9149 18.3952 90.7319 18.2484 90.5206 18.2484H89.8912C89.6798 18.2484 89.4967 18.3952 89.4509 18.6015L89.2004 19.729Z" fill="#ABBADE"/>
<path d="M87.8222 16.3402C87.5406 16.2776 87.2734 16.4919 87.2734 16.7804V17.9109C87.2734 18.1994 87.5406 18.4137 87.8222 18.3511L88.9497 18.1006C89.156 18.0547 89.3028 17.8717 89.3028 17.6604V17.031C89.3028 16.8196 89.156 16.6366 88.9497 16.5907L87.8222 16.3402Z" fill="#ABBADE"/>
<path d="M99.1537 17.67L100.168 14.9958H100.636L101.65 17.67H101.182L100.948 16.9903H99.8668L99.6217 17.67H99.1537ZM100 16.6003H100.803L100.413 15.4972H100.39L100 16.6003ZM97.3932 17.0015L97.0812 16.6895L98.2066 15.564C98.0654 15.408 97.942 15.2465 97.8362 15.0793C97.7303 14.9122 97.6383 14.7358 97.5603 14.5501H98.0283C98.0951 14.6838 98.1667 14.8045 98.2429 14.9122C98.319 15.0199 98.4108 15.1332 98.5186 15.2521C98.682 15.0738 98.8175 14.8909 98.9252 14.7034C99.033 14.5158 99.124 14.3161 99.1982 14.1044H96.7246V13.6587H98.2846V13.213H98.7302V13.6587H100.29V14.1044H99.6439C99.5659 14.3681 99.4601 14.6244 99.3264 14.8732C99.1927 15.1221 99.0274 15.3561 98.8306 15.5752L99.3654 16.1212L99.1982 16.578L98.5074 15.8872L97.3932 17.0015Z" fill="#ABBADE"/>
<path fill-rule="evenodd" clip-rule="evenodd" d="M98.6152 14.1044C98.5127 13.8613 98.4026 13.6221 98.2852 13.3874V13.213H98.7309V13.6587H100.291V14.1044H99.6446C99.5666 14.3681 99.4607 14.6244 99.327 14.8732C99.2459 15.0242 99.1532 15.1697 99.0488 15.3097C98.9957 15.1328 98.9385 14.9576 98.8775 14.7843C98.8942 14.7574 98.9104 14.7305 98.9258 14.7034C99.0336 14.5158 99.1246 14.3161 99.1988 14.1044H98.6152ZM99.5087 17.67C99.4866 17.4326 99.4576 17.1973 99.422 16.9641L100.168 14.9958H100.636L101.65 17.67H101.182L100.948 16.9903H99.8674L99.6223 17.67H99.5087ZM99.3012 16.2984C99.2789 16.1927 99.2552 16.0874 99.2302 15.9826L99.366 16.1212L99.3012 16.2984ZM100.803 16.6003H100.001L100.391 15.4972H100.413L100.803 16.6003Z" fill="#8298CD"/>
</g>
</g>
</g>
<defs>
<radialGradient id="paint0_radial_1136_240" cx="0" cy="0" r="1" gradientUnits="userSpaceOnUse" gradientTransform="translate(102 20) rotate(-180) scale(64 73.102)">
<stop stop-color="#16264E"/>
<stop offset="1" stop-color="#18181B"/>
</radialGradient>
<clipPath id="clip0_1136_240">
<rect width="30" height="19.6364" fill="white" transform="translate(84 10.1818)"/>
</clipPath>
</defs>
</svg>
