<svg width="121" height="40" viewBox="0 0 121 40" fill="none" xmlns="http://www.w3.org/2000/svg">
<rect x="0.5" y="0.5" width="120" height="39" rx="3.5" fill="url(#paint0_radial_1237_255)"/>
<rect x="0.5" y="0.5" width="120" height="39" rx="3.5" stroke="#373737"/>
<path d="M7.17 16.35V13.88H7.72C8.16 13.33 8.34 11.64 8.34 8.73V8H13.1V13.88H13.92V16.35H12.67V15H8.42V16.35H7.17ZM11.81 13.88V9.11H9.6V9.22C9.58 11.53 9.37 13.04 8.97 13.88H11.81ZM17.231 15.09C15.631 15.09 14.481 14 14.481 12.47V12.33C14.481 10.8 15.631 9.71 17.231 9.71H17.311C18.911 9.71 20.061 10.8 20.061 12.33V12.47C20.061 14 18.911 15.09 17.311 15.09H17.231ZM17.241 14.11H17.301C18.151 14.11 18.771 13.42 18.771 12.45V12.35C18.771 11.38 18.161 10.69 17.301 10.69H17.241C16.391 10.69 15.781 11.38 15.781 12.35V12.45C15.781 13.42 16.391 14.11 17.241 14.11ZM23.5959 15.08C22.0259 15.08 20.9459 14 20.9459 12.47V12.31C20.9459 10.8 22.0659 9.72 23.5759 9.72H23.6359C24.6459 9.72 25.4159 10.18 25.8759 10.91L24.9559 11.52C24.6759 10.99 24.2459 10.71 23.6559 10.71H23.6259C22.7659 10.71 22.2359 11.32 22.2359 12.35V12.45C22.2359 13.44 22.8259 14.07 23.6759 14.07H23.7259C24.3259 14.07 24.7459 13.75 25.0159 13.26L25.9159 13.93C25.4359 14.64 24.6759 15.08 23.6659 15.08H23.5959ZM27.9102 15V10.82H26.3402V9.8H30.7202V10.82H29.1502V15H27.9102ZM32.4467 17.01C32.1667 17.01 31.7767 16.97 31.4867 16.82V15.76C31.7267 15.88 31.9567 15.96 32.2067 15.96C32.6267 15.96 32.9667 15.69 33.2267 15.23L30.9767 9.8H32.2967L33.8267 13.79H33.8967L35.1667 9.8H36.4267L34.5167 15.29C34.2267 16.13 33.7067 17.01 32.4467 17.01ZM37.2129 15V9.8H42.0429V15H40.8029V10.8H38.4529V15H37.2129ZM43.541 15V9.8H44.781V11.78H47.141V9.8H48.381V15H47.141V12.78H44.781V15H43.541ZM52.2489 15.09C50.6689 15.09 49.5689 14.03 49.5689 12.5V12.36C49.5689 10.83 50.6989 9.71 52.2289 9.71H52.2889C53.7289 9.71 54.7689 10.71 54.7689 12.11V12.78H50.7989V12.79C50.8889 13.54 51.4889 14.05 52.3289 14.05H52.3789C53.0189 14.05 53.5989 13.76 53.8989 13.38L54.5889 14.13C54.0989 14.72 53.1989 15.09 52.3389 15.09H52.2489ZM50.8289 11.95H53.5889C53.5289 11.21 52.9989 10.68 52.2389 10.68H52.2289C51.5089 10.68 50.9689 11.18 50.8289 11.95ZM58.6387 15V9.8H59.8787V11.78H62.2387V9.8H63.4787V15H62.2387V12.78H59.8787V15H58.6387ZM66.4266 15.1C65.3466 15.1 64.6066 14.47 64.6066 13.55V13.48C64.6066 12.37 65.6566 11.79 67.7466 11.79H68.1666V11.56C68.1666 11.06 67.7766 10.72 67.0866 10.72H67.0566C66.5166 10.72 65.8866 10.92 65.3666 11.25L64.8566 10.35C65.4966 9.95 66.2966 9.69 67.1266 9.69H67.1866C68.5066 9.69 69.3366 10.41 69.3366 11.58V13.93C69.3366 14.29 69.4166 14.66 69.5166 15H68.3366C68.2766 14.84 68.2266 14.61 68.1966 14.38C67.7566 14.82 67.1366 15.1 66.4266 15.1ZM66.6766 14.1C67.2566 14.1 67.8066 13.85 68.1666 13.46V12.59H67.8166C66.4466 12.59 65.8066 12.87 65.8066 13.42V13.46C65.8066 13.83 66.1566 14.1 66.6766 14.1ZM8.104 32V20.8H12.152L14.152 26.832H14.328L16.328 20.8H20.376V32H17.56V24.272H17.4L15.256 30.56H13.208L11.064 24.272H10.92V32H8.104ZM24.0704 22.768C23.1424 22.768 22.5184 22.224 22.5184 21.424C22.5184 20.608 23.1424 20.048 24.0704 20.048C25.0304 20.048 25.6864 20.608 25.6864 21.424C25.6864 22.224 25.0464 22.768 24.0704 22.768ZM22.6944 32V23.68H25.4784V32H22.6944ZM27.7256 32V20.48H30.5096V27.04H30.7016L33.4216 23.68H36.3976L33.0056 27.488L36.3656 32H33.2136L30.6856 28.24H30.5096V32H27.7256ZM39.6565 32.192C37.9605 32.192 36.7605 31.2 36.7605 29.728V29.552C36.7605 27.776 38.4085 26.848 41.7045 26.848H42.2805V26.704C42.2805 26.064 41.8485 25.584 40.9045 25.584H40.8245C40.0245 25.584 39.0965 25.872 38.1845 26.368L37.1445 24.48C38.1365 23.872 39.5765 23.488 40.9685 23.488H41.1445C43.4325 23.488 44.8565 24.72 44.8565 26.848V29.92C44.8565 30.656 44.9845 31.28 45.1445 32H42.5845C42.4885 31.728 42.4085 31.424 42.3605 31.056C41.8165 31.68 40.8885 32.192 39.6565 32.192ZM40.4565 30.176C41.0965 30.176 41.8165 29.92 42.2965 29.424V28.32H41.6885C40.1685 28.32 39.3845 28.704 39.3845 29.36V29.424C39.3845 29.856 39.8165 30.176 40.4565 30.176ZM48.1641 22.768C47.2361 22.768 46.6121 22.224 46.6121 21.424C46.6121 20.608 47.2361 20.048 48.1641 20.048C49.1241 20.048 49.7801 20.608 49.7801 21.424C49.7801 22.224 49.1401 22.768 48.1641 22.768ZM46.7881 32V23.68H49.5721V32H46.7881Z" fill="white"/>
<path d="M87.1114 17.6383C86.1958 17.6383 85.4419 18.3781 85.5786 19.2758C85.7114 20.1508 85.952 21.0094 86.295 21.8305C86.8512 23.1615 87.665 24.3696 88.6895 25.3851C89.7171 26.4038 90.9346 27.2107 92.2731 27.7601C94.9811 28.8724 98.0183 28.8724 100.726 27.7601C102.065 27.2107 103.282 26.4037 104.31 25.3851C105.334 24.3696 106.148 23.1615 106.704 21.8305C107.048 21.0094 107.288 20.1508 107.421 19.2758C107.557 18.3781 106.804 17.6383 105.888 17.6383C104.974 17.6383 104.249 18.3828 104.054 19.2695C103.739 20.7083 103.014 22.0251 101.967 23.0609C101.248 23.7739 100.396 24.3388 99.4591 24.7234C97.5633 25.5023 95.4369 25.5023 93.5411 24.7234C92.6041 24.3388 91.7518 23.774 91.0325 23.0609C89.9868 22.0239 89.2621 20.7076 88.945 19.2695C88.7497 18.3828 88.0262 17.6383 87.1114 17.6383Z" fill="#B0A3FA"/>
<path d="M96.0912 23.1164C96.2287 23.4641 96.8865 23.4641 97.024 23.1164C97.5341 21.8328 98.3035 20.6682 99.2841 19.6955C100.265 18.7228 101.436 17.9629 102.723 17.4633C103.074 17.3273 103.074 16.6742 102.723 16.5383C101.436 16.0388 100.265 15.279 99.2842 14.3064C98.3036 13.3338 97.5342 12.1694 97.024 10.8859C96.8865 10.5383 96.2287 10.5383 96.0912 10.8859C95.5811 12.1694 94.8116 13.3338 93.831 14.3064C92.8504 15.279 91.6796 16.0388 90.392 16.5383C90.0412 16.675 90.0412 17.3273 90.392 17.4633C91.6797 17.9629 92.8505 18.7228 93.8311 19.6955C94.8118 20.6682 95.5812 21.8328 96.0912 23.1164Z" fill="#B0A3FA"/>
<defs>
<radialGradient id="paint0_radial_1237_255" cx="0" cy="0" r="1" gradientUnits="userSpaceOnUse" gradientTransform="translate(96.5 20) rotate(-180) scale(58.5 66.8198)">
<stop stop-color="#4C476B"/>
<stop offset="1" stop-color="#18181B"/>
</radialGradient>
</defs>
</svg>
