<svg width="129" height="48" viewBox="0 0 129 48" fill="none" xmlns="http://www.w3.org/2000/svg">
<g filter="url(#filter0_d_1013_41)">
<rect x="4" width="121" height="40" rx="4" fill="#D9D9D9"/>
<rect x="4.5" y="0.5" width="120" height="39" rx="3.5" stroke="#373737"/>
<mask id="mask0_1013_41" style="mask-type:luminance" maskUnits="userSpaceOnUse" x="86" y="10" width="28" height="20">
<path d="M113.125 10.625H86.875V29.375H113.125V10.625Z" fill="white"/>
</mask>
<g mask="url(#mask0_1013_41)">
<path d="M90.3994 20.5943C89.656 21.316 89.1397 22.3611 88.9745 22.7934L88.1692 22.9061C86.8681 18.1131 86.8682 16.3088 87.116 14.0532C87.3638 11.7977 88.4789 10.7263 89.0365 10.7263C89.5941 10.7263 90.2755 11.7977 90.957 13.2074C91.5022 14.3352 92.5884 17.1734 93.0633 18.4515L92.4438 18.8463C92.4438 18.6395 92.4314 18.1921 92.3819 18.0568C92.3199 17.8876 92.0721 17.7749 92.0102 17.8313C91.9482 17.8876 92.0721 18.1131 92.196 18.2824C92.2951 18.4176 92.2373 18.6395 92.196 18.7334L91.4526 18.2824L91.3287 18.5643L92.196 19.0154C91.9069 19.2409 91.1428 19.8725 90.3994 20.5943Z" fill="url(#paint0_linear_1013_41)"/>
<path fill-rule="evenodd" clip-rule="evenodd" d="M88.4647 10.8498C88.6607 10.7074 88.8592 10.625 89.0347 10.625C89.2133 10.625 89.386 10.7102 89.5477 10.8397C89.711 10.9704 89.876 11.1565 90.0412 11.3821C90.3719 11.8336 90.7157 12.4603 91.0572 13.1667C91.6047 14.2994 92.6926 17.1423 93.1671 18.4191L93.1938 18.4911L92.3414 19.0343L92.2667 19.0925C91.9802 19.3161 91.2191 19.9451 90.4789 20.6637C89.7504 21.3711 89.2406 22.4014 89.078 22.8269L89.0559 22.8845L88.0836 23.0206L88.0591 22.9306C86.7557 18.129 86.7539 16.3127 87.0032 14.0433C87.1286 12.9025 87.4738 12.0552 87.8639 11.4901C88.0587 11.2078 88.266 10.9941 88.4647 10.8498ZM92.3305 18.9696V18.8464C92.3305 18.8021 92.3299 18.7465 92.3285 18.6854C92.3188 18.7186 92.3079 18.748 92.2977 18.7712L92.2466 18.8874L91.5032 18.4362L91.4664 18.5201L92.3305 18.9696ZM92.3036 18.2511C92.3024 18.2405 92.3012 18.23 92.2999 18.2199C92.2918 18.1564 92.2827 18.112 92.2743 18.089C92.2542 18.0342 92.1993 17.9806 92.1368 17.9465C92.1304 17.9431 92.1243 17.94 92.1183 17.9371C92.1227 17.9488 92.128 17.9615 92.1344 17.9756C92.1695 18.0521 92.2274 18.1449 92.2869 18.2261C92.2929 18.2344 92.2985 18.2427 92.3036 18.2511ZM88.0526 11.5981C87.6838 12.1325 87.3476 12.9487 87.2251 14.0635C86.9804 16.2909 86.9769 18.075 88.2512 22.7919L88.8901 22.7024C89.079 22.2336 89.5894 21.2306 90.3163 20.525C90.9769 19.8836 91.6536 19.3133 92.0027 19.0328L91.1873 18.6088L91.3983 18.1286L92.128 18.5715C92.1314 18.5534 92.1341 18.5346 92.1357 18.5156C92.1421 18.4409 92.1308 18.3787 92.1014 18.3387C92.0371 18.2509 91.971 18.1462 91.9287 18.0536C91.9077 18.0079 91.8901 17.96 91.8834 17.9157C91.8777 17.8782 91.8745 17.8097 91.9295 17.7596C91.9848 17.7092 92.06 17.7121 92.1032 17.7191C92.153 17.7271 92.2046 17.7469 92.2515 17.7725C92.3439 17.823 92.4439 17.9105 92.4858 18.0249C92.5021 18.0694 92.5131 18.1319 92.5214 18.1966C92.5298 18.2636 92.5362 18.3409 92.5409 18.4193C92.5456 18.498 92.5488 18.5789 92.5507 18.6532L92.9291 18.4121C92.4408 17.1013 91.3859 14.3506 90.8531 13.2484C90.5131 12.545 90.1755 11.9312 89.8557 11.4946C89.6957 11.2762 89.5431 11.1063 89.4005 10.9921C89.2564 10.8766 89.1347 10.8279 89.0347 10.8279C88.9313 10.8279 88.7813 10.8794 88.6037 11.0084C88.4287 11.1355 88.2372 11.3306 88.0526 11.5981Z" fill="#282A3A"/>
<path d="M109.601 20.651C110.345 21.3728 110.861 22.4179 111.026 22.8501L111.832 22.9629C113.133 18.1699 113.133 16.3655 112.885 14.11C112.637 11.8545 111.522 10.7831 110.964 10.7831C110.407 10.7831 109.725 11.8545 109.044 13.2642C108.499 14.3919 107.412 17.2301 106.938 18.5083L107.557 18.903C107.557 18.6963 107.569 18.2489 107.619 18.1135C107.681 17.9444 107.929 17.8316 107.991 17.888C108.053 17.9444 107.929 18.1699 107.805 18.3391C107.706 18.4744 107.763 18.6963 107.805 18.7903L108.548 18.3391L108.672 18.621L107.805 19.0721C108.094 19.2976 108.858 19.9293 109.601 20.651Z" fill="url(#paint1_linear_1013_41)"/>
<path fill-rule="evenodd" clip-rule="evenodd" d="M111.536 10.906C111.34 10.7636 111.141 10.6812 110.966 10.6812C110.787 10.6812 110.615 10.7664 110.453 10.8959C110.29 11.0266 110.125 11.2127 109.959 11.4382C109.629 11.8898 109.285 12.5165 108.943 13.2228C108.396 14.3556 107.308 17.1985 106.833 18.4753L106.807 18.5473L107.659 19.0905L107.734 19.1488C108.02 19.3723 108.781 20.0013 109.522 20.7199C110.25 21.4273 110.76 22.4576 110.923 22.883L110.945 22.9406L111.917 23.0769L111.941 22.9868C113.245 18.1851 113.247 16.3689 112.997 14.0994C112.872 12.9587 112.527 12.1114 112.137 11.5463C111.942 11.2639 111.735 11.0502 111.536 10.906ZM107.67 19.0258V18.9025C107.67 18.8583 107.671 18.8026 107.672 18.7415C107.682 18.7749 107.693 18.8041 107.703 18.8274L107.754 18.9435L108.497 18.4924L108.534 18.5763L107.67 19.0258ZM107.697 18.3074C107.698 18.2966 107.699 18.2861 107.701 18.276C107.709 18.2125 107.718 18.1683 107.726 18.1451C107.746 18.0904 107.801 18.0369 107.864 18.0028C107.87 17.9993 107.876 17.9961 107.882 17.9933C107.878 18.0049 107.873 18.0178 107.866 18.0318C107.831 18.1084 107.773 18.201 107.714 18.2824C107.708 18.2905 107.702 18.2989 107.697 18.3074ZM111.948 11.6542C112.317 12.1887 112.653 13.0048 112.775 14.1196C113.02 16.3471 113.024 18.1313 111.749 22.848L111.11 22.7586C110.922 22.2899 110.411 21.2869 109.684 20.5811C109.024 19.9398 108.347 19.3694 107.998 19.0889L108.813 18.6649L108.602 18.1849L107.873 18.6276C107.869 18.6096 107.866 18.5908 107.865 18.5718C107.858 18.497 107.87 18.435 107.899 18.3949C107.964 18.307 108.03 18.2024 108.072 18.1098C108.093 18.0641 108.11 18.0161 108.117 17.972C108.123 17.9344 108.126 17.8659 108.071 17.8158C108.016 17.7655 107.941 17.7684 107.897 17.7753C107.848 17.7833 107.796 17.8031 107.749 17.8288C107.657 17.8791 107.557 17.9666 107.515 18.081C107.498 18.1256 107.487 18.188 107.479 18.2528C107.471 18.3198 107.464 18.3971 107.46 18.4755C107.455 18.5541 107.452 18.6351 107.45 18.7094L107.071 18.4683C107.56 17.1574 108.615 14.4067 109.147 13.3046C109.487 12.6012 109.825 11.9874 110.145 11.5508C110.305 11.3323 110.457 11.1624 110.6 11.0482C110.744 10.9328 110.866 10.8841 110.966 10.8841C111.069 10.8841 111.219 10.9356 111.397 11.0646C111.572 11.1917 111.763 11.3868 111.948 11.6542Z" fill="#282A3A"/>
<path d="M108.359 23.4309C111.055 23.4155 111.863 25.7126 111.929 26.8631V27.1795C111.705 27.857 110.661 29.2063 108.285 29.1833C105.314 29.1545 104.609 27.4384 104.535 27.3425C104.461 27.2466 104.23 27.3041 104.219 27.0741C104.211 26.89 104.384 26.8568 104.472 26.8631L104.535 26.1058C104.686 25.2205 105.662 23.4463 108.359 23.4309Z" fill="#F8F9FF"/>
<path fill-rule="evenodd" clip-rule="evenodd" d="M111.818 26.866V27.1644C111.596 27.8091 110.59 29.1043 108.286 29.082C106.827 29.0679 105.934 28.6401 105.397 28.2119C105.128 27.9971 104.947 27.7804 104.828 27.612C104.769 27.5277 104.726 27.4555 104.694 27.4012C104.682 27.3802 104.672 27.3623 104.664 27.3466C104.661 27.3419 104.659 27.3373 104.656 27.3329L104.655 27.3314C104.647 27.3168 104.636 27.2974 104.626 27.2845C104.589 27.2358 104.536 27.2122 104.497 27.1984C104.48 27.192 104.462 27.1865 104.447 27.1817L104.441 27.1801C104.424 27.1748 104.41 27.1702 104.397 27.1654C104.371 27.1555 104.358 27.1466 104.351 27.1374C104.343 27.1291 104.332 27.1112 104.33 27.07C104.329 27.0389 104.335 27.0202 104.342 27.0094C104.348 26.9985 104.357 26.99 104.369 26.9831C104.396 26.9676 104.435 26.9624 104.463 26.9644L104.575 26.9725L104.646 26.1176C104.793 25.2649 105.737 23.5474 108.359 23.5325C109.666 23.525 110.509 24.0752 111.039 24.7679C111.571 25.464 111.785 26.3049 111.818 26.866ZM111.222 24.652C110.656 23.9122 109.748 23.3216 108.358 23.3295C105.591 23.3452 104.582 25.1711 104.425 26.0904L104.424 26.0943L104.368 26.769C104.329 26.7764 104.288 26.7896 104.25 26.8115C104.162 26.8619 104.102 26.951 104.108 27.0784C104.111 27.1523 104.133 27.2135 104.175 27.2621C104.215 27.3097 104.267 27.3356 104.31 27.3522C104.331 27.3604 104.352 27.367 104.37 27.3724L104.375 27.3739C104.391 27.3789 104.403 27.3826 104.415 27.3869C104.436 27.3946 104.444 27.4006 104.444 27.4006L104.445 27.4025C104.446 27.4053 104.45 27.4119 104.457 27.4248C104.46 27.4286 104.462 27.4329 104.464 27.4375C104.473 27.4531 104.484 27.4728 104.497 27.495C104.53 27.553 104.577 27.6307 104.641 27.7214C104.768 27.9026 104.962 28.1348 105.25 28.3645C105.828 28.8255 106.773 29.2703 108.284 29.2849C110.716 29.3084 111.799 27.9244 112.036 27.209L112.041 27.1946V26.8579C112.007 26.2686 111.784 25.3872 111.222 24.652Z" fill="#282A3A"/>
<path d="M91.647 23.4309C88.9504 23.4155 88.1429 25.7126 88.0762 26.8631V27.1795C88.3009 27.857 89.3444 29.2063 91.7207 29.1833C94.6911 29.1545 95.3968 27.4384 95.4705 27.3425C95.5443 27.2466 95.776 27.3041 95.7865 27.0741C95.795 26.89 95.6215 26.8568 95.5337 26.8631L95.4705 26.1058C95.3196 25.2205 94.3435 23.4463 91.647 23.4309Z" fill="#F8F9FF"/>
<path fill-rule="evenodd" clip-rule="evenodd" d="M88.1858 26.866V27.1644C88.4079 27.8091 89.4138 29.1043 91.7177 29.082C93.177 29.0679 94.0702 28.6401 94.6066 28.2119C94.8757 27.9971 95.0571 27.7804 95.1755 27.612C95.2348 27.5277 95.2783 27.4555 95.3094 27.4012C95.3214 27.3802 95.3314 27.3623 95.34 27.3466C95.3427 27.3419 95.3453 27.3373 95.3477 27.3329L95.3485 27.3314C95.3567 27.3168 95.3675 27.2974 95.3774 27.2845C95.4149 27.2358 95.4683 27.2122 95.5065 27.1984C95.5239 27.192 95.5421 27.1865 95.5573 27.1817L95.5626 27.1801C95.5799 27.1748 95.594 27.1702 95.607 27.1654C95.6325 27.1555 95.6454 27.1466 95.6533 27.1374C95.6604 27.1291 95.6715 27.1112 95.6734 27.07C95.6748 27.0389 95.6684 27.0202 95.6621 27.0094C95.6559 26.9985 95.647 26.99 95.635 26.9831C95.6079 26.9676 95.5686 26.9624 95.5408 26.9644L95.4293 26.9725L95.3579 26.1176C95.2105 25.2649 94.2669 23.5474 91.6445 23.5325C90.3378 23.525 89.4944 24.0752 88.9651 24.7679C88.4332 25.464 88.2189 26.3049 88.1858 26.866ZM88.7821 24.652C89.3474 23.9122 90.256 23.3216 91.6459 23.3295C94.4125 23.3452 95.4221 25.1711 95.5789 26.0904L95.5795 26.0943L95.6358 26.769C95.6747 26.7764 95.7156 26.7896 95.7538 26.8115C95.8417 26.8619 95.9019 26.951 95.8961 27.0784C95.8927 27.1523 95.8708 27.2135 95.8292 27.2621C95.7884 27.3097 95.7368 27.3356 95.6939 27.3522C95.6726 27.3604 95.6515 27.367 95.6341 27.3724L95.6291 27.3739C95.613 27.3789 95.6005 27.3826 95.5889 27.3869C95.5675 27.3946 95.5602 27.4006 95.5602 27.4006L95.5592 27.4025C95.5575 27.4053 95.5536 27.4119 95.5465 27.4248C95.5443 27.4286 95.542 27.4329 95.5394 27.4375C95.5307 27.4531 95.5198 27.4728 95.5071 27.495C95.4739 27.553 95.427 27.6307 95.3633 27.7214C95.2359 27.9026 95.0414 28.1348 94.7536 28.3645C94.176 28.8255 93.2311 29.2703 91.7201 29.2849C89.2883 29.3084 88.2049 27.9244 87.9677 27.209L87.9629 27.1946V26.8579C87.9971 26.2686 88.2203 25.3872 88.7821 24.652Z" fill="#282A3A"/>
<path fill-rule="evenodd" clip-rule="evenodd" d="M92.5625 27.699C93.1218 27.699 93.3262 27.0426 93.3262 26.2329C93.3262 26.2068 93.326 26.1808 93.3257 26.155C93.259 26.2033 93.1686 26.2329 93.0691 26.2329C92.8638 26.2329 92.6974 26.1066 92.6974 25.951C92.6974 25.7952 92.8638 25.669 93.0691 25.669C93.156 25.669 93.2359 25.6916 93.2992 25.7295C93.232 25.1765 93.0281 24.7904 92.5625 24.7669C92.0032 24.7669 91.7988 25.4233 91.7988 26.2329C91.7988 27.0426 92.0032 27.699 92.5625 27.699Z" fill="#282A3A"/>
<path fill-rule="evenodd" clip-rule="evenodd" d="M107.426 27.699C107.974 27.699 108.174 27.0426 108.174 26.233C108.174 26.2329 108.174 26.2331 108.174 26.233C108.168 26.2333 108.162 26.233 108.157 26.233C107.964 26.233 107.808 26.1068 107.808 25.951C107.808 25.8 107.955 25.6766 108.14 25.6694C108.067 25.1488 107.865 24.7895 107.426 24.7669C106.878 24.7669 106.678 25.4233 106.678 26.233C106.678 27.0426 106.878 27.699 107.426 27.699Z" fill="#282A3A"/>
<path d="M99.976 28.1458C98.8401 28.1458 98.8175 28.4103 98.8405 28.5843C98.9666 28.8105 99.2365 29.2734 100.068 29.2734C100.747 29.2734 101.115 28.8175 101.215 28.5843C101.215 28.3963 101.215 28.1458 99.976 28.1458Z" fill="#F79FBB"/>
<path fill-rule="evenodd" clip-rule="evenodd" d="M98.9472 28.555C99.0092 28.6652 99.0991 28.8127 99.2599 28.9364C99.426 29.0641 99.6755 29.1721 100.066 29.1721C100.667 29.1721 101.002 28.7787 101.101 28.5647C101.101 28.5259 101.099 28.4971 101.089 28.4704C101.078 28.4441 101.057 28.4131 101 28.3812C100.874 28.3112 100.593 28.2474 99.9742 28.2474C99.4084 28.2474 99.1486 28.3145 99.0336 28.3842C98.981 28.4162 98.9617 28.4471 98.9531 28.4722C98.945 28.4965 98.9441 28.5231 98.9472 28.555ZM98.91 28.2155C99.0846 28.1095 99.4041 28.0444 99.9742 28.0444C100.594 28.0445 100.932 28.1057 101.116 28.2081C101.214 28.2624 101.27 28.3292 101.299 28.4029C101.325 28.4694 101.325 28.5352 101.324 28.5799V28.5844V28.6034L101.317 28.6211C101.207 28.8782 100.807 29.375 100.066 29.375C99.6251 29.375 99.3241 29.2515 99.1159 29.0912C98.9104 28.9332 98.8031 28.7449 98.7392 28.6304L98.7302 28.6144L98.728 28.5965C98.7217 28.5492 98.7164 28.4827 98.7401 28.4126C98.7649 28.3394 98.8179 28.2714 98.91 28.2155Z" fill="#282A3A"/>
</g>
<path d="M11.17 14.35V11.88H11.72C12.16 11.33 12.34 9.64 12.34 6.73V6H17.1V11.88H17.92V14.35H16.67V13H12.42V14.35H11.17ZM15.81 11.88V7.11H13.6V7.22C13.58 9.53 13.37 11.04 12.97 11.88H15.81ZM21.231 13.09C19.631 13.09 18.481 12 18.481 10.47V10.33C18.481 8.8 19.631 7.71 21.231 7.71H21.311C22.911 7.71 24.061 8.8 24.061 10.33V10.47C24.061 12 22.911 13.09 21.311 13.09H21.231ZM21.241 12.11H21.301C22.151 12.11 22.771 11.42 22.771 10.45V10.35C22.771 9.38 22.161 8.69 21.301 8.69H21.241C20.391 8.69 19.781 9.38 19.781 10.35V10.45C19.781 11.42 20.391 12.11 21.241 12.11ZM27.5959 13.08C26.0259 13.08 24.9459 12 24.9459 10.47V10.31C24.9459 8.8 26.0659 7.72 27.5759 7.72H27.6359C28.6459 7.72 29.4159 8.18 29.8759 8.91L28.9559 9.52C28.6759 8.99 28.2459 8.71 27.6559 8.71H27.6259C26.7659 8.71 26.2359 9.32 26.2359 10.35V10.45C26.2359 11.44 26.8259 12.07 27.6759 12.07H27.7259C28.3259 12.07 28.7459 11.75 29.0159 11.26L29.9159 11.93C29.4359 12.64 28.6759 13.08 27.6659 13.08H27.5959ZM31.9102 13V8.82H30.3402V7.8H34.7202V8.82H33.1502V13H31.9102ZM36.4467 15.01C36.1667 15.01 35.7767 14.97 35.4867 14.82V13.76C35.7267 13.88 35.9567 13.96 36.2067 13.96C36.6267 13.96 36.9667 13.69 37.2267 13.23L34.9767 7.8H36.2967L37.8267 11.79H37.8967L39.1667 7.8H40.4267L38.5167 13.29C38.2267 14.13 37.7067 15.01 36.4467 15.01ZM41.2129 13V7.8H46.0429V13H44.8029V8.8H42.4529V13H41.2129ZM47.541 13V7.8H48.781V9.78H51.141V7.8H52.381V13H51.141V10.78H48.781V13H47.541ZM56.2489 13.09C54.6689 13.09 53.5689 12.03 53.5689 10.5V10.36C53.5689 8.83 54.6989 7.71 56.2289 7.71H56.2889C57.7289 7.71 58.7689 8.71 58.7689 10.11V10.78H54.7989V10.79C54.8889 11.54 55.4889 12.05 56.3289 12.05H56.3789C57.0189 12.05 57.5989 11.76 57.8989 11.38L58.5889 12.13C58.0989 12.72 57.1989 13.09 56.3389 13.09H56.2489ZM54.8289 9.95H57.5889C57.5289 9.21 56.9989 8.68 56.2389 8.68H56.2289C55.5089 8.68 54.9689 9.18 54.8289 9.95ZM62.6387 13V7.8H63.8787V9.78H66.2387V7.8H67.4787V13H66.2387V10.78H63.8787V13H62.6387ZM70.4266 13.1C69.3466 13.1 68.6066 12.47 68.6066 11.55V11.48C68.6066 10.37 69.6566 9.79 71.7466 9.79H72.1666V9.56C72.1666 9.06 71.7766 8.72 71.0866 8.72H71.0566C70.5166 8.72 69.8866 8.92 69.3666 9.25L68.8566 8.35C69.4966 7.95 70.2966 7.69 71.1266 7.69H71.1866C72.5066 7.69 73.3366 8.41 73.3366 9.58V11.93C73.3366 12.29 73.4166 12.66 73.5166 13H72.3366C72.2766 12.84 72.2266 12.61 72.1966 12.38C71.7566 12.82 71.1366 13.1 70.4266 13.1ZM70.6766 12.1C71.2566 12.1 71.8066 11.85 72.1666 11.46V10.59H71.8166C70.4466 10.59 69.8066 10.87 69.8066 11.42V11.46C69.8066 11.83 70.1566 12.1 70.6766 12.1ZM11.966 30V20.2H14.78L18.168 26.206H18.252V20.2H20.702V30H18.21L14.486 23.364H14.402V30H11.966ZM26.0601 30.168C23.7361 30.168 22.1261 28.712 22.1261 26.486V26.234C22.1261 24.12 23.7781 22.552 25.9761 22.552H26.1441C28.2161 22.552 29.7561 23.98 29.7561 25.856V26.962H24.4641V26.976C24.5761 27.802 25.2481 28.292 26.2001 28.292H26.3261C27.1381 28.292 27.8941 27.942 28.3421 27.508L29.4341 29.062C28.7341 29.678 27.4181 30.168 26.3121 30.168H26.0601ZM24.5201 25.604H27.4601C27.4041 24.82 26.8721 24.246 26.0741 24.246H26.0321C25.3041 24.246 24.7161 24.75 24.5201 25.604ZM31.09 30V19.92H33.526V25.66H33.694L36.074 22.72H38.678L35.71 26.052L38.65 30H35.892L33.68 26.71H33.526V30H31.09ZM42.633 30.168C40.309 30.168 38.587 28.614 38.587 26.528V26.192C38.587 24.106 40.309 22.552 42.633 22.552H42.787C45.125 22.552 46.847 24.106 46.847 26.192V26.528C46.847 28.614 45.125 30.168 42.787 30.168H42.633ZM42.647 28.446H42.787C43.641 28.446 44.313 27.606 44.313 26.444V26.276C44.313 25.114 43.655 24.274 42.787 24.274H42.647C41.779 24.274 41.107 25.114 41.107 26.276V26.444C41.107 27.606 41.779 28.446 42.647 28.446ZM50.8841 30.112C49.3161 30.112 48.3781 29.216 48.3781 27.578V24.54H47.4261V22.944C47.6641 22.874 48.0421 22.79 48.3781 22.748V21.04L50.7861 20.76V22.72H52.8861V24.54H50.7581V27.13C50.7581 27.844 51.0801 28.11 51.6681 28.11C52.0321 28.11 52.6201 28.012 52.9001 27.956V29.762C52.3401 30 51.4721 30.112 50.8841 30.112ZM57.5601 30.168C55.2361 30.168 53.6261 28.712 53.6261 26.486V26.234C53.6261 24.12 55.2781 22.552 57.4761 22.552H57.6441C59.7161 22.552 61.2561 23.98 61.2561 25.856V26.962H55.9641V26.976C56.0761 27.802 56.7481 28.292 57.7001 28.292H57.8261C58.6381 28.292 59.3941 27.942 59.8421 27.508L60.9341 29.062C60.2341 29.678 58.9181 30.168 57.8121 30.168H57.5601ZM56.0201 25.604H58.9601C58.9041 24.82 58.3721 24.246 57.5741 24.246H57.5321C56.8041 24.246 56.2161 24.75 56.0201 25.604ZM62.59 30V19.92H65.026V25.66H65.194L67.574 22.72H70.178L67.21 26.052L70.15 30H67.392L65.18 26.71H65.026V30H62.59ZM73.0295 30.168C71.5455 30.168 70.4955 29.3 70.4955 28.012V27.858C70.4955 26.304 71.9375 25.492 74.8215 25.492H75.3255V25.366C75.3255 24.806 74.9475 24.386 74.1215 24.386H74.0515C73.3515 24.386 72.5395 24.638 71.7415 25.072L70.8315 23.42C71.6995 22.888 72.9595 22.552 74.1775 22.552H74.3315C76.3335 22.552 77.5795 23.63 77.5795 25.492V28.18C77.5795 28.824 77.6915 29.37 77.8315 30H75.5915C75.5075 29.762 75.4375 29.496 75.3955 29.174C74.9195 29.72 74.1075 30.168 73.0295 30.168ZM73.7295 28.404C74.2895 28.404 74.9195 28.18 75.3395 27.746V26.78H74.8075C73.4775 26.78 72.7915 27.116 72.7915 27.69V27.746C72.7915 28.124 73.1695 28.404 73.7295 28.404Z" fill="black"/>
</g>
<defs>
<filter id="filter0_d_1013_41" x="0" y="0" width="129" height="48" filterUnits="userSpaceOnUse" color-interpolation-filters="sRGB">
<feFlood flood-opacity="0" result="BackgroundImageFix"/>
<feColorMatrix in="SourceAlpha" type="matrix" values="0 0 0 0 0 0 0 0 0 0 0 0 0 0 0 0 0 0 127 0" result="hardAlpha"/>
<feOffset dy="4"/>
<feGaussianBlur stdDeviation="2"/>
<feComposite in2="hardAlpha" operator="out"/>
<feColorMatrix type="matrix" values="0 0 0 0 0 0 0 0 0 0 0 0 0 0 0 0 0 0 0.25 0"/>
<feBlend mode="normal" in2="BackgroundImageFix" result="effect1_dropShadow_1013_41"/>
<feBlend mode="normal" in="SourceGraphic" in2="effect1_dropShadow_1013_41" result="shape"/>
</filter>
<linearGradient id="paint0_linear_1013_41" x1="90.0258" y1="10.7263" x2="90.0258" y2="22.9061" gradientUnits="userSpaceOnUse">
<stop stop-color="#DBE0EF"/>
<stop offset="1" stop-color="#F79FBB"/>
</linearGradient>
<linearGradient id="paint1_linear_1013_41" x1="109.975" y1="10.7831" x2="109.975" y2="22.9629" gradientUnits="userSpaceOnUse">
<stop stop-color="#DBE0EF"/>
<stop offset="1" stop-color="#F79FBB"/>
</linearGradient>
</defs>
</svg>
