<svg width="121" height="40" viewBox="0 0 121 40" fill="none" xmlns="http://www.w3.org/2000/svg">
<rect x="0.5" y="0.5" width="120" height="39" rx="3.5" fill="#F2F2F2"/>
<rect x="0.5" y="0.5" width="120" height="39" rx="3.5" stroke="#373737"/>
<path d="M7.17 16.35V13.88H7.72C8.16 13.33 8.34 11.64 8.34 8.73V8H13.1V13.88H13.92V16.35H12.67V15H8.42V16.35H7.17ZM11.81 13.88V9.11H9.6V9.22C9.58 11.53 9.37 13.04 8.97 13.88H11.81ZM17.231 15.09C15.631 15.09 14.481 14 14.481 12.47V12.33C14.481 10.8 15.631 9.71 17.231 9.71H17.311C18.911 9.71 20.061 10.8 20.061 12.33V12.47C20.061 14 18.911 15.09 17.311 15.09H17.231ZM17.241 14.11H17.301C18.151 14.11 18.771 13.42 18.771 12.45V12.35C18.771 11.38 18.161 10.69 17.301 10.69H17.241C16.391 10.69 15.781 11.38 15.781 12.35V12.45C15.781 13.42 16.391 14.11 17.241 14.11ZM23.5959 15.08C22.0259 15.08 20.9459 14 20.9459 12.47V12.31C20.9459 10.8 22.0659 9.72 23.5759 9.72H23.6359C24.6459 9.72 25.4159 10.18 25.8759 10.91L24.9559 11.52C24.6759 10.99 24.2459 10.71 23.6559 10.71H23.6259C22.7659 10.71 22.2359 11.32 22.2359 12.35V12.45C22.2359 13.44 22.8259 14.07 23.6759 14.07H23.7259C24.3259 14.07 24.7459 13.75 25.0159 13.26L25.9159 13.93C25.4359 14.64 24.6759 15.08 23.6659 15.08H23.5959ZM27.9102 15V10.82H26.3402V9.8H30.7202V10.82H29.1502V15H27.9102ZM32.4467 17.01C32.1667 17.01 31.7767 16.97 31.4867 16.82V15.76C31.7267 15.88 31.9567 15.96 32.2067 15.96C32.6267 15.96 32.9667 15.69 33.2267 15.23L30.9767 9.8H32.2967L33.8267 13.79H33.8967L35.1667 9.8H36.4267L34.5167 15.29C34.2267 16.13 33.7067 17.01 32.4467 17.01ZM37.2129 15V9.8H42.0429V15H40.8029V10.8H38.4529V15H37.2129ZM43.541 15V9.8H44.781V11.78H47.141V9.8H48.381V15H47.141V12.78H44.781V15H43.541ZM52.2489 15.09C50.6689 15.09 49.5689 14.03 49.5689 12.5V12.36C49.5689 10.83 50.6989 9.71 52.2289 9.71H52.2889C53.7289 9.71 54.7689 10.71 54.7689 12.11V12.78H50.7989V12.79C50.8889 13.54 51.4889 14.05 52.3289 14.05H52.3789C53.0189 14.05 53.5989 13.76 53.8989 13.38L54.5889 14.13C54.0989 14.72 53.1989 15.09 52.3389 15.09H52.2489ZM50.8289 11.95H53.5889C53.5289 11.21 52.9989 10.68 52.2389 10.68H52.2289C51.5089 10.68 50.9689 11.18 50.8289 11.95ZM58.6387 15V9.8H59.8787V11.78H62.2387V9.8H63.4787V15H62.2387V12.78H59.8787V15H58.6387ZM66.4266 15.1C65.3466 15.1 64.6066 14.47 64.6066 13.55V13.48C64.6066 12.37 65.6566 11.79 67.7466 11.79H68.1666V11.56C68.1666 11.06 67.7766 10.72 67.0866 10.72H67.0566C66.5166 10.72 65.8866 10.92 65.3666 11.25L64.8566 10.35C65.4966 9.95 66.2966 9.69 67.1266 9.69H67.1866C68.5066 9.69 69.3366 10.41 69.3366 11.58V13.93C69.3366 14.29 69.4166 14.66 69.5166 15H68.3366C68.2766 14.84 68.2266 14.61 68.1966 14.38C67.7566 14.82 67.1366 15.1 66.4266 15.1ZM66.6766 14.1C67.2566 14.1 67.8066 13.85 68.1666 13.46V12.59H67.8166C66.4466 12.59 65.8066 12.87 65.8066 13.42V13.46C65.8066 13.83 66.1566 14.1 66.6766 14.1ZM7.966 32V22.2H10.78L14.168 28.206H14.252V22.2H16.702V32H14.21L10.486 25.364H10.402V32H7.966ZM22.0601 32.168C19.7361 32.168 18.1261 30.712 18.1261 28.486V28.234C18.1261 26.12 19.7781 24.552 21.9761 24.552H22.1441C24.2161 24.552 25.7561 25.98 25.7561 27.856V28.962H20.4641V28.976C20.5761 29.802 21.2481 30.292 22.2001 30.292H22.3261C23.1381 30.292 23.8941 29.942 24.3421 29.508L25.4341 31.062C24.7341 31.678 23.4181 32.168 22.3121 32.168H22.0601ZM20.5201 27.604H23.4601C23.4041 26.82 22.8721 26.246 22.0741 26.246H22.0321C21.3041 26.246 20.7161 26.75 20.5201 27.604ZM27.09 32V21.92H29.526V27.66H29.694L32.074 24.72H34.678L31.71 28.052L34.65 32H31.892L29.68 28.71H29.526V32H27.09ZM38.633 32.168C36.309 32.168 34.587 30.614 34.587 28.528V28.192C34.587 26.106 36.309 24.552 38.633 24.552H38.787C41.125 24.552 42.847 26.106 42.847 28.192V28.528C42.847 30.614 41.125 32.168 38.787 32.168H38.633ZM38.647 30.446H38.787C39.641 30.446 40.313 29.606 40.313 28.444V28.276C40.313 27.114 39.655 26.274 38.787 26.274H38.647C37.779 26.274 37.107 27.114 37.107 28.276V28.444C37.107 29.606 37.779 30.446 38.647 30.446ZM46.8841 32.112C45.3161 32.112 44.3781 31.216 44.3781 29.578V26.54H43.4261V24.944C43.6641 24.874 44.0421 24.79 44.3781 24.748V23.04L46.7861 22.76V24.72H48.8861V26.54H46.7581V29.13C46.7581 29.844 47.0801 30.11 47.6681 30.11C48.0321 30.11 48.6201 30.012 48.9001 29.956V31.762C48.3401 32 47.4721 32.112 46.8841 32.112ZM53.5601 32.168C51.2361 32.168 49.6261 30.712 49.6261 28.486V28.234C49.6261 26.12 51.2781 24.552 53.4761 24.552H53.6441C55.7161 24.552 57.2561 25.98 57.2561 27.856V28.962H51.9641V28.976C52.0761 29.802 52.7481 30.292 53.7001 30.292H53.8261C54.6381 30.292 55.3941 29.942 55.8421 29.508L56.9341 31.062C56.2341 31.678 54.9181 32.168 53.8121 32.168H53.5601ZM52.0201 27.604H54.9601C54.9041 26.82 54.3721 26.246 53.5741 26.246H53.5321C52.8041 26.246 52.2161 26.75 52.0201 27.604ZM58.59 32V21.92H61.026V27.66H61.194L63.574 24.72H66.178L63.21 28.052L66.15 32H63.392L61.18 28.71H61.026V32H58.59ZM69.0295 32.168C67.5455 32.168 66.4955 31.3 66.4955 30.012V29.858C66.4955 28.304 67.9375 27.492 70.8215 27.492H71.3255V27.366C71.3255 26.806 70.9475 26.386 70.1215 26.386H70.0515C69.3515 26.386 68.5395 26.638 67.7415 27.072L66.8315 25.42C67.6995 24.888 68.9595 24.552 70.1775 24.552H70.3315C72.3335 24.552 73.5795 25.63 73.5795 27.492V30.18C73.5795 30.824 73.6915 31.37 73.8315 32H71.5915C71.5075 31.762 71.4375 31.496 71.3955 31.174C70.9195 31.72 70.1075 32.168 69.0295 32.168ZM69.7295 30.404C70.2895 30.404 70.9195 30.18 71.3395 29.746V28.78H70.8075C69.4775 28.78 68.7915 29.116 68.7915 29.69V29.746C68.7915 30.124 69.1695 30.404 69.7295 30.404Z" fill="black"/>
<mask id="mask0_1013_41" style="mask-type:luminance" maskUnits="userSpaceOnUse" x="82" y="10" width="28" height="20">
<path d="M109.125 10.625H82.875V29.375H109.125V10.625Z" fill="white"/>
</mask>
<g mask="url(#mask0_1013_41)">
<path d="M86.3994 20.5943C85.656 21.316 85.1397 22.3611 84.9745 22.7934L84.1692 22.9061C82.8681 18.1131 82.8682 16.3088 83.116 14.0532C83.3638 11.7977 84.4789 10.7263 85.0365 10.7263C85.5941 10.7263 86.2755 11.7977 86.957 13.2074C87.5022 14.3352 88.5884 17.1734 89.0633 18.4515L88.4438 18.8463C88.4438 18.6395 88.4314 18.1921 88.3819 18.0568C88.3199 17.8876 88.0721 17.7749 88.0102 17.8313C87.9482 17.8876 88.0721 18.1131 88.196 18.2824C88.2951 18.4176 88.2373 18.6395 88.196 18.7334L87.4526 18.2824L87.3287 18.5643L88.196 19.0154C87.9069 19.2409 87.1428 19.8725 86.3994 20.5943Z" fill="url(#paint0_linear_1013_41)"/>
<path fill-rule="evenodd" clip-rule="evenodd" d="M84.4647 10.8498C84.6607 10.7074 84.8592 10.625 85.0347 10.625C85.2133 10.625 85.386 10.7102 85.5477 10.8397C85.711 10.9704 85.876 11.1565 86.0412 11.3821C86.3719 11.8336 86.7157 12.4603 87.0572 13.1667C87.6047 14.2994 88.6926 17.1423 89.1671 18.4191L89.1938 18.4911L88.3414 19.0342L88.2667 19.0925C87.9802 19.3161 87.2191 19.9451 86.4789 20.6638C85.7504 21.3711 85.2406 22.4014 85.078 22.8269L85.0559 22.8845L84.0836 23.0206L84.0591 22.9306C82.7557 18.129 82.7539 16.3127 83.0032 14.0433C83.1286 12.9025 83.4738 12.0552 83.8639 11.4901C84.0587 11.2078 84.266 10.9941 84.4647 10.8498ZM88.3305 18.9696V18.8464C88.3305 18.8021 88.3299 18.7465 88.3285 18.6854C88.3188 18.7186 88.3079 18.748 88.2977 18.7713L88.2466 18.8874L87.5032 18.4362L87.4664 18.5201L88.3305 18.9696ZM88.3036 18.2511C88.3024 18.2405 88.3012 18.23 88.2999 18.2199C88.2918 18.1564 88.2827 18.112 88.2743 18.089C88.2542 18.0342 88.1993 17.9806 88.1368 17.9465C88.1304 17.9431 88.1243 17.94 88.1183 17.9371C88.1227 17.9487 88.128 17.9615 88.1344 17.9756C88.1695 18.0521 88.2274 18.1449 88.2869 18.2261C88.2929 18.2344 88.2985 18.2427 88.3036 18.2511ZM84.0526 11.5981C83.6838 12.1325 83.3476 12.9487 83.2251 14.0635C82.9804 16.291 82.9769 18.075 84.2512 22.7919L84.8901 22.7024C85.079 22.2336 85.5894 21.2306 86.3163 20.525C86.9769 19.8836 87.6536 19.3133 88.0027 19.0328L87.1873 18.6088L87.3983 18.1286L88.128 18.5715C88.1314 18.5534 88.1341 18.5346 88.1357 18.5156C88.1421 18.4409 88.1308 18.3787 88.1014 18.3387C88.0371 18.2509 87.971 18.1462 87.9287 18.0536C87.9077 18.0079 87.8901 17.96 87.8834 17.9157C87.8777 17.8782 87.8745 17.8097 87.9295 17.7596C87.9848 17.7092 88.06 17.7121 88.1032 17.7191C88.153 17.7271 88.2046 17.7469 88.2515 17.7725C88.3439 17.823 88.4439 17.9105 88.4858 18.0249C88.5021 18.0694 88.5131 18.1319 88.5214 18.1966C88.5298 18.2636 88.5362 18.3409 88.5409 18.4193C88.5456 18.498 88.5488 18.5789 88.5507 18.6532L88.9291 18.4121C88.4408 17.1013 87.3859 14.3506 86.8531 13.2484C86.5131 12.545 86.1755 11.9312 85.8557 11.4946C85.6957 11.2762 85.5431 11.1063 85.4005 10.9921C85.2564 10.8766 85.1347 10.8279 85.0347 10.8279C84.9313 10.8279 84.7813 10.8794 84.6037 11.0084C84.4287 11.1355 84.2372 11.3306 84.0526 11.5981Z" fill="#282A3A"/>
<path d="M105.601 20.651C106.345 21.3728 106.861 22.4179 107.026 22.8501L107.832 22.9629C109.133 18.1699 109.133 16.3655 108.885 14.11C108.637 11.8545 107.522 10.7831 106.964 10.7831C106.407 10.7831 105.725 11.8545 105.044 13.2642C104.499 14.3919 103.412 17.2301 102.938 18.5083L103.557 18.903C103.557 18.6963 103.569 18.2489 103.619 18.1135C103.681 17.9444 103.929 17.8316 103.991 17.888C104.053 17.9444 103.929 18.1699 103.805 18.3391C103.706 18.4744 103.763 18.6963 103.805 18.7903L104.548 18.3391L104.672 18.621L103.805 19.0721C104.094 19.2976 104.858 19.9293 105.601 20.651Z" fill="url(#paint1_linear_1013_41)"/>
<path fill-rule="evenodd" clip-rule="evenodd" d="M107.536 10.906C107.34 10.7636 107.141 10.6812 106.966 10.6812C106.787 10.6812 106.615 10.7664 106.453 10.8959C106.29 11.0266 106.125 11.2127 105.959 11.4382C105.629 11.8898 105.285 12.5165 104.943 13.2228C104.396 14.3556 103.308 17.1985 102.833 18.4753L102.807 18.5473L103.659 19.0905L103.734 19.1488C104.02 19.3723 104.781 20.0013 105.522 20.7199C106.25 21.4273 106.76 22.4576 106.923 22.883L106.945 22.9406L107.917 23.0769L107.941 22.9868C109.245 18.1851 109.247 16.3689 108.997 14.0994C108.872 12.9587 108.527 12.1114 108.137 11.5463C107.942 11.2639 107.735 11.0502 107.536 10.906ZM103.67 19.0258V18.9025C103.67 18.8583 103.671 18.8026 103.672 18.7415C103.682 18.7749 103.693 18.8041 103.703 18.8274L103.754 18.9435L104.497 18.4924L104.534 18.5763L103.67 19.0258ZM103.697 18.3074C103.698 18.2966 103.699 18.2861 103.701 18.276C103.709 18.2125 103.718 18.1683 103.726 18.1451C103.746 18.0904 103.801 18.0369 103.864 18.0028C103.87 17.9993 103.876 17.9961 103.882 17.9933C103.878 18.0049 103.873 18.0178 103.866 18.0318C103.831 18.1084 103.773 18.201 103.714 18.2824C103.708 18.2905 103.702 18.2989 103.697 18.3074ZM107.948 11.6542C108.317 12.1887 108.653 13.0048 108.775 14.1196C109.02 16.3471 109.024 18.1313 107.749 22.848L107.11 22.7586C106.922 22.2899 106.411 21.2869 105.684 20.5811C105.024 19.9398 104.347 19.3694 103.998 19.0889L104.813 18.6649L104.602 18.1849L103.873 18.6276C103.869 18.6096 103.866 18.5908 103.865 18.5718C103.858 18.497 103.87 18.435 103.899 18.3949C103.964 18.307 104.03 18.2024 104.072 18.1098C104.093 18.0641 104.11 18.0161 104.117 17.972C104.123 17.9344 104.126 17.8659 104.071 17.8158C104.016 17.7655 103.941 17.7684 103.897 17.7753C103.848 17.7833 103.796 17.8031 103.749 17.8288C103.657 17.8791 103.557 17.9666 103.515 18.081C103.498 18.1256 103.487 18.188 103.479 18.2528C103.471 18.3198 103.464 18.3971 103.46 18.4755C103.455 18.5541 103.452 18.6351 103.45 18.7094L103.071 18.4683C103.56 17.1574 104.615 14.4067 105.147 13.3046C105.487 12.6012 105.825 11.9874 106.145 11.5508C106.305 11.3323 106.457 11.1624 106.6 11.0482C106.744 10.9328 106.866 10.8841 106.966 10.8841C107.069 10.8841 107.219 10.9356 107.397 11.0646C107.572 11.1917 107.763 11.3868 107.948 11.6542Z" fill="#282A3A"/>
<path d="M104.359 23.4309C107.055 23.4155 107.863 25.7126 107.929 26.8631V27.1795C107.705 27.857 106.661 29.2063 104.285 29.1833C101.314 29.1545 100.609 27.4384 100.535 27.3425C100.461 27.2466 100.23 27.3041 100.219 27.0741C100.211 26.89 100.384 26.8568 100.472 26.8631L100.535 26.1058C100.686 25.2205 101.662 23.4463 104.359 23.4309Z" fill="#F8F9FF"/>
<path fill-rule="evenodd" clip-rule="evenodd" d="M107.818 26.866V27.1644C107.596 27.8091 106.59 29.1043 104.286 29.082C102.827 29.0679 101.934 28.6401 101.397 28.2119C101.128 27.9971 100.947 27.7804 100.828 27.612C100.769 27.5277 100.726 27.4555 100.694 27.4012C100.682 27.3802 100.672 27.3623 100.664 27.3466C100.661 27.3419 100.659 27.3373 100.656 27.3329L100.655 27.3314C100.647 27.3168 100.636 27.2974 100.626 27.2845C100.589 27.2358 100.536 27.2122 100.497 27.1984C100.48 27.192 100.462 27.1865 100.447 27.1817L100.441 27.1801C100.424 27.1748 100.41 27.1702 100.397 27.1654C100.371 27.1555 100.358 27.1466 100.351 27.1374C100.343 27.1291 100.332 27.1112 100.33 27.07C100.329 27.0389 100.335 27.0202 100.342 27.0094C100.348 26.9985 100.357 26.99 100.369 26.9831C100.396 26.9676 100.435 26.9624 100.463 26.9644L100.575 26.9725L100.646 26.1176C100.793 25.2649 101.737 23.5474 104.359 23.5325C105.666 23.525 106.509 24.0752 107.039 24.7679C107.571 25.464 107.785 26.3049 107.818 26.866ZM107.222 24.652C106.656 23.9122 105.748 23.3216 104.358 23.3295C101.591 23.3452 100.582 25.1711 100.425 26.0904L100.424 26.0943L100.368 26.769C100.329 26.7764 100.288 26.7896 100.25 26.8115C100.162 26.8619 100.102 26.951 100.108 27.0784C100.111 27.1523 100.133 27.2135 100.175 27.2621C100.215 27.3097 100.267 27.3356 100.31 27.3522C100.331 27.3604 100.352 27.367 100.37 27.3724L100.375 27.3739C100.391 27.3789 100.403 27.3826 100.415 27.3869C100.436 27.3946 100.444 27.4006 100.444 27.4006L100.445 27.4025C100.446 27.4053 100.45 27.4119 100.457 27.4248C100.46 27.4286 100.462 27.4329 100.464 27.4375C100.473 27.4531 100.484 27.4728 100.497 27.495C100.53 27.553 100.577 27.6307 100.641 27.7214C100.768 27.9026 100.962 28.1348 101.25 28.3645C101.828 28.8255 102.773 29.2703 104.284 29.2849C106.716 29.3084 107.799 27.9244 108.036 27.209L108.041 27.1946V26.8579C108.007 26.2686 107.784 25.3872 107.222 24.652Z" fill="#282A3A"/>
<path d="M87.647 23.4309C84.9504 23.4155 84.1429 25.7126 84.0762 26.8631V27.1795C84.3009 27.857 85.3444 29.2063 87.7207 29.1833C90.6911 29.1545 91.3968 27.4384 91.4705 27.3425C91.5443 27.2466 91.776 27.3041 91.7865 27.0741C91.795 26.89 91.6215 26.8568 91.5337 26.8631L91.4705 26.1058C91.3196 25.2205 90.3435 23.4463 87.647 23.4309Z" fill="#F8F9FF"/>
<path fill-rule="evenodd" clip-rule="evenodd" d="M84.1858 26.866V27.1644C84.4079 27.8091 85.4138 29.1043 87.7177 29.082C89.177 29.0679 90.0702 28.6401 90.6066 28.2119C90.8757 27.9971 91.0571 27.7804 91.1755 27.612C91.2348 27.5277 91.2783 27.4555 91.3094 27.4012C91.3214 27.3802 91.3314 27.3623 91.34 27.3466C91.3427 27.3419 91.3453 27.3373 91.3477 27.3329L91.3485 27.3314C91.3567 27.3168 91.3675 27.2974 91.3774 27.2845C91.4149 27.2358 91.4683 27.2122 91.5065 27.1984C91.5239 27.192 91.5421 27.1865 91.5573 27.1817L91.5626 27.1801C91.5799 27.1748 91.594 27.1702 91.607 27.1654C91.6325 27.1555 91.6454 27.1466 91.6533 27.1374C91.6604 27.1291 91.6715 27.1112 91.6734 27.07C91.6748 27.0389 91.6684 27.0202 91.6621 27.0094C91.6559 26.9985 91.647 26.99 91.635 26.9831C91.6079 26.9676 91.5686 26.9624 91.5408 26.9644L91.4293 26.9725L91.3579 26.1176C91.2105 25.2649 90.2669 23.5474 87.6445 23.5325C86.3378 23.525 85.4944 24.0752 84.9651 24.7679C84.4332 25.464 84.2189 26.3049 84.1858 26.866ZM84.7821 24.652C85.3474 23.9122 86.256 23.3216 87.6459 23.3295C90.4125 23.3452 91.4221 25.1711 91.5789 26.0904L91.5795 26.0943L91.6358 26.769C91.6747 26.7764 91.7156 26.7896 91.7538 26.8115C91.8417 26.8619 91.9019 26.951 91.8961 27.0784C91.8927 27.1523 91.8708 27.2135 91.8292 27.2621C91.7884 27.3097 91.7368 27.3356 91.6939 27.3522C91.6726 27.3604 91.6515 27.367 91.6341 27.3724L91.6291 27.3739C91.613 27.3789 91.6005 27.3826 91.5889 27.3869C91.5675 27.3946 91.5602 27.4006 91.5602 27.4006L91.5592 27.4025C91.5575 27.4053 91.5536 27.4119 91.5465 27.4248C91.5443 27.4286 91.542 27.4329 91.5394 27.4375C91.5307 27.4531 91.5198 27.4728 91.5071 27.495C91.4739 27.553 91.427 27.6307 91.3633 27.7214C91.2359 27.9026 91.0414 28.1348 90.7536 28.3645C90.176 28.8255 89.2311 29.2703 87.7201 29.2849C85.2883 29.3084 84.2049 27.9244 83.9677 27.209L83.9629 27.1946V26.8579C83.9971 26.2686 84.2203 25.3872 84.7821 24.652Z" fill="#282A3A"/>
<path fill-rule="evenodd" clip-rule="evenodd" d="M88.5625 27.699C89.1218 27.699 89.3262 27.0426 89.3262 26.2329C89.3262 26.2068 89.326 26.1808 89.3257 26.155C89.259 26.2033 89.1686 26.2329 89.0691 26.2329C88.8638 26.2329 88.6974 26.1066 88.6974 25.951C88.6974 25.7952 88.8638 25.669 89.0691 25.669C89.156 25.669 89.2359 25.6916 89.2992 25.7295C89.232 25.1765 89.0281 24.7904 88.5625 24.7669C88.0032 24.7669 87.7988 25.4233 87.7988 26.2329C87.7988 27.0426 88.0032 27.699 88.5625 27.699Z" fill="#282A3A"/>
<path fill-rule="evenodd" clip-rule="evenodd" d="M103.426 27.699C103.974 27.699 104.174 27.0426 104.174 26.233C104.174 26.2331 104.174 26.2329 104.174 26.233C104.168 26.2333 104.162 26.233 104.157 26.233C103.964 26.233 103.808 26.1067 103.808 25.951C103.808 25.8 103.955 25.6766 104.14 25.6694C104.067 25.1488 103.865 24.7895 103.426 24.7669C102.878 24.7669 102.678 25.4233 102.678 26.233C102.678 27.0426 102.878 27.699 103.426 27.699Z" fill="#282A3A"/>
<path d="M95.976 28.1458C94.8401 28.1458 94.8175 28.4103 94.8405 28.5843C94.9666 28.8105 95.2365 29.2734 96.0677 29.2734C96.747 29.2734 97.1155 28.8175 97.2148 28.5843C97.2148 28.3963 97.2148 28.1458 95.976 28.1458Z" fill="#F79FBB"/>
<path fill-rule="evenodd" clip-rule="evenodd" d="M94.9472 28.555C95.0092 28.6652 95.0991 28.8127 95.2599 28.9364C95.426 29.0641 95.6755 29.1721 96.066 29.1721C96.6672 29.1721 97.0019 28.7787 97.1015 28.5647C97.1011 28.5259 97.099 28.4971 97.0886 28.4704C97.0784 28.4441 97.0574 28.4131 97.0001 28.3812C96.8742 28.3112 96.5932 28.2474 95.9742 28.2474C95.4084 28.2474 95.1486 28.3145 95.0336 28.3842C94.981 28.4162 94.9617 28.4471 94.9531 28.4722C94.945 28.4965 94.9441 28.5231 94.9472 28.555ZM94.91 28.2155C95.0846 28.1095 95.4041 28.0444 95.9742 28.0444C96.594 28.0445 96.9324 28.1057 97.1164 28.2081C97.2139 28.2624 97.2702 28.3292 97.2989 28.4029C97.3246 28.4694 97.3246 28.5352 97.3245 28.5799V28.5844V28.6034L97.317 28.6211C97.2074 28.8782 96.8066 29.375 96.066 29.375C95.6251 29.375 95.3241 29.2515 95.1159 29.0912C94.9104 28.9332 94.8031 28.7449 94.7392 28.6304L94.7302 28.6144L94.728 28.5965C94.7217 28.5492 94.7164 28.4827 94.7401 28.4126C94.7649 28.3394 94.8179 28.2714 94.91 28.2155Z" fill="#282A3A"/>
</g>
<defs>
<linearGradient id="paint0_linear_1013_41" x1="86.0258" y1="10.7263" x2="86.0258" y2="22.9061" gradientUnits="userSpaceOnUse">
<stop stop-color="#DBE0EF"/>
<stop offset="1" stop-color="#F79FBB"/>
</linearGradient>
<linearGradient id="paint1_linear_1013_41" x1="105.975" y1="10.7831" x2="105.975" y2="22.9629" gradientUnits="userSpaceOnUse">
<stop stop-color="#DBE0EF"/>
<stop offset="1" stop-color="#F79FBB"/>
</linearGradient>
</defs>
</svg>
