<svg width="121" height="40" viewBox="0 0 121 40" fill="none" xmlns="http://www.w3.org/2000/svg">
<rect x="0.5" y="0.5" width="120" height="39" rx="3.5" fill="#F2F2F2"/>
<rect x="0.5" y="0.5" width="120" height="39" rx="3.5" stroke="#373737"/>
<path d="M7.84 16V9H13.36V16H12.05V10.16H9.15V16H7.84ZM14.947 18V10.8H15.927C15.997 10.97 16.057 11.27 16.087 11.5C16.527 11 17.167 10.71 17.917 10.71H17.967C19.417 10.71 20.467 11.79 20.467 13.33V13.47C20.467 15.01 19.417 16.09 17.967 16.09H17.917C17.227 16.09 16.617 15.84 16.187 15.4V18H14.947ZM17.647 15.1H17.717C18.577 15.1 19.177 14.44 19.177 13.45V13.35C19.177 12.36 18.587 11.7 17.717 11.7H17.647C16.787 11.7 16.187 12.36 16.187 13.35V13.45C16.187 14.44 16.787 15.1 17.647 15.1ZM23.0867 16.1C22.0067 16.1 21.2667 15.47 21.2667 14.55V14.48C21.2667 13.37 22.3167 12.79 24.4067 12.79H24.8267V12.56C24.8267 12.06 24.4367 11.72 23.7467 11.72H23.7167C23.1767 11.72 22.5467 11.92 22.0267 12.25L21.5167 11.35C22.1567 10.95 22.9567 10.69 23.7867 10.69H23.8467C25.1667 10.69 25.9967 11.41 25.9967 12.58V14.93C25.9967 15.29 26.0767 15.66 26.1767 16H24.9967C24.9367 15.84 24.8867 15.61 24.8567 15.38C24.4167 15.82 23.7967 16.1 23.0867 16.1ZM23.3367 15.1C23.9167 15.1 24.4667 14.85 24.8267 14.46V13.59H24.4767C23.1067 13.59 22.4667 13.87 22.4667 14.42V14.46C22.4667 14.83 22.8167 15.1 23.3367 15.1ZM31.8261 17.28V16H27.4961V10.8H28.7361V15.02H31.0361V10.8H32.2761V15.02H33.0061V17.28H31.8261ZM38.5105 16.09C37.1305 16.09 36.1005 15.14 35.9805 13.8H35.2005V16H33.9805V10.8H35.2005V12.8H36.0205C36.2205 11.56 37.2005 10.71 38.5105 10.71H38.5805C40.0605 10.71 41.1305 11.79 41.1305 13.27V13.53C41.1305 15.01 40.0605 16.09 38.5805 16.09H38.5105ZM38.5305 15.1H38.5705C39.3205 15.1 39.8405 14.46 39.8405 13.5V13.26C39.8405 12.32 39.3205 11.7 38.5705 11.7H38.5305C37.7805 11.7 37.2605 12.32 37.2605 13.26V13.5C37.2605 14.46 37.7805 15.1 38.5305 15.1ZM44.7201 16.08C43.1301 16.08 42.0201 15 42.0201 13.47V13.31C42.0201 11.8 43.1601 10.72 44.7001 10.72H44.7701C45.7801 10.72 46.5701 11.18 47.0301 11.91L46.1101 12.52C45.8201 11.99 45.3801 11.71 44.7601 11.71H44.7301C43.9501 11.71 43.4301 12.18 43.3201 12.98H45.4801V13.82H43.3201C43.4501 14.59 44.0101 15.07 44.7901 15.07H44.8301C45.4601 15.07 45.9001 14.75 46.1701 14.26L47.0701 14.93C46.6001 15.64 45.8301 16.08 44.8001 16.08H44.7201ZM50.7188 16V10.8H51.9588V12.78H54.3188V10.8H55.5588V16H54.3188V13.78H51.9588V16H50.7188ZM58.5066 16.1C57.4266 16.1 56.6866 15.47 56.6866 14.55V14.48C56.6866 13.37 57.7366 12.79 59.8266 12.79H60.2466V12.56C60.2466 12.06 59.8566 11.72 59.1666 11.72H59.1366C58.5966 11.72 57.9666 11.92 57.4466 12.25L56.9366 11.35C57.5766 10.95 58.3766 10.69 59.2066 10.69H59.2666C60.5866 10.69 61.4166 11.41 61.4166 12.58V14.93C61.4166 15.29 61.4966 15.66 61.5966 16H60.4166C60.3566 15.84 60.3066 15.61 60.2766 15.38C59.8366 15.82 59.2166 16.1 58.5066 16.1ZM58.7566 15.1C59.3366 15.1 59.8866 14.85 60.2466 14.46V13.59H59.8966C58.5266 13.59 57.8866 13.87 57.8866 14.42V14.46C57.8866 14.83 58.2366 15.1 58.7566 15.1ZM7.966 31V21.2H10.78L14.168 27.206H14.252V21.2H16.702V31H14.21L10.486 24.364H10.402V31H7.966ZM22.1721 31.168C19.8481 31.168 18.1261 29.614 18.1261 27.528V27.192C18.1261 25.106 19.8481 23.552 22.1721 23.552H22.3261C24.6641 23.552 26.3861 25.106 26.3861 27.192V27.528C26.3861 29.614 24.6641 31.168 22.3261 31.168H22.1721ZM22.1861 29.446H22.3261C23.1801 29.446 23.8521 28.606 23.8521 27.444V27.276C23.8521 26.114 23.1941 25.274 22.3261 25.274H22.1861C21.3181 25.274 20.6461 26.114 20.6461 27.276V27.444C20.6461 28.606 21.3181 29.446 22.1861 29.446ZM30.4232 31.112C28.8552 31.112 27.9172 30.216 27.9172 28.578V25.54H26.9652V23.944C27.2032 23.874 27.5812 23.79 27.9172 23.748V22.04L30.3252 21.76V23.72H32.4252V25.54H30.2972V28.13C30.2972 28.844 30.6192 29.11 31.2072 29.11C31.5712 29.11 32.1592 29.012 32.4392 28.956V30.762C31.8792 31 31.0112 31.112 30.4232 31.112ZM34.8838 22.922C34.0718 22.922 33.5258 22.446 33.5258 21.746C33.5258 21.032 34.0718 20.542 34.8838 20.542C35.7238 20.542 36.2978 21.032 36.2978 21.746C36.2978 22.446 35.7378 22.922 34.8838 22.922ZM33.6798 31V23.72H36.1158V31H33.6798ZM41.4494 31.168C39.1254 31.168 37.4034 29.614 37.4034 27.528V27.192C37.4034 25.106 39.1254 23.552 41.4494 23.552H41.6034C43.9414 23.552 45.6634 25.106 45.6634 27.192V27.528C45.6634 29.614 43.9414 31.168 41.6034 31.168H41.4494ZM41.4634 29.446H41.6034C42.4574 29.446 43.1294 28.606 43.1294 27.444V27.276C43.1294 26.114 42.4714 25.274 41.6034 25.274H41.4634C40.5954 25.274 39.9234 26.114 39.9234 27.276V27.444C39.9234 28.606 40.5954 29.446 41.4634 29.446ZM46.9552 31V23.72H48.8872C48.9852 24.028 49.1112 24.602 49.1112 24.91C49.8812 23.986 50.9172 23.552 51.8552 23.552H51.8972C53.5212 23.552 54.4732 24.602 54.4732 26.366V31H52.0372V26.912C52.0372 25.988 51.6592 25.54 50.8892 25.54H50.8472C49.9652 25.54 49.3912 26.268 49.3912 27.234V31H46.9552Z" fill="black"/>
<g clip-path="url(#clip0_1229_286)">
<path d="M85.5715 8.11935L100.024 7.05898C101.8 6.90764 102.256 7.0097 103.372 7.81579L107.986 11.0446C108.747 11.5999 109 11.7513 109 12.3559V30.0637C109 31.1735 108.594 31.8299 107.174 31.9303L90.3906 32.9396C89.3249 32.9898 88.8174 32.8385 88.2593 32.1318L84.8619 27.7431C84.2525 26.9353 84 26.3306 84 25.6239V9.88386C84 8.97658 84.4058 8.21976 85.5715 8.11935Z" fill="white"/>
<path d="M100.024 7.05898L85.5715 8.11935C84.4058 8.21976 84 8.97658 84 9.88386V25.624C84 26.3307 84.2524 26.9353 84.8619 27.7431L88.2593 32.1318C88.8174 32.8385 89.3249 32.9898 90.3906 32.9396L107.174 31.9303C108.593 31.8299 109 31.1735 109 30.0637V12.3559C109 11.7824 108.772 11.6172 108.101 11.1277L107.985 11.0446L103.372 7.81579C102.256 7.0097 101.8 6.90764 100.024 7.05898ZM90.7702 12.0661C89.3998 12.1578 89.089 12.1786 88.3106 11.5497L86.3316 9.98592C86.1305 9.78355 86.2314 9.53092 86.7382 9.48076L100.632 8.47229C101.799 8.37111 102.407 8.77498 102.863 9.12792L105.246 10.8431C105.348 10.8941 105.601 11.196 105.296 11.196L90.9479 12.054L90.7702 12.0661ZM89.1726 29.9124V14.8797C89.1726 14.2232 89.3754 13.9206 89.9831 13.8695L106.463 12.9111C107.022 12.861 107.274 13.2138 107.274 13.8695V28.8018C107.274 29.4583 107.172 30.0135 106.26 30.0637L90.4898 30.9719C89.5774 31.0221 89.1726 30.7202 89.1726 29.9124ZM104.74 15.6857C104.841 16.1399 104.74 16.594 104.283 16.6459L103.523 16.7955V27.8944C102.863 28.2472 102.255 28.4488 101.747 28.4488C100.936 28.4488 100.733 28.1962 100.125 27.4403L95.1549 19.6714V27.1877L96.7271 27.5414C96.7271 27.5414 96.7271 28.4497 95.4587 28.4497L91.9612 28.6512C91.8594 28.4488 91.9612 27.9445 92.3157 27.8442L93.2289 27.5925V17.6545L91.9613 17.5524C91.8594 17.0984 92.1127 16.4426 92.8232 16.3916L96.5758 16.1408L101.747 24.01V17.0482L100.429 16.8976C100.327 16.3415 100.733 15.9376 101.24 15.8883L104.74 15.6857Z" fill="black"/>
</g>
<defs>
<clipPath id="clip0_1229_286">
<rect width="25" height="26" fill="white" transform="translate(84 7)"/>
</clipPath>
</defs>
</svg>
