<svg width="197" height="33" viewBox="0 0 197 33" fill="none" xmlns="http://www.w3.org/2000/svg">
<g clip-path="url(#clip0_1051_39)">
<path d="M185.25 0.375H11.25C5.2439 0.375 0.375 5.2439 0.375 11.25V21.75C0.375 27.7561 5.2439 32.625 11.25 32.625H185.25C191.256 32.625 196.125 27.7561 196.125 21.75V11.25C196.125 5.2439 191.256 0.375 185.25 0.375Z" fill="black"/>
<path d="M185.25 0.375H11.25C5.2439 0.375 0.375 5.2439 0.375 11.25V21.75C0.375 27.7561 5.2439 32.625 11.25 32.625H185.25C191.256 32.625 196.125 27.7561 196.125 21.75V11.25C196.125 5.2439 191.256 0.375 185.25 0.375Z" stroke="#4F4F4F"/>
<path d="M9.25195 22.875V9.77932H14.42C15.3984 9.77932 16.2452 9.95505 16.96 10.3066C17.6807 10.6523 18.2344 11.1475 18.6211 11.792C19.0137 12.4365 19.21 13.1983 19.21 14.0771C19.21 14.956 19.0108 15.7177 18.6123 16.3623C18.2198 17.001 17.6631 17.4961 16.9424 17.8477C16.2217 18.1992 15.3692 18.375 14.3848 18.375H11.959V22.875H9.25195ZM11.959 16.1074H14.2442C14.959 16.1074 15.5244 15.9258 15.9405 15.5625C16.3565 15.1933 16.5645 14.6983 16.5645 14.0771C16.5645 13.4502 16.3565 12.955 15.9405 12.5918C15.5244 12.2285 14.959 12.0469 14.2442 12.0469H11.959V16.1074ZM24.378 23.0859C23.4405 23.0859 22.6172 22.8838 21.9082 22.4795C21.2051 22.0752 20.6544 21.5127 20.2559 20.792C19.8633 20.0654 19.6671 19.2158 19.6671 18.2431C19.6671 17.2705 19.8633 16.4209 20.2559 15.6943C20.6544 14.9677 21.2051 14.4023 21.9082 13.9981C22.6172 13.5879 23.4405 13.3828 24.378 13.3828C25.3213 13.3828 26.1446 13.5879 26.8477 13.9981C27.5567 14.4023 28.1075 14.9677 28.5 15.6943C28.8984 16.4209 29.0977 17.2705 29.0977 18.2431C29.0977 19.21 28.8984 20.0566 28.5 20.7832C28.1075 21.5098 27.5567 22.0752 26.8477 22.4795C26.1446 22.8838 25.3213 23.0859 24.378 23.0859ZM24.378 20.9854C25.0108 20.9854 25.5205 20.7451 25.9073 20.2646C26.294 19.7783 26.4873 19.1045 26.4873 18.2431C26.4873 17.376 26.294 16.6992 25.9073 16.2129C25.5205 15.7266 25.0108 15.4834 24.378 15.4834C23.751 15.4834 23.2442 15.7266 22.8575 16.2129C22.4707 16.6992 22.2774 17.376 22.2774 18.2431C22.2774 19.1045 22.4707 19.7783 22.8575 20.2646C23.2442 20.7451 23.751 20.9854 24.378 20.9854ZM32.3321 22.875L29.4756 13.5937H32.1827L33.0352 16.8369C33.1758 17.3877 33.3106 17.9531 33.4395 18.5332C33.5684 19.1133 33.6973 19.6904 33.8262 20.2646C33.9669 19.6904 34.1075 19.1133 34.2481 18.5332C34.3887 17.9531 34.5323 17.3877 34.6788 16.8369L35.5665 13.5937H37.9044L38.7832 16.8369C38.9297 17.3818 39.0733 17.9443 39.2139 18.5244C39.3546 19.1045 39.4922 19.6816 39.627 20.2558C39.7559 19.6816 39.8819 19.1074 40.0049 18.5332C40.1338 17.9531 40.2657 17.3877 40.4004 16.8369L41.2442 13.5937H43.9952L41.1387 22.875H38.458L37.377 19.1836C37.2657 18.7969 37.1573 18.3984 37.0518 17.9883C36.9463 17.5781 36.8409 17.165 36.7354 16.749C36.6299 17.165 36.5244 17.5781 36.419 17.9883C36.3135 18.3984 36.2022 18.7969 36.085 19.1836L34.9952 22.875H32.3321ZM49.0049 23.0859C48.0674 23.0859 47.25 22.8779 46.5528 22.4619C45.8613 22.0459 45.3223 21.4746 44.9356 20.7481C44.5547 20.0156 44.3643 19.1806 44.3643 18.2431C44.3643 17.2998 44.5577 16.4619 44.9444 15.7295C45.3369 14.9971 45.876 14.4229 46.5615 14.0068C47.2471 13.5908 48.0323 13.3828 48.9171 13.3828C49.8311 13.3828 50.628 13.5879 51.3077 13.9981C51.9932 14.4023 52.5264 14.9677 52.9073 15.6943C53.294 16.415 53.4873 17.2471 53.4873 18.1904V18.8848H46.8867C46.9102 19.5703 47.1123 20.1181 47.4932 20.5283C47.874 20.9385 48.4044 21.1435 49.084 21.1435C49.5879 21.1435 50.0069 21.0352 50.3409 20.8183C50.6807 20.6016 50.9092 20.3144 51.0264 19.957H53.3907C53.2794 20.5723 53.0186 21.1142 52.6084 21.583C52.1983 22.0517 51.6827 22.4209 51.0615 22.6904C50.4405 22.9541 49.7549 23.0859 49.0049 23.0859ZM46.9044 17.2324H51.044C50.9796 16.6523 50.7627 16.1953 50.3936 15.8613C50.0303 15.5215 49.5557 15.3516 48.9698 15.3516C48.3897 15.3516 47.918 15.5215 47.5547 15.8613C47.1915 16.1953 46.9746 16.6523 46.9044 17.2324ZM54.876 22.875V13.5937H57.3721V15.1758H57.3984C57.5684 14.6191 57.835 14.206 58.1983 13.9365C58.5615 13.667 59.0508 13.5322 59.6661 13.5322C59.8184 13.5322 59.9561 13.5352 60.0792 13.541C60.208 13.5469 60.3252 13.5498 60.4307 13.5498V15.7558C60.3369 15.75 60.1817 15.7412 59.9649 15.7295C59.7481 15.7177 59.5313 15.7119 59.3145 15.7119C58.7813 15.7119 58.3389 15.8935 57.9873 16.2568C57.6417 16.6201 57.4688 17.1504 57.4688 17.8477V22.875H54.876ZM65.7393 23.0859C64.8018 23.0859 63.9844 22.8779 63.2871 22.4619C62.5957 22.0459 62.0567 21.4746 61.67 20.7481C61.2891 20.0156 61.0986 19.1806 61.0986 18.2431C61.0986 17.2998 61.2921 16.4619 61.6788 15.7295C62.0713 14.9971 62.6104 14.4229 63.2959 14.0068C63.9815 13.5908 64.7667 13.3828 65.6514 13.3828C66.5655 13.3828 67.3623 13.5879 68.0421 13.9981C68.7276 14.4023 69.2608 14.9677 69.6417 15.6943C70.0284 16.415 70.2217 17.2471 70.2217 18.1904V18.8848H63.6211C63.6446 19.5703 63.8467 20.1181 64.2276 20.5283C64.6084 20.9385 65.1387 21.1435 65.8184 21.1435C66.3223 21.1435 66.7413 21.0352 67.0752 20.8183C67.4151 20.6016 67.6436 20.3144 67.7608 19.957H70.125C70.0137 20.5723 69.753 21.1142 69.3428 21.583C68.9327 22.0517 68.4171 22.4209 67.7959 22.6904C67.1748 22.9541 66.4893 23.0859 65.7393 23.0859ZM63.6387 17.2324H67.7784C67.7139 16.6523 67.4971 16.1953 67.128 15.8613C66.7647 15.5215 66.2901 15.3516 65.7042 15.3516C65.124 15.3516 64.6524 15.5215 64.2891 15.8613C63.9258 16.1953 63.709 16.6523 63.6387 17.2324ZM75.2228 23.0683C74.4141 23.0683 73.708 22.8662 73.1046 22.4619C72.501 22.0576 72.0323 21.4921 71.6983 20.7656C71.3702 20.0391 71.2061 19.1923 71.2061 18.2256C71.2061 17.2764 71.3731 16.4385 71.7071 15.7119C72.0469 14.9854 72.5157 14.4199 73.1133 14.0156C73.7169 13.6054 74.4141 13.4004 75.2048 13.4004C75.8025 13.4004 76.3328 13.5234 76.7963 13.7695C77.259 14.0098 77.64 14.3789 77.9385 14.8769H77.9475V9.77932H80.5313V22.875H77.9828V21.4512H77.9738C77.7038 21.9902 77.3288 22.3945 76.8488 22.6641C76.374 22.9336 75.8318 23.0683 75.2228 23.0683ZM75.891 20.959C76.5465 20.959 77.0745 20.7129 77.4728 20.2207C77.871 19.7227 78.0705 19.0576 78.0705 18.2256C78.0705 17.3994 77.871 16.7373 77.4728 16.2392C77.0745 15.7412 76.5465 15.4921 75.891 15.4921C75.264 15.4921 74.7598 15.7324 74.379 16.2129C74.004 16.6875 73.8165 17.3584 73.8165 18.2256C73.8165 19.0927 74.004 19.7666 74.379 20.2471C74.7598 20.7217 75.264 20.959 75.891 20.959ZM91.5525 23.0683C90.9435 23.0683 90.3983 22.9336 89.9183 22.6641C89.4435 22.3945 89.0715 21.9902 88.8015 21.4512H88.7933V22.875H86.235V9.77932H88.8285V14.8769H88.8368C89.136 14.3789 89.514 14.0098 89.9708 13.7695C90.4335 13.5234 90.9668 13.4004 91.5705 13.4004C92.361 13.4004 93.0555 13.6054 93.6533 14.0156C94.257 14.4199 94.7258 14.9854 95.0595 15.7119C95.3993 16.4385 95.5695 17.2764 95.5695 18.2256C95.5695 19.1923 95.4023 20.0391 95.0685 20.7656C94.734 21.4921 94.266 22.0576 93.6623 22.4619C93.0645 22.8662 92.361 23.0683 91.5525 23.0683ZM90.885 20.959C91.512 20.959 92.013 20.7217 92.388 20.2471C92.7683 19.7666 92.9588 19.0927 92.9588 18.2256C92.9588 17.3584 92.7683 16.6875 92.388 16.2129C92.013 15.7324 91.512 15.4921 90.885 15.4921C90.2288 15.4921 89.7015 15.7412 89.3025 16.2392C88.9043 16.7373 88.7048 17.3994 88.7048 18.2256C88.7048 19.0576 88.9043 19.7227 89.3025 20.2207C89.7015 20.7129 90.2288 20.959 90.885 20.959ZM96.888 26.5488V24.501H98.0655C98.376 24.501 98.6048 24.4248 98.751 24.2725C98.9033 24.126 99.0413 23.874 99.1643 23.5166L99.4193 22.8398L95.8508 13.5937H98.5665L100.122 18.1816C100.228 18.5156 100.33 18.8496 100.43 19.1836C100.535 19.5175 100.638 19.8516 100.737 20.1856C100.837 19.8516 100.94 19.5175 101.045 19.1836C101.15 18.8437 101.256 18.5098 101.361 18.1816L102.926 13.5937H105.615L101.528 24.3076C101.235 25.081 100.855 25.6465 100.386 26.0039C99.9173 26.3671 99.3225 26.5488 98.6018 26.5488H96.888ZM110.555 22.875V9.77932H113.262V15.0352H118.826V9.77932H121.523V22.875H118.826V17.3554H113.262V22.875H110.555ZM123.431 22.875V13.5937H126.023V22.875H123.431ZM124.723 12.4248C124.295 12.4248 123.941 12.2959 123.659 12.0381C123.378 11.7744 123.237 11.4433 123.237 11.0449C123.237 10.6465 123.378 10.3183 123.659 10.0606C123.941 9.79687 124.295 9.66502 124.723 9.66502C125.144 9.66502 125.496 9.79687 125.777 10.0606C126.059 10.3183 126.2 10.6465 126.2 11.0449C126.2 11.4433 126.059 11.7744 125.777 12.0381C125.496 12.2959 125.144 12.4248 124.723 12.4248ZM127.86 22.875V9.77932H130.454V17.1445H130.48L133.732 13.5937H136.772L133.142 17.6191L136.966 22.875H133.934L131.201 19.1045L130.454 19.9306V22.875H127.86ZM137.774 22.875V9.77932H140.367V17.1445H140.393L143.645 13.5937H146.687L143.057 17.6191L146.88 22.875H143.848L141.114 19.1045L140.367 19.9306V22.875H137.774ZM150.527 23.0332C149.602 23.0332 148.837 22.8017 148.234 22.3389C147.636 21.876 147.337 21.1816 147.337 20.2558C147.337 19.5586 147.504 19.0137 147.838 18.6211C148.172 18.2227 148.614 17.9326 149.165 17.751C149.716 17.5693 150.314 17.4492 150.958 17.3906C151.808 17.3027 152.402 17.2148 152.742 17.1269C153.082 17.0391 153.252 16.8457 153.252 16.5469V16.4854C153.252 16.1455 153.117 15.8671 152.848 15.6504C152.579 15.4336 152.206 15.3252 151.732 15.3252C151.251 15.3252 150.861 15.4365 150.563 15.6592C150.264 15.8818 150.1 16.1719 150.071 16.5293H147.636C147.695 15.5742 148.087 14.8154 148.814 14.2529C149.54 13.6846 150.539 13.4004 151.811 13.4004C153.082 13.4004 154.067 13.6846 154.764 14.2529C155.461 14.8154 155.81 15.5918 155.81 16.582V22.875H153.278V21.5654H153.243C152.997 22.0166 152.66 22.374 152.233 22.6377C151.805 22.9014 151.236 23.0332 150.527 23.0332ZM151.248 21.2314C151.869 21.2314 152.361 21.0673 152.725 20.7392C153.088 20.4052 153.269 19.9863 153.269 19.4824V18.5508C153.123 18.6328 152.88 18.709 152.54 18.7793C152.201 18.8437 151.823 18.9082 151.406 18.9727C150.961 19.0429 150.583 19.1719 150.272 19.3594C149.968 19.541 149.816 19.8164 149.816 20.1856C149.816 20.5137 149.945 20.7715 150.203 20.959C150.466 21.1406 150.815 21.2314 151.248 21.2314Z" fill="#FAFAFA"/>
<mask id="mask0_1051_39" style="mask-type:luminance" maskUnits="userSpaceOnUse" x="164" y="4" width="25" height="25">
<path d="M188.25 4.5H164.25V28.5H188.25V4.5Z" fill="white"/>
</mask>
<g mask="url(#mask0_1051_39)">
<path d="M188.25 4.5H164.25V28.5H188.25V4.5Z" fill="black"/>
<path d="M180.727 8.21377L176.248 12.6916L171.772 8.2149C171.683 8.12587 171.562 8.07584 171.436 8.07577C171.31 8.07577 171.19 8.12572 171.1 8.21467L167.964 11.3511C167.875 11.4402 167.824 11.561 167.824 11.687C167.824 11.813 167.875 11.9338 167.964 12.0229L172.441 16.5002L167.964 20.977C167.785 21.1551 167.785 21.4705 167.964 21.649L171.1 24.7854C171.144 24.8296 171.196 24.8646 171.254 24.8885C171.312 24.9124 171.373 24.9247 171.436 24.9247C171.499 24.9247 171.56 24.9124 171.618 24.8884C171.676 24.8644 171.728 24.8294 171.772 24.7852L176.249 20.308L180.727 24.7861C180.817 24.8752 180.937 24.9252 181.063 24.9252C181.189 24.9252 181.31 24.8752 181.399 24.7861L184.535 21.6501C184.579 21.6059 184.615 21.5536 184.638 21.4959C184.662 21.4383 184.675 21.3765 184.675 21.3141C184.675 21.2517 184.662 21.1899 184.638 21.1323C184.615 21.0746 184.579 21.0223 184.535 20.9781L180.057 16.5002L184.535 12.0223C184.579 11.9782 184.614 11.9259 184.638 11.8682C184.662 11.8105 184.675 11.7487 184.675 11.6863C184.675 11.6239 184.662 11.5621 184.638 11.5045C184.614 11.4468 184.579 11.3944 184.535 11.3503L181.399 8.21377C181.309 8.12467 181.189 8.07457 181.063 8.07457C180.937 8.07457 180.816 8.12467 180.727 8.21377Z" fill="url(#paint0_linear_1051_39)"/>
</g>
</g>
<defs>
<linearGradient id="paint0_linear_1051_39" x1="169.532" y1="9.78255" x2="182.968" y2="23.2177" gradientUnits="userSpaceOnUse">
<stop stop-color="#D591F7"/>
<stop offset="1" stop-color="#3D72C4"/>
</linearGradient>
<clipPath id="clip0_1051_39">
<rect width="196.5" height="33" fill="white"/>
</clipPath>
</defs>
</svg>
