<svg width="192" height="33" viewBox="0 0 192 33" fill="none" xmlns="http://www.w3.org/2000/svg">
<g clip-path="url(#clip0_1050_29)">
<path d="M180.75 0.375H11.25C5.2439 0.375 0.375 5.2439 0.375 11.25V21.75C0.375 27.7561 5.2439 32.625 11.25 32.625H180.75C186.756 32.625 191.625 27.7561 191.625 21.75V11.25C191.625 5.2439 186.756 0.375 180.75 0.375Z" fill="black"/>
<path d="M180.75 0.375H11.25C5.2439 0.375 0.375 5.2439 0.375 11.25V21.75C0.375 27.7561 5.2439 32.625 11.25 32.625H180.75C186.756 32.625 191.625 27.7561 191.625 21.75V11.25C191.625 5.2439 186.756 0.375 180.75 0.375Z" stroke="#4F4F4F"/>
<path d="M9.61798 23.25V10.02H12.84C13.176 10.02 13.512 10.056 13.848 10.128C14.184 10.2 14.496 10.32 14.784 10.488C15.084 10.656 15.342 10.878 15.558 11.154C15.786 11.418 15.966 11.706 16.098 12.018C16.23 12.33 16.32 12.654 16.368 12.99C16.428 13.326 16.458 13.662 16.458 13.998C16.458 14.346 16.428 14.688 16.368 15.024C16.32 15.36 16.23 15.684 16.098 15.996C15.966 16.308 15.786 16.596 15.558 16.86C15.342 17.124 15.084 17.346 14.784 17.526C14.496 17.694 14.184 17.814 13.848 17.886C13.512 17.958 13.176 17.994 12.84 17.994H11.418V23.25H9.61798ZM11.418 16.41H12.84C13.032 16.41 13.218 16.386 13.398 16.338C13.578 16.278 13.74 16.188 13.884 16.068C14.04 15.948 14.166 15.804 14.262 15.636C14.358 15.468 14.436 15.294 14.496 15.114C14.556 14.934 14.592 14.754 14.604 14.574C14.628 14.382 14.64 14.19 14.64 13.998C14.64 13.818 14.628 13.632 14.604 13.44C14.592 13.248 14.556 13.062 14.496 12.882C14.436 12.702 14.358 12.534 14.262 12.378C14.166 12.21 14.04 12.066 13.884 11.946C13.74 11.826 13.578 11.742 13.398 11.694C13.218 11.634 13.032 11.604 12.84 11.604H11.418V16.41ZM21.75 23.394C21.426 23.394 21.102 23.364 20.778 23.304C20.454 23.244 20.148 23.136 19.86 22.98C19.572 22.824 19.314 22.626 19.086 22.386C18.87 22.134 18.69 21.858 18.546 21.558C18.414 21.258 18.318 20.946 18.258 20.622C18.21 20.298 18.186 19.974 18.186 19.65V17.49C18.186 17.166 18.21 16.842 18.258 16.518C18.318 16.194 18.414 15.882 18.546 15.582C18.69 15.282 18.87 15.012 19.086 14.772C19.314 14.52 19.572 14.316 19.86 14.16C20.148 14.004 20.454 13.896 20.778 13.836C21.102 13.776 21.426 13.746 21.75 13.746C22.074 13.746 22.398 13.776 22.722 13.836C23.046 13.896 23.352 14.004 23.64 14.16C23.928 14.316 24.18 14.52 24.396 14.772C24.624 15.012 24.804 15.282 24.936 15.582C25.08 15.882 25.176 16.194 25.224 16.518C25.284 16.842 25.314 17.166 25.314 17.49V19.65C25.314 19.974 25.284 20.298 25.224 20.622C25.176 20.946 25.08 21.258 24.936 21.558C24.804 21.858 24.624 22.134 24.396 22.386C24.18 22.626 23.928 22.824 23.64 22.98C23.352 23.136 23.046 23.244 22.722 23.304C22.398 23.364 22.074 23.394 21.75 23.394ZM21.75 21.81C22.014 21.81 22.266 21.756 22.506 21.648C22.758 21.528 22.956 21.36 23.1 21.144C23.256 20.928 23.358 20.694 23.406 20.442C23.466 20.178 23.496 19.914 23.496 19.65V17.49C23.496 17.226 23.466 16.968 23.406 16.716C23.358 16.452 23.256 16.212 23.1 15.996C22.956 15.78 22.758 15.618 22.506 15.51C22.266 15.39 22.014 15.33 21.75 15.33C21.486 15.33 21.228 15.39 20.976 15.51C20.736 15.618 20.538 15.78 20.382 15.996C20.238 16.212 20.136 16.452 20.076 16.716C20.028 16.968 20.004 17.226 20.004 17.49V19.65C20.004 19.914 20.028 20.178 20.076 20.442C20.136 20.694 20.238 20.928 20.382 21.144C20.538 21.36 20.736 21.528 20.976 21.648C21.228 21.756 21.486 21.81 21.75 21.81ZM28.248 23.25L26.682 13.89H28.5L29.094 21.558L29.994 16.518H31.506L32.406 21.558L33 13.89H34.818L33.252 23.25H31.722L30.75 18.408L29.778 23.25H28.248ZM39.786 23.394C39.462 23.394 39.132 23.364 38.796 23.304C38.472 23.244 38.166 23.136 37.878 22.98C37.59 22.824 37.332 22.626 37.104 22.386C36.888 22.134 36.708 21.864 36.564 21.576C36.42 21.276 36.318 20.964 36.258 20.64C36.21 20.304 36.186 19.974 36.186 19.65V17.49C36.186 17.166 36.21 16.842 36.258 16.518C36.318 16.194 36.414 15.882 36.546 15.582C36.69 15.282 36.87 15.012 37.086 14.772C37.314 14.52 37.572 14.316 37.86 14.16C38.148 14.004 38.454 13.896 38.778 13.836C39.102 13.776 39.426 13.746 39.75 13.746C40.074 13.746 40.398 13.776 40.722 13.836C41.046 13.896 41.352 14.004 41.64 14.16C41.928 14.316 42.18 14.52 42.396 14.772C42.624 15.012 42.804 15.282 42.936 15.582C43.08 15.882 43.176 16.194 43.224 16.518C43.284 16.842 43.314 17.166 43.314 17.49V19.362H38.004V19.65C38.004 19.914 38.028 20.178 38.076 20.442C38.136 20.706 38.244 20.946 38.4 21.162C38.556 21.378 38.76 21.54 39.012 21.648C39.264 21.756 39.522 21.81 39.786 21.81C39.978 21.81 40.17 21.792 40.362 21.756C40.554 21.72 40.728 21.648 40.884 21.54C41.052 21.432 41.184 21.294 41.28 21.126C41.388 20.958 41.448 20.772 41.46 20.568H43.278C43.254 20.856 43.194 21.132 43.098 21.396C43.014 21.66 42.888 21.906 42.72 22.134C42.564 22.362 42.372 22.56 42.144 22.728C41.928 22.896 41.688 23.034 41.424 23.142C41.16 23.238 40.89 23.304 40.614 23.34C40.338 23.376 40.062 23.394 39.786 23.394ZM41.496 17.778V17.49C41.496 17.226 41.466 16.968 41.406 16.716C41.358 16.452 41.256 16.212 41.1 15.996C40.956 15.78 40.758 15.618 40.506 15.51C40.266 15.39 40.014 15.33 39.75 15.33C39.486 15.33 39.228 15.39 38.976 15.51C38.736 15.618 38.538 15.78 38.382 15.996C38.238 16.212 38.136 16.452 38.076 16.716C38.028 16.968 38.004 17.226 38.004 17.49V17.778H41.496ZM46.392 23.25V13.89H48.21V15.69C48.282 15.45 48.378 15.216 48.498 14.988C48.63 14.748 48.786 14.532 48.966 14.34C49.146 14.148 49.356 14.004 49.596 13.908C49.848 13.8 50.106 13.746 50.37 13.746C50.598 13.746 50.82 13.782 51.036 13.854C51.252 13.914 51.444 14.022 51.612 14.178C51.792 14.322 51.936 14.496 52.044 14.7C52.152 14.892 52.236 15.096 52.296 15.312C52.356 15.528 52.398 15.75 52.422 15.978C52.446 16.206 52.458 16.434 52.458 16.662H50.64C50.64 16.506 50.628 16.356 50.604 16.212C50.592 16.056 50.55 15.912 50.478 15.78C50.406 15.636 50.298 15.528 50.154 15.456C50.022 15.372 49.884 15.33 49.74 15.33C49.524 15.33 49.326 15.384 49.146 15.492C48.978 15.6 48.834 15.744 48.714 15.924C48.606 16.092 48.516 16.278 48.444 16.482C48.384 16.674 48.336 16.872 48.3 17.076C48.264 17.268 48.24 17.466 48.228 17.67C48.216 17.874 48.21 18.078 48.21 18.282V23.25H46.392ZM57.786 23.394C57.462 23.394 57.132 23.364 56.796 23.304C56.472 23.244 56.166 23.136 55.878 22.98C55.59 22.824 55.332 22.626 55.104 22.386C54.888 22.134 54.708 21.864 54.564 21.576C54.42 21.276 54.318 20.964 54.258 20.64C54.21 20.304 54.186 19.974 54.186 19.65V17.49C54.186 17.166 54.21 16.842 54.258 16.518C54.318 16.194 54.414 15.882 54.546 15.582C54.69 15.282 54.87 15.012 55.086 14.772C55.314 14.52 55.572 14.316 55.86 14.16C56.148 14.004 56.454 13.896 56.778 13.836C57.102 13.776 57.426 13.746 57.75 13.746C58.074 13.746 58.398 13.776 58.722 13.836C59.046 13.896 59.352 14.004 59.64 14.16C59.928 14.316 60.18 14.52 60.396 14.772C60.624 15.012 60.804 15.282 60.936 15.582C61.08 15.882 61.176 16.194 61.224 16.518C61.284 16.842 61.314 17.166 61.314 17.49V19.362H56.004V19.65C56.004 19.914 56.028 20.178 56.076 20.442C56.136 20.706 56.244 20.946 56.4 21.162C56.556 21.378 56.76 21.54 57.012 21.648C57.264 21.756 57.522 21.81 57.786 21.81C57.978 21.81 58.17 21.792 58.362 21.756C58.554 21.72 58.728 21.648 58.884 21.54C59.052 21.432 59.184 21.294 59.28 21.126C59.388 20.958 59.448 20.772 59.46 20.568H61.278C61.254 20.856 61.194 21.132 61.098 21.396C61.014 21.66 60.888 21.906 60.72 22.134C60.564 22.362 60.372 22.56 60.144 22.728C59.928 22.896 59.688 23.034 59.424 23.142C59.16 23.238 58.89 23.304 58.614 23.34C58.338 23.376 58.062 23.394 57.786 23.394ZM59.496 17.778V17.49C59.496 17.226 59.466 16.968 59.406 16.716C59.358 16.452 59.256 16.212 59.1 15.996C58.956 15.78 58.758 15.618 58.506 15.51C58.266 15.39 58.014 15.33 57.75 15.33C57.486 15.33 57.228 15.39 56.976 15.51C56.736 15.618 56.538 15.78 56.382 15.996C56.238 16.212 56.136 16.452 56.076 16.716C56.028 16.968 56.004 17.226 56.004 17.49V17.778H59.496ZM65.994 23.394C65.706 23.394 65.418 23.352 65.13 23.268C64.842 23.184 64.584 23.046 64.356 22.854C64.128 22.662 63.936 22.44 63.78 22.188C63.636 21.936 63.516 21.672 63.42 21.396C63.336 21.108 63.276 20.82 63.24 20.532C63.204 20.232 63.186 19.938 63.186 19.65V17.49C63.186 17.202 63.204 16.914 63.24 16.626C63.276 16.326 63.336 16.038 63.42 15.762C63.516 15.474 63.636 15.204 63.78 14.952C63.936 14.7 64.128 14.478 64.356 14.286C64.584 14.094 64.842 13.956 65.13 13.872C65.418 13.788 65.706 13.746 65.994 13.746C66.258 13.746 66.516 13.782 66.768 13.854C67.02 13.914 67.248 14.022 67.452 14.178C67.656 14.334 67.83 14.52 67.974 14.736C68.13 14.952 68.256 15.18 68.352 15.42V10.02H70.17V23.25H68.352V21.72C68.256 21.96 68.13 22.188 67.974 22.404C67.83 22.62 67.656 22.806 67.452 22.962C67.248 23.118 67.02 23.226 66.768 23.286C66.516 23.358 66.258 23.394 65.994 23.394ZM66.732 21.81C66.9 21.81 67.068 21.786 67.236 21.738C67.404 21.69 67.554 21.612 67.686 21.504C67.818 21.396 67.926 21.27 68.01 21.126C68.106 20.97 68.178 20.814 68.226 20.658C68.274 20.49 68.304 20.322 68.316 20.154C68.34 19.986 68.352 19.818 68.352 19.65V17.49C68.352 17.322 68.34 17.154 68.316 16.986C68.304 16.818 68.274 16.656 68.226 16.5C68.178 16.332 68.106 16.176 68.01 16.032C67.926 15.876 67.818 15.744 67.686 15.636C67.554 15.528 67.404 15.45 67.236 15.402C67.068 15.354 66.9 15.33 66.732 15.33C66.468 15.33 66.216 15.39 65.976 15.51C65.736 15.618 65.538 15.78 65.382 15.996C65.238 16.212 65.136 16.452 65.076 16.716C65.028 16.968 65.004 17.226 65.004 17.49V19.65C65.004 19.914 65.028 20.178 65.076 20.442C65.136 20.694 65.238 20.928 65.382 21.144C65.538 21.36 65.736 21.528 65.976 21.648C66.216 21.756 66.468 21.81 66.732 21.81ZM85.506 23.394C85.242 23.394 84.984 23.358 84.732 23.286C84.48 23.226 84.252 23.118 84.048 22.962C83.844 22.806 83.664 22.62 83.508 22.404C83.364 22.188 83.244 21.96 83.148 21.72V23.25H81.33V10.02H83.148V15.42C83.244 15.18 83.364 14.952 83.508 14.736C83.664 14.52 83.844 14.334 84.048 14.178C84.252 14.022 84.48 13.914 84.732 13.854C84.984 13.782 85.242 13.746 85.506 13.746C85.794 13.746 86.082 13.788 86.37 13.872C86.658 13.956 86.916 14.094 87.144 14.286C87.372 14.478 87.558 14.7 87.702 14.952C87.858 15.204 87.978 15.474 88.062 15.762C88.158 16.038 88.224 16.326 88.26 16.626C88.296 16.914 88.314 17.202 88.314 17.49V19.65C88.314 19.938 88.296 20.232 88.26 20.532C88.224 20.82 88.158 21.108 88.062 21.396C87.978 21.672 87.858 21.936 87.702 22.188C87.558 22.44 87.372 22.662 87.144 22.854C86.916 23.046 86.658 23.184 86.37 23.268C86.082 23.352 85.794 23.394 85.506 23.394ZM84.768 21.81C85.032 21.81 85.284 21.756 85.524 21.648C85.764 21.528 85.956 21.36 86.1 21.144C86.256 20.928 86.358 20.694 86.406 20.442C86.466 20.178 86.496 19.914 86.496 19.65V17.49C86.496 17.226 86.466 16.968 86.406 16.716C86.358 16.452 86.256 16.212 86.1 15.996C85.956 15.78 85.764 15.618 85.524 15.51C85.284 15.39 85.032 15.33 84.768 15.33C84.6 15.33 84.432 15.354 84.264 15.402C84.096 15.45 83.946 15.528 83.814 15.636C83.682 15.744 83.568 15.876 83.472 16.032C83.388 16.176 83.322 16.332 83.274 16.5C83.226 16.656 83.19 16.818 83.166 16.986C83.154 17.154 83.148 17.322 83.148 17.49V19.65C83.148 19.818 83.154 19.986 83.166 20.154C83.19 20.322 83.226 20.49 83.274 20.658C83.322 20.814 83.388 20.97 83.472 21.126C83.568 21.27 83.682 21.396 83.814 21.504C83.946 21.612 84.096 21.69 84.264 21.738C84.432 21.786 84.6 21.81 84.768 21.81ZM91.77 27.12C91.89 26.7 92.01 26.28 92.13 25.86C92.25 25.452 92.37 25.044 92.49 24.636L92.832 23.358L90.114 13.89H91.986L93.786 20.874L95.514 13.89H97.386L93.642 27.12H91.77ZM108.33 23.25V10.02H110.148V15.654H113.352V10.02H115.17V23.25H113.352V17.238H110.148V23.25H108.33ZM117.6 23.25V21.666H119.976V15.474H117.852V13.89H121.776V21.666H123.9V23.25H117.6ZM120.84 12.54C120.66 12.54 120.48 12.516 120.3 12.468C120.12 12.408 119.964 12.318 119.832 12.198C119.712 12.066 119.622 11.91 119.562 11.73C119.514 11.55 119.49 11.37 119.49 11.19C119.49 11.01 119.514 10.83 119.562 10.65C119.622 10.47 119.712 10.32 119.832 10.2C119.964 10.068 120.12 9.978 120.3 9.93C120.48 9.87 120.66 9.84 120.84 9.84C121.02 9.84 121.2 9.87 121.38 9.93C121.56 9.978 121.71 10.068 121.83 10.2C121.962 10.32 122.052 10.47 122.1 10.65C122.16 10.83 122.19 11.01 122.19 11.19C122.19 11.37 122.16 11.55 122.1 11.73C122.052 11.91 121.962 12.066 121.83 12.198C121.71 12.318 121.56 12.408 121.38 12.468C121.2 12.516 121.02 12.54 120.84 12.54ZM126.618 23.25V10.02H128.418V18.012L131.28 13.89H133.386L130.218 18.174L133.386 23.25H131.37L129.21 19.542L128.418 20.604V23.25H126.618ZM135.618 23.25V10.02H137.418V18.012L140.28 13.89H142.386L139.218 18.174L142.386 23.25H140.37L138.21 19.542L137.418 20.604V23.25H135.618ZM146.724 23.394C146.496 23.394 146.262 23.37 146.022 23.322C145.794 23.286 145.578 23.208 145.374 23.088C145.17 22.968 144.99 22.818 144.834 22.638C144.678 22.458 144.552 22.26 144.456 22.044C144.36 21.828 144.288 21.606 144.24 21.378C144.204 21.138 144.186 20.904 144.186 20.676C144.186 20.364 144.222 20.052 144.294 19.74C144.378 19.428 144.516 19.152 144.708 18.912C144.9 18.66 145.128 18.45 145.392 18.282C145.656 18.102 145.938 17.964 146.238 17.868C146.538 17.772 146.844 17.706 147.156 17.67C147.468 17.634 147.78 17.616 148.092 17.616H149.352V16.878C149.352 16.662 149.316 16.452 149.244 16.248C149.184 16.044 149.07 15.87 148.902 15.726C148.746 15.582 148.56 15.48 148.344 15.42C148.14 15.36 147.936 15.33 147.732 15.33C147.528 15.33 147.33 15.354 147.138 15.402C146.946 15.438 146.772 15.516 146.616 15.636C146.46 15.744 146.334 15.888 146.238 16.068C146.154 16.248 146.112 16.434 146.112 16.626H144.294C144.294 16.35 144.336 16.074 144.42 15.798C144.504 15.522 144.624 15.27 144.78 15.042C144.936 14.802 145.122 14.598 145.338 14.43C145.566 14.262 145.812 14.124 146.076 14.016C146.34 13.908 146.61 13.836 146.886 13.8C147.162 13.764 147.444 13.746 147.732 13.746C148.02 13.746 148.308 13.77 148.596 13.818C148.896 13.854 149.178 13.932 149.442 14.052C149.718 14.172 149.97 14.328 150.198 14.52C150.426 14.712 150.612 14.934 150.756 15.186C150.912 15.438 151.02 15.714 151.08 16.014C151.14 16.302 151.17 16.59 151.17 16.878V23.25H149.352V21.792C149.244 22.044 149.1 22.278 148.92 22.494C148.74 22.698 148.53 22.872 148.29 23.016C148.062 23.148 147.81 23.244 147.534 23.304C147.27 23.364 147 23.394 146.724 23.394ZM147.444 21.81C147.696 21.81 147.942 21.774 148.182 21.702C148.434 21.63 148.65 21.516 148.83 21.36C149.01 21.192 149.142 20.988 149.226 20.748C149.31 20.508 149.352 20.262 149.352 20.01V19.2H148.092C147.936 19.2 147.78 19.206 147.624 19.218C147.468 19.23 147.312 19.254 147.156 19.29C147.012 19.326 146.868 19.374 146.724 19.434C146.592 19.494 146.466 19.578 146.346 19.686C146.226 19.782 146.136 19.902 146.076 20.046C146.028 20.19 146.004 20.34 146.004 20.496C146.004 20.688 146.034 20.874 146.094 21.054C146.166 21.222 146.268 21.372 146.4 21.504C146.544 21.624 146.706 21.708 146.886 21.756C147.078 21.792 147.264 21.81 147.444 21.81Z" fill="#FAFAFA"/>
<mask id="mask0_1050_29" style="mask-type:luminance" maskUnits="userSpaceOnUse" x="159" y="4" width="25" height="25">
<path d="M183.75 4.5H159.75V28.5H183.75V4.5Z" fill="white"/>
</mask>
<g mask="url(#mask0_1050_29)">
<path d="M183.75 4.5H159.75V28.5H183.75V4.5Z" fill="black"/>
<path d="M176.227 8.21377L171.748 12.6916L167.272 8.2149C167.183 8.12587 167.062 8.07584 166.936 8.07577C166.81 8.07577 166.69 8.12572 166.6 8.21467L163.464 11.3511C163.375 11.4402 163.324 11.561 163.324 11.687C163.324 11.813 163.375 11.9338 163.464 12.0229L167.941 16.5002L163.464 20.977C163.285 21.1551 163.285 21.4705 163.464 21.649L166.6 24.7854C166.644 24.8296 166.696 24.8646 166.754 24.8885C166.812 24.9124 166.873 24.9247 166.936 24.9247C166.999 24.9247 167.06 24.9124 167.118 24.8884C167.176 24.8644 167.228 24.8294 167.272 24.7852L171.749 20.308L176.227 24.7861C176.317 24.8752 176.437 24.9252 176.563 24.9252C176.689 24.9252 176.81 24.8752 176.899 24.7861L180.035 21.6501C180.079 21.6059 180.115 21.5536 180.138 21.4959C180.162 21.4383 180.175 21.3765 180.175 21.3141C180.175 21.2517 180.162 21.1899 180.138 21.1323C180.115 21.0746 180.079 21.0223 180.035 20.9781L175.557 16.5002L180.035 12.0223C180.079 11.9782 180.114 11.9259 180.138 11.8682C180.162 11.8105 180.175 11.7487 180.175 11.6863C180.175 11.6239 180.162 11.5621 180.138 11.5045C180.114 11.4468 180.079 11.3944 180.035 11.3503L176.899 8.21377C176.809 8.12467 176.689 8.07457 176.563 8.07457C176.437 8.07457 176.316 8.12467 176.227 8.21377Z" fill="url(#paint0_linear_1050_29)"/>
</g>
</g>
<defs>
<linearGradient id="paint0_linear_1050_29" x1="165.032" y1="9.78255" x2="178.468" y2="23.2177" gradientUnits="userSpaceOnUse">
<stop stop-color="#D591F7"/>
<stop offset="1" stop-color="#3D72C4"/>
</linearGradient>
<clipPath id="clip0_1050_29">
<rect width="192" height="33" fill="white"/>
</clipPath>
</defs>
</svg>
