<svg width="195" height="33" viewBox="0 0 195 33" fill="none" xmlns="http://www.w3.org/2000/svg">
<g clip-path="url(#clip0_1051_53)">
<path d="M183 0.375H11.25C5.2439 0.375 0.375 5.2439 0.375 11.25V21.75C0.375 27.7561 5.2439 32.625 11.25 32.625H183C189.006 32.625 193.875 27.7561 193.875 21.75V11.25C193.875 5.2439 189.006 0.375 183 0.375Z" fill="black"/>
<path d="M183 0.375H11.25C5.2439 0.375 0.375 5.2439 0.375 11.25V21.75C0.375 27.7561 5.2439 32.625 11.25 32.625H183C189.006 32.625 193.875 27.7561 193.875 21.75V11.25C193.875 5.2439 189.006 0.375 183 0.375Z" stroke="#4F4F4F"/>
<path d="M20.4229 9.77932V22.875H17.7246V12.0996H12.1611V22.875H9.4541V9.77932H20.4229ZM22.33 26.5488V13.5937H24.8877V14.8506H24.9141C25.2012 14.3701 25.5791 14.0098 26.0479 13.7695C26.5225 13.5234 27.0615 13.4004 27.665 13.4004C28.456 13.4004 29.1504 13.6054 29.7481 14.0156C30.3516 14.4199 30.8203 14.9854 31.1543 15.7119C31.4941 16.4385 31.6641 17.2764 31.6641 18.2256C31.6641 19.1923 31.4971 20.0391 31.1631 20.7656C30.8291 21.4921 30.3604 22.0576 29.7568 22.4619C29.1592 22.8662 28.456 23.0683 27.6475 23.0683C26.3877 23.0683 25.4883 22.541 24.9492 21.4863H24.9229V26.5488H22.33ZM26.9795 20.959C27.6064 20.959 28.1074 20.7217 28.4824 20.2471C28.8633 19.7666 29.0537 19.0927 29.0537 18.2256C29.0537 17.3584 28.8633 16.6875 28.4824 16.2129C28.1074 15.7325 27.6064 15.4921 26.9795 15.4921C26.3233 15.4921 25.7959 15.7412 25.3975 16.2392C24.999 16.7373 24.7998 17.3994 24.7998 18.2256C24.7998 19.0576 24.999 19.7227 25.3975 20.2207C25.7959 20.7129 26.3233 20.959 26.9795 20.959ZM36.0673 23.0332C35.1416 23.0332 34.3769 22.8017 33.7734 22.3389C33.1758 21.876 32.8769 21.1816 32.8769 20.2558C32.8769 19.5586 33.0439 19.0137 33.3779 18.6211C33.7119 18.2227 34.1543 17.9326 34.705 17.751C35.2558 17.5693 35.8535 17.4492 36.4981 17.3906C37.3477 17.3027 37.9423 17.2148 38.2822 17.1269C38.6221 17.0391 38.792 16.8457 38.792 16.5469V16.4854C38.792 16.1455 38.6572 15.8672 38.3877 15.6504C38.1181 15.4336 37.7461 15.3252 37.2715 15.3252C36.791 15.3252 36.4014 15.4365 36.1025 15.6592C35.8037 15.8818 35.6396 16.1719 35.6104 16.5293H33.1758C33.2344 15.5742 33.6269 14.8154 34.3535 14.2529C35.08 13.6846 36.0791 13.4004 37.3506 13.4004C38.6221 13.4004 39.6064 13.6846 40.3037 14.2529C41.001 14.8154 41.3496 15.5918 41.3496 16.582V22.875H38.8183V21.5654H38.7832C38.5371 22.0166 38.2002 22.374 37.7725 22.6377C37.3447 22.9014 36.7764 23.0332 36.0673 23.0332ZM36.7881 21.2314C37.4092 21.2314 37.9014 21.0673 38.2646 20.7392C38.6279 20.4052 38.8096 19.9863 38.8096 19.4824V18.5508C38.6631 18.6328 38.4199 18.709 38.08 18.7793C37.7402 18.8437 37.3623 18.9082 36.9463 18.9727C36.501 19.0429 36.1231 19.1719 35.8125 19.3594C35.5078 19.541 35.3554 19.8164 35.3554 20.1856C35.3554 20.5137 35.4844 20.7715 35.7421 20.959C36.0058 21.1406 36.3545 21.2314 36.7881 21.2314ZM43.1777 22.875V13.5937H45.7705V20.7129H49.33V13.5937H51.9141V22.875H43.1777ZM50.6308 25.6875V22.875H49.875V20.5635H53.2588L53.1533 25.6875H50.6308ZM54.6387 22.875V13.5937H57.2314V17.1445H58.831C59.042 16.0019 59.5576 15.0908 60.3779 14.4111C61.2041 13.7256 62.2295 13.3828 63.4541 13.3828C64.3916 13.3828 65.2119 13.5879 65.915 13.9981C66.624 14.4023 67.1748 14.9677 67.5673 15.6943C67.9658 16.4209 68.165 17.2705 68.165 18.2431C68.165 19.21 67.9658 20.0566 67.5673 20.7832C67.1748 21.5098 66.624 22.0752 65.915 22.4795C65.2119 22.8838 64.3916 23.0859 63.4541 23.0859C62.2236 23.0859 61.1953 22.7461 60.3691 22.0664C59.5488 21.3808 59.0361 20.4639 58.831 19.3154H57.2314V22.875H54.6387ZM63.4541 20.9854C64.081 20.9854 64.5879 20.7451 64.9746 20.2646C65.3613 19.7783 65.5546 19.1045 65.5546 18.2431C65.5546 17.376 65.3613 16.6992 64.9746 16.2129C64.5879 15.7266 64.081 15.4834 63.4541 15.4834C62.8271 15.4834 62.3173 15.7266 61.9248 16.2129C61.5381 16.6992 61.3447 17.376 61.3447 18.2431C61.3447 19.1045 61.5381 19.7783 61.9248 20.2646C62.3115 20.7451 62.8213 20.9854 63.4541 20.9854ZM73.8516 23.0859C72.9199 23.0859 72.1054 22.8838 71.4082 22.4795C70.7109 22.0693 70.166 21.501 69.7734 20.7744C69.3867 20.042 69.1933 19.1983 69.1933 18.2431C69.1933 17.2822 69.3867 16.4385 69.7734 15.7119C70.166 14.9795 70.7109 14.4082 71.4082 13.9981C72.1054 13.5879 72.9199 13.3828 73.8516 13.3828C74.666 13.3828 75.39 13.541 76.0222 13.8575C76.6612 14.168 77.1712 14.6016 77.5515 15.1582C77.9385 15.709 78.1582 16.3447 78.2107 17.0654H75.7057C75.636 16.5908 75.4425 16.207 75.126 15.9141C74.8154 15.6211 74.4023 15.4746 73.8867 15.4746C73.3535 15.4746 72.9111 15.6445 72.5596 15.9844C72.2139 16.3242 71.9883 16.7959 71.8828 17.3994H75.012V18.9727H71.8564C71.956 19.5996 72.1816 20.0947 72.5332 20.458C72.8848 20.8154 73.3359 20.9941 73.8867 20.9941C74.4082 20.9941 74.8183 20.8477 75.117 20.5546C75.4162 20.2617 75.6067 19.8721 75.6885 19.3858H78.2107C78.1755 20.1006 77.9677 20.7363 77.5867 21.2929C77.2057 21.8496 76.6935 22.2891 76.0485 22.6113C75.4102 22.9277 74.6777 23.0859 73.8516 23.0859ZM86.0595 13.5937V17.1445H89.8035V13.5937H92.388V22.875H89.8035V19.3154H86.0595V22.875H83.4667V13.5937H86.0595ZM97.0635 23.0332C96.138 23.0332 95.373 22.8017 94.7692 22.3389C94.1715 21.876 93.873 21.1816 93.873 20.2558C93.873 19.5586 94.0402 19.0137 94.374 18.6211C94.7077 18.2227 95.1502 17.9326 95.7015 17.751C96.252 17.5693 96.8497 17.4492 97.494 17.3906C98.3437 17.3027 98.9385 17.2148 99.2782 17.1269C99.618 17.0391 99.7882 16.8457 99.7882 16.5469V16.4854C99.7882 16.1455 99.6532 15.8672 99.384 15.6504C99.114 15.4336 98.742 15.3252 98.2672 15.3252C97.7872 15.3252 97.3972 15.4365 97.0987 15.6592C96.7995 15.8818 96.636 16.1719 96.6067 16.5293H94.1715C94.2307 15.5742 94.623 14.8154 95.3497 14.2529C96.0765 13.6846 97.0755 13.4004 98.3467 13.4004C99.618 13.4004 100.603 13.6846 101.299 14.2529C101.997 14.8154 102.346 15.5918 102.346 16.582V22.875H99.8145V21.5654H99.7792C99.5332 22.0166 99.1965 22.374 98.7682 22.6377C98.3407 22.9014 97.7722 23.0332 97.0635 23.0332ZM97.7842 21.2314C98.4052 21.2314 98.8972 21.0673 99.261 20.7392C99.624 20.4052 99.8055 19.9863 99.8055 19.4824V18.5508C99.6592 18.6328 99.4162 18.709 99.0765 18.7793C98.736 18.8437 98.3587 18.9082 97.9425 18.9727C97.497 19.0429 97.119 19.1719 96.8085 19.3594C96.504 19.541 96.3517 19.8164 96.3517 20.1856C96.3517 20.5137 96.4807 20.7715 96.738 20.959C97.002 21.1406 97.3507 21.2314 97.7842 21.2314ZM108.103 22.875V9.77932H110.809V15.0352H116.373V9.77932H119.071V22.875H116.373V17.3554H110.809V22.875H108.103ZM120.979 22.875V13.5937H123.571V22.875H120.979ZM122.27 12.4248C121.843 12.4248 121.488 12.2959 121.207 12.0381C120.925 11.7744 120.785 11.4433 120.785 11.0449C120.785 10.6465 120.925 10.3183 121.207 10.0606C121.488 9.79687 121.843 9.66502 122.27 9.66502C122.692 9.66502 123.044 9.79687 123.325 10.0606C123.607 10.3183 123.747 10.6465 123.747 11.0449C123.747 11.4433 123.607 11.7744 123.325 12.0381C123.044 12.2959 122.692 12.4248 122.27 12.4248ZM125.408 22.875V9.77932H128.001V17.1445H128.027L131.279 13.5937H134.32L130.69 17.6192L134.514 22.875H131.482L128.748 19.1045L128.001 19.9306V22.875H125.408ZM135.322 22.875V9.77932H137.915V17.1445H137.941L141.193 13.5937H144.234L140.605 17.6192L144.427 22.875H141.395L138.662 19.1045L137.915 19.9306V22.875H135.322ZM148.075 23.0332C147.149 23.0332 146.385 22.8017 145.781 22.3389C145.183 21.876 144.885 21.1816 144.885 20.2558C144.885 19.5586 145.051 19.0137 145.386 18.6211C145.72 18.2227 146.162 17.9326 146.713 17.751C147.264 17.5693 147.861 17.4492 148.506 17.3906C149.356 17.3027 149.95 17.2148 150.29 17.1269C150.63 17.0391 150.799 16.8457 150.799 16.5469V16.4854C150.799 16.1455 150.665 15.8672 150.395 15.6504C150.126 15.4336 149.754 15.3252 149.279 15.3252C148.798 15.3252 148.409 15.4365 148.11 15.6592C147.811 15.8818 147.647 16.1719 147.618 16.5293H145.183C145.242 15.5742 145.635 14.8154 146.361 14.2529C147.088 13.6846 148.087 13.4004 149.359 13.4004C150.63 13.4004 151.614 13.6846 152.311 14.2529C153.009 14.8154 153.358 15.5918 153.358 16.582V22.875H150.826V21.5654H150.791C150.545 22.0166 150.208 22.374 149.78 22.6377C149.353 22.9014 148.784 23.0332 148.075 23.0332ZM148.796 21.2314C149.417 21.2314 149.909 21.0673 150.272 20.7392C150.636 20.4052 150.817 19.9863 150.817 19.4824V18.5508C150.671 18.6328 150.427 18.709 150.088 18.7793C149.748 18.8437 149.37 18.9082 148.954 18.9727C148.509 19.0429 148.131 19.1719 147.82 19.3594C147.516 19.541 147.363 19.8164 147.363 20.1856C147.363 20.5137 147.492 20.7715 147.75 20.959C148.014 21.1406 148.362 21.2314 148.796 21.2314Z" fill="#FAFAFA"/>
<mask id="mask0_1051_53" style="mask-type:luminance" maskUnits="userSpaceOnUse" x="162" y="4" width="24" height="25">
<path d="M186 4.5H162V28.5H186V4.5Z" fill="white"/>
</mask>
<g mask="url(#mask0_1051_53)">
<path d="M186 4.5H162V28.5H186V4.5Z" fill="black"/>
<path d="M178.477 8.21378L173.999 12.6916L169.522 8.2149C169.433 8.12588 169.312 8.07585 169.187 8.07578C169.061 8.07578 168.94 8.12572 168.851 8.21467L165.714 11.3511C165.625 11.4402 165.575 11.561 165.575 11.687C165.575 11.813 165.625 11.9338 165.714 12.0229L170.191 16.5002L165.714 20.9771C165.536 21.1551 165.536 21.4705 165.714 21.649L168.851 24.7854C168.894 24.8296 168.947 24.8646 169.004 24.8885C169.062 24.9125 169.124 24.9247 169.187 24.9247C169.249 24.9247 169.31 24.9124 169.368 24.8885C169.426 24.8645 169.478 24.8294 169.522 24.7852L173.999 20.3081L178.478 24.7861C178.567 24.8752 178.688 24.9252 178.814 24.9252C178.94 24.9252 179.06 24.8752 179.15 24.7861L182.285 21.6501C182.33 21.6059 182.364 21.5536 182.388 21.4959C182.412 21.4383 182.425 21.3765 182.425 21.3141C182.425 21.2517 182.412 21.1899 182.388 21.1323C182.364 21.0746 182.33 21.0223 182.285 20.9781L177.807 16.5002L182.285 12.0224C182.329 11.9783 182.364 11.9259 182.388 11.8682C182.412 11.8105 182.424 11.7488 182.424 11.6864C182.424 11.624 182.412 11.5621 182.388 11.5045C182.364 11.4468 182.329 11.3944 182.285 11.3503L179.149 8.21378C179.06 8.12468 178.939 8.07457 178.813 8.07457C178.687 8.07457 178.566 8.12468 178.477 8.21378Z" fill="url(#paint0_linear_1051_53)"/>
</g>
</g>
<defs>
<linearGradient id="paint0_linear_1051_53" x1="167.282" y1="9.78255" x2="180.718" y2="23.2177" gradientUnits="userSpaceOnUse">
<stop stop-color="#D591F7"/>
<stop offset="1" stop-color="#3D72C4"/>
</linearGradient>
<clipPath id="clip0_1051_53">
<rect width="194.25" height="33" fill="white"/>
</clipPath>
</defs>
</svg>
