<svg width="121" height="40" viewBox="0 0 121 40" fill="none" xmlns="http://www.w3.org/2000/svg">
<rect x="0.5" y="0.5" width="120" height="39" rx="3.5" fill="#F2F2F2"/>
<rect x="0.5" y="0.5" width="120" height="39" rx="3.5" stroke="#373737"/>
<path d="M7.17 17.35V14.88H7.72C8.16 14.33 8.34 12.64 8.34 9.73V9H13.1V14.88H13.92V17.35H12.67V16H8.42V17.35H7.17ZM11.81 14.88V10.11H9.6V10.22C9.58 12.53 9.37 14.04 8.97 14.88H11.81ZM17.231 16.09C15.631 16.09 14.481 15 14.481 13.47V13.33C14.481 11.8 15.631 10.71 17.231 10.71H17.311C18.911 10.71 20.061 11.8 20.061 13.33V13.47C20.061 15 18.911 16.09 17.311 16.09H17.231ZM17.241 15.11H17.301C18.151 15.11 18.771 14.42 18.771 13.45V13.35C18.771 12.38 18.161 11.69 17.301 11.69H17.241C16.391 11.69 15.781 12.38 15.781 13.35V13.45C15.781 14.42 16.391 15.11 17.241 15.11ZM23.5959 16.08C22.0259 16.08 20.9459 15 20.9459 13.47V13.31C20.9459 11.8 22.0659 10.72 23.5759 10.72H23.6359C24.6459 10.72 25.4159 11.18 25.8759 11.91L24.9559 12.52C24.6759 11.99 24.2459 11.71 23.6559 11.71H23.6259C22.7659 11.71 22.2359 12.32 22.2359 13.35V13.45C22.2359 14.44 22.8259 15.07 23.6759 15.07H23.7259C24.3259 15.07 24.7459 14.75 25.0159 14.26L25.9159 14.93C25.4359 15.64 24.6759 16.08 23.6659 16.08H23.5959ZM27.9102 16V11.82H26.3402V10.8H30.7202V11.82H29.1502V16H27.9102ZM32.4467 18.01C32.1667 18.01 31.7767 17.97 31.4867 17.82V16.76C31.7267 16.88 31.9567 16.96 32.2067 16.96C32.6267 16.96 32.9667 16.69 33.2267 16.23L30.9767 10.8H32.2967L33.8267 14.79H33.8967L35.1667 10.8H36.4267L34.5167 16.29C34.2267 17.13 33.7067 18.01 32.4467 18.01ZM37.2129 16V10.8H42.0429V16H40.8029V11.8H38.4529V16H37.2129ZM43.541 16V10.8H44.781V12.78H47.141V10.8H48.381V16H47.141V13.78H44.781V16H43.541ZM52.2489 16.09C50.6689 16.09 49.5689 15.03 49.5689 13.5V13.36C49.5689 11.83 50.6989 10.71 52.2289 10.71H52.2889C53.7289 10.71 54.7689 11.71 54.7689 13.11V13.78H50.7989V13.79C50.8889 14.54 51.4889 15.05 52.3289 15.05H52.3789C53.0189 15.05 53.5989 14.76 53.8989 14.38L54.5889 15.13C54.0989 15.72 53.1989 16.09 52.3389 16.09H52.2489ZM50.8289 12.95H53.5889C53.5289 12.21 52.9989 11.68 52.2389 11.68H52.2289C51.5089 11.68 50.9689 12.18 50.8289 12.95ZM58.6387 16V10.8H61.3087C62.2787 10.8 62.9687 11.35 62.9687 12.12V12.29C62.9687 12.7 62.7487 13.04 62.3487 13.29C62.8987 13.51 63.2187 13.93 63.2187 14.43V14.6C63.2187 15.42 62.4787 16 61.4387 16H58.6387ZM59.8287 12.95H60.9687C61.4587 12.95 61.7687 12.72 61.7687 12.37V12.28C61.7687 11.93 61.4587 11.7 60.9787 11.7H59.8287V12.95ZM59.8287 15.1H61.1487C61.6587 15.1 62.0087 14.85 62.0087 14.49V14.38C62.0087 14 61.6687 13.75 61.1587 13.75H59.8287V15.1ZM9.842 31V23.384H7.294V21.2H14.938V23.384H12.404V31H9.842ZM18.5054 31.168C16.1814 31.168 14.5714 29.712 14.5714 27.486V27.234C14.5714 25.12 16.2234 23.552 18.4214 23.552H18.5894C20.6614 23.552 22.2014 24.98 22.2014 26.856V27.962H16.9094V27.976C17.0214 28.802 17.6934 29.292 18.6454 29.292H18.7714C19.5834 29.292 20.3394 28.942 20.7874 28.508L21.8794 30.062C21.1794 30.678 19.8634 31.168 18.7574 31.168H18.5054ZM16.9654 26.604H19.9054C19.8494 25.82 19.3174 25.246 18.5194 25.246H18.4774C17.7494 25.246 17.1614 25.75 16.9654 26.604ZM23.5353 31V20.92H25.9713V31H23.5353ZM31.1929 31.168C28.8689 31.168 27.2589 29.712 27.2589 27.486V27.234C27.2589 25.12 28.9109 23.552 31.1089 23.552H31.2769C33.3489 23.552 34.8889 24.98 34.8889 26.856V27.962H29.5969V27.976C29.7089 28.802 30.3809 29.292 31.3329 29.292H31.4589C32.2709 29.292 33.0269 28.942 33.4749 28.508L34.5669 30.062C33.8669 30.678 32.5509 31.168 31.4449 31.168H31.1929ZM29.6529 26.604H32.5929C32.5369 25.82 32.0049 25.246 31.2069 25.246H31.1649C30.4369 25.246 29.8489 25.75 29.6529 26.604ZM35.8308 26.296V26.184C35.8308 24.56 37.3008 23.552 39.2748 23.552H39.6388C40.0308 23.552 40.3948 23.608 40.7308 23.692C40.8708 23.118 41.0108 22.768 41.1508 22.572H43.2928L42.3408 24.504C42.7888 24.938 43.0548 25.498 43.0548 26.17V26.282C43.0548 27.78 41.5848 28.886 39.6108 28.886H39.4568C39.4008 28.886 39.3308 28.886 39.2748 28.872V29.586C39.3308 29.586 39.4148 29.586 39.4708 29.586H40.0028C41.9488 29.586 43.4328 30.44 43.4328 31.686V31.854C43.4328 33.114 41.9348 33.982 39.9188 33.982H39.3028C37.3008 33.982 35.7888 33.128 35.7888 31.868V31.644C35.7888 30.818 36.5168 30.09 37.5108 29.726V28.564C36.5308 28.116 35.8308 27.276 35.8308 26.296ZM38.1968 26.226V26.436C38.1968 27.038 38.7848 27.43 39.3868 27.43H39.6108C40.2128 27.43 40.8008 26.982 40.8008 26.436V26.226C40.8008 25.638 40.2128 25.232 39.5968 25.232H39.3868C38.7848 25.232 38.1968 25.638 38.1968 26.226ZM38.1548 31.644V31.714C38.1548 32.12 38.6168 32.386 39.2888 32.386H39.8908C40.5908 32.386 41.0808 32.106 41.0808 31.714V31.644C41.0808 31.252 40.5908 30.972 39.8908 30.972H39.2888C38.6168 30.972 38.1548 31.238 38.1548 31.644ZM44.3302 31V23.72H46.2622C46.3602 24.014 46.4582 24.504 46.4722 24.798C47.0322 24.126 47.8862 23.72 48.9222 23.72H49.1462V25.974C48.9782 25.918 48.7262 25.862 48.5162 25.862C47.3542 25.862 46.7662 26.394 46.7662 27.178V31H44.3302ZM52.2541 31.168C50.7701 31.168 49.7201 30.3 49.7201 29.012V28.858C49.7201 27.304 51.1621 26.492 54.0461 26.492H54.5501V26.366C54.5501 25.806 54.1721 25.386 53.3461 25.386H53.2761C52.5761 25.386 51.7641 25.638 50.9661 26.072L50.0561 24.42C50.9241 23.888 52.1841 23.552 53.4021 23.552H53.5561C55.5581 23.552 56.8041 24.63 56.8041 26.492V29.18C56.8041 29.824 56.9161 30.37 57.0561 31H54.8161C54.7321 30.762 54.6621 30.496 54.6201 30.174C54.1441 30.72 53.3321 31.168 52.2541 31.168ZM52.9541 29.404C53.5141 29.404 54.1441 29.18 54.5641 28.746V27.78H54.0321C52.7021 27.78 52.0161 28.116 52.0161 28.69V28.746C52.0161 29.124 52.3941 29.404 52.9541 29.404ZM58.4943 31V23.72H60.4263C60.5243 24.014 60.6223 24.532 60.6363 24.826C61.2243 24.07 62.0783 23.552 63.0163 23.552H63.0303C64.0383 23.552 64.7663 24.028 65.1443 24.84C65.7323 24.056 66.6003 23.538 67.5663 23.538C69.0923 23.538 69.9743 24.602 69.9743 26.352V31H67.5383V26.786C67.5383 25.778 67.2303 25.54 66.5863 25.526H66.5723C65.9143 25.554 65.4523 26.03 65.4523 27.108V31H63.0163V26.8C63.0163 25.792 62.7083 25.554 62.0643 25.54H62.0503C61.3923 25.568 60.9303 26.044 60.9303 27.122V31H58.4943Z" fill="black"/>
<path fill-rule="evenodd" clip-rule="evenodd" d="M104.602 12.1146C104.859 12.0062 105.141 11.9689 105.417 12.0064C105.694 12.0439 105.956 12.1549 106.175 12.3278C106.395 12.5007 106.563 12.7293 106.664 12.9897C106.765 13.25 106.795 13.5327 106.749 13.8083L104.387 28.1385C104.158 29.5208 102.641 30.3135 101.373 29.625C100.313 29.049 98.738 28.1615 97.3214 27.2354C96.613 26.7719 94.4432 25.2875 94.7099 24.2312C94.9391 23.3281 98.5849 19.9344 100.668 17.9167C101.486 17.124 101.113 16.6667 100.147 17.3958C97.7495 19.2062 93.8995 21.9594 92.6266 22.7344C91.5037 23.4177 90.9182 23.5344 90.2182 23.4177C88.9412 23.2052 87.7568 22.876 86.7901 22.475C85.4839 21.9333 85.5474 20.1375 86.7891 19.6146L104.602 12.1146Z" fill="black"/>
</svg>
