<svg width="121" height="40" viewBox="0 0 121 40" fill="none" xmlns="http://www.w3.org/2000/svg">
<rect x="0.5" y="0.5" width="120" height="39" rx="3.5" fill="url(#paint0_radial_1193_223)"/>
<rect x="0.5" y="0.5" width="120" height="39" rx="3.5" stroke="#373737"/>
<path d="M7.17 16.35V13.88H7.72C8.16 13.33 8.34 11.64 8.34 8.73V8H13.1V13.88H13.92V16.35H12.67V15H8.42V16.35H7.17ZM11.81 13.88V9.11H9.6V9.22C9.58 11.53 9.37 13.04 8.97 13.88H11.81ZM17.231 15.09C15.631 15.09 14.481 14 14.481 12.47V12.33C14.481 10.8 15.631 9.71 17.231 9.71H17.311C18.911 9.71 20.061 10.8 20.061 12.33V12.47C20.061 14 18.911 15.09 17.311 15.09H17.231ZM17.241 14.11H17.301C18.151 14.11 18.771 13.42 18.771 12.45V12.35C18.771 11.38 18.161 10.69 17.301 10.69H17.241C16.391 10.69 15.781 11.38 15.781 12.35V12.45C15.781 13.42 16.391 14.11 17.241 14.11ZM23.5959 15.08C22.0259 15.08 20.9459 14 20.9459 12.47V12.31C20.9459 10.8 22.0659 9.72 23.5759 9.72H23.6359C24.6459 9.72 25.4159 10.18 25.8759 10.91L24.9559 11.52C24.6759 10.99 24.2459 10.71 23.6559 10.71H23.6259C22.7659 10.71 22.2359 11.32 22.2359 12.35V12.45C22.2359 13.44 22.8259 14.07 23.6759 14.07H23.7259C24.3259 14.07 24.7459 13.75 25.0159 13.26L25.9159 13.93C25.4359 14.64 24.6759 15.08 23.6659 15.08H23.5959ZM27.9102 15V10.82H26.3402V9.8H30.7202V10.82H29.1502V15H27.9102ZM32.4467 17.01C32.1667 17.01 31.7767 16.97 31.4867 16.82V15.76C31.7267 15.88 31.9567 15.96 32.2067 15.96C32.6267 15.96 32.9667 15.69 33.2267 15.23L30.9767 9.8H32.2967L33.8267 13.79H33.8967L35.1667 9.8H36.4267L34.5167 15.29C34.2267 16.13 33.7067 17.01 32.4467 17.01ZM37.2129 15V9.8H42.0429V15H40.8029V10.8H38.4529V15H37.2129ZM43.541 15V9.8H44.781V11.78H47.141V9.8H48.381V15H47.141V12.78H44.781V15H43.541ZM52.2489 15.09C50.6689 15.09 49.5689 14.03 49.5689 12.5V12.36C49.5689 10.83 50.6989 9.71 52.2289 9.71H52.2889C53.7289 9.71 54.7689 10.71 54.7689 12.11V12.78H50.7989V12.79C50.8889 13.54 51.4889 14.05 52.3289 14.05H52.3789C53.0189 14.05 53.5989 13.76 53.8989 13.38L54.5889 14.13C54.0989 14.72 53.1989 15.09 52.3389 15.09H52.2489ZM50.8289 11.95H53.5889C53.5289 11.21 52.9989 10.68 52.2389 10.68H52.2289C51.5089 10.68 50.9689 11.18 50.8289 11.95ZM58.6387 15V9.8H59.8787V11.78H62.2387V9.8H63.4787V15H62.2387V12.78H59.8787V15H58.6387ZM66.4266 15.1C65.3466 15.1 64.6066 14.47 64.6066 13.55V13.48C64.6066 12.37 65.6566 11.79 67.7466 11.79H68.1666V11.56C68.1666 11.06 67.7766 10.72 67.0866 10.72H67.0566C66.5166 10.72 65.8866 10.92 65.3666 11.25L64.8566 10.35C65.4966 9.95 66.2966 9.69 67.1266 9.69H67.1866C68.5066 9.69 69.3366 10.41 69.3366 11.58V13.93C69.3366 14.29 69.4166 14.66 69.5166 15H68.3366C68.2766 14.84 68.2266 14.61 68.1966 14.38C67.7566 14.82 67.1366 15.1 66.4266 15.1ZM66.6766 14.1C67.2566 14.1 67.8066 13.85 68.1666 13.46V12.59H67.8166C66.4466 12.59 65.8066 12.87 65.8066 13.42V13.46C65.8066 13.83 66.1566 14.1 66.6766 14.1ZM10.248 32V23.296H7.336V20.8H16.072V23.296H13.176V32H10.248ZM20.277 32.192C17.621 32.192 15.653 30.416 15.653 28.032V27.648C15.653 25.264 17.621 23.488 20.277 23.488H20.453C23.125 23.488 25.093 25.264 25.093 27.648V28.032C25.093 30.416 23.125 32.192 20.453 32.192H20.277ZM20.293 30.224H20.453C21.429 30.224 22.197 29.264 22.197 27.936V27.744C22.197 26.416 21.445 25.456 20.453 25.456H20.293C19.301 25.456 18.533 26.416 18.533 27.744V27.936C18.533 29.264 19.301 30.224 20.293 30.224ZM26.5694 32V20.48H29.3534V32H26.5694ZM35.4489 32.192C32.7929 32.192 30.8249 30.416 30.8249 28.032V27.648C30.8249 25.264 32.7929 23.488 35.4489 23.488H35.6249C38.2969 23.488 40.2649 25.264 40.2649 27.648V28.032C40.2649 30.416 38.2969 32.192 35.6249 32.192H35.4489ZM35.4649 30.224H35.6249C36.6009 30.224 37.3689 29.264 37.3689 27.936V27.744C37.3689 26.416 36.6169 25.456 35.6249 25.456H35.4649C34.4729 25.456 33.7049 26.416 33.7049 27.744V27.936C33.7049 29.264 34.4729 30.224 35.4649 30.224ZM41.7413 32V20.48H44.5253V27.04H44.7173L47.4373 23.68H50.4133L47.0213 27.488L50.3813 32H47.2293L44.7013 28.24H44.5253V32H41.7413ZM53.6721 32.192C51.9761 32.192 50.7761 31.2 50.7761 29.728V29.552C50.7761 27.776 52.4241 26.848 55.7201 26.848H56.2961V26.704C56.2961 26.064 55.8641 25.584 54.9201 25.584H54.8401C54.0401 25.584 53.1121 25.872 52.2001 26.368L51.1601 24.48C52.1521 23.872 53.5921 23.488 54.9841 23.488H55.1601C57.4481 23.488 58.8721 24.72 58.8721 26.848V29.92C58.8721 30.656 59.0001 31.28 59.1601 32H56.6001C56.5041 31.728 56.4241 31.424 56.3761 31.056C55.8321 31.68 54.9041 32.192 53.6721 32.192ZM54.4721 30.176C55.1121 30.176 55.8321 29.92 56.3121 29.424V28.32H55.7041C54.1841 28.32 53.4001 28.704 53.4001 29.36V29.424C53.4001 29.856 53.8321 30.176 54.4721 30.176Z" fill="white"/>
<rect x="84" y="7.5" width="25" height="25" rx="2" fill="white"/>
<path d="M95 27.5H88V25.5H90V14.5H88V12.5H95V14.5H93V18.5H100V14.5H98V12.5H105V14.5H103V25.5H105V27.5H98V25.5H100V20.5H93V25.5H95V27.5Z" fill="#477220"/>
<defs>
<radialGradient id="paint0_radial_1193_223" cx="0" cy="0" r="1" gradientUnits="userSpaceOnUse" gradientTransform="translate(96.5 20) rotate(-180) scale(58.5 66.8198)">
<stop stop-color="#2C4614"/>
<stop offset="1" stop-color="#18181B"/>
</radialGradient>
</defs>
</svg>
