<svg width="121" height="40" viewBox="0 0 121 40" fill="none" xmlns="http://www.w3.org/2000/svg">
<rect x="0.5" y="0.5" width="120" height="39" rx="3.5" fill="#F2F2F2"/>
<rect x="0.5" y="0.5" width="120" height="39" rx="3.5" stroke="#373737"/>
<path d="M7.17 16.35V13.88H7.72C8.16 13.33 8.34 11.64 8.34 8.73V8H13.1V13.88H13.92V16.35H12.67V15H8.42V16.35H7.17ZM11.81 13.88V9.11H9.6V9.22C9.58 11.53 9.37 13.04 8.97 13.88H11.81ZM17.231 15.09C15.631 15.09 14.481 14 14.481 12.47V12.33C14.481 10.8 15.631 9.71 17.231 9.71H17.311C18.911 9.71 20.061 10.8 20.061 12.33V12.47C20.061 14 18.911 15.09 17.311 15.09H17.231ZM17.241 14.11H17.301C18.151 14.11 18.771 13.42 18.771 12.45V12.35C18.771 11.38 18.161 10.69 17.301 10.69H17.241C16.391 10.69 15.781 11.38 15.781 12.35V12.45C15.781 13.42 16.391 14.11 17.241 14.11ZM23.5959 15.08C22.0259 15.08 20.9459 14 20.9459 12.47V12.31C20.9459 10.8 22.0659 9.72 23.5759 9.72H23.6359C24.6459 9.72 25.4159 10.18 25.8759 10.91L24.9559 11.52C24.6759 10.99 24.2459 10.71 23.6559 10.71H23.6259C22.7659 10.71 22.2359 11.32 22.2359 12.35V12.45C22.2359 13.44 22.8259 14.07 23.6759 14.07H23.7259C24.3259 14.07 24.7459 13.75 25.0159 13.26L25.9159 13.93C25.4359 14.64 24.6759 15.08 23.6659 15.08H23.5959ZM27.9102 15V10.82H26.3402V9.8H30.7202V10.82H29.1502V15H27.9102ZM32.4467 17.01C32.1667 17.01 31.7767 16.97 31.4867 16.82V15.76C31.7267 15.88 31.9567 15.96 32.2067 15.96C32.6267 15.96 32.9667 15.69 33.2267 15.23L30.9767 9.8H32.2967L33.8267 13.79H33.8967L35.1667 9.8H36.4267L34.5167 15.29C34.2267 16.13 33.7067 17.01 32.4467 17.01ZM37.2129 15V9.8H42.0429V15H40.8029V10.8H38.4529V15H37.2129ZM43.541 15V9.8H44.781V11.78H47.141V9.8H48.381V15H47.141V12.78H44.781V15H43.541ZM52.2489 15.09C50.6689 15.09 49.5689 14.03 49.5689 12.5V12.36C49.5689 10.83 50.6989 9.71 52.2289 9.71H52.2889C53.7289 9.71 54.7689 10.71 54.7689 12.11V12.78H50.7989V12.79C50.8889 13.54 51.4889 14.05 52.3289 14.05H52.3789C53.0189 14.05 53.5989 13.76 53.8989 13.38L54.5889 14.13C54.0989 14.72 53.1989 15.09 52.3389 15.09H52.2489ZM50.8289 11.95H53.5889C53.5289 11.21 52.9989 10.68 52.2389 10.68H52.2289C51.5089 10.68 50.9689 11.18 50.8289 11.95ZM58.6387 15V9.8H59.8787V11.78H62.2387V9.8H63.4787V15H62.2387V12.78H59.8787V15H58.6387ZM66.4266 15.1C65.3466 15.1 64.6066 14.47 64.6066 13.55V13.48C64.6066 12.37 65.6566 11.79 67.7466 11.79H68.1666V11.56C68.1666 11.06 67.7766 10.72 67.0866 10.72H67.0566C66.5166 10.72 65.8866 10.92 65.3666 11.25L64.8566 10.35C65.4966 9.95 66.2966 9.69 67.1266 9.69H67.1866C68.5066 9.69 69.3366 10.41 69.3366 11.58V13.93C69.3366 14.29 69.4166 14.66 69.5166 15H68.3366C68.2766 14.84 68.2266 14.61 68.1966 14.38C67.7566 14.82 67.1366 15.1 66.4266 15.1ZM66.6766 14.1C67.2566 14.1 67.8066 13.85 68.1666 13.46V12.59H67.8166C66.4466 12.59 65.8066 12.87 65.8066 13.42V13.46C65.8066 13.83 66.1566 14.1 66.6766 14.1ZM12.792 32.24C9.8 32.24 7.944 30.512 7.944 27.712V20.8H10.856V27.6C10.856 28.848 11.608 29.632 12.808 29.632C13.976 29.632 14.712 28.848 14.712 27.6V20.8H17.624V27.712C17.624 30.64 15.64 32.24 12.792 32.24ZM18.1532 32L21.9613 20.8H25.6093L29.3853 32H26.3133L25.6893 29.952H21.8653L21.2413 32H18.1532ZM22.4733 27.696H25.0813L23.8653 23.872H23.6733L22.4733 27.696ZM30.3696 32V20.8H33.2816V25.36H33.4416L36.7376 20.8H39.9696L35.8736 25.952L40.1776 32H36.7856L33.4256 26.88H33.2816V32H30.3696ZM43.0548 22.768C42.1268 22.768 41.5028 22.224 41.5028 21.424C41.5028 20.608 42.1268 20.048 43.0548 20.048C44.0148 20.048 44.6708 20.608 44.6708 21.424C44.6708 22.224 44.0308 22.768 43.0548 22.768ZM41.6788 32V23.68H44.4628V32H41.6788ZM46.3663 32V23.68H48.5743C48.6863 24.032 48.8303 24.688 48.8303 25.04C49.7103 23.984 50.8943 23.488 51.9663 23.488H52.0143C53.8703 23.488 54.9583 24.688 54.9583 26.704V32H52.1743V27.328C52.1743 26.272 51.7423 25.76 50.8623 25.76H50.8143C49.8063 25.76 49.1503 26.592 49.1503 27.696V32H46.3663ZM60.9489 32.192C58.2929 32.192 56.3249 30.416 56.3249 28.032V27.648C56.3249 25.264 58.2929 23.488 60.9489 23.488H61.1249C63.7969 23.488 65.7649 25.264 65.7649 27.648V28.032C65.7649 30.416 63.7969 32.192 61.1249 32.192H60.9489ZM60.9649 30.224H61.1249C62.1009 30.224 62.8689 29.264 62.8689 27.936V27.744C62.8689 26.416 62.1169 25.456 61.1249 25.456H60.9649C59.9729 25.456 59.2049 26.416 59.2049 27.744V27.936C59.2049 29.264 59.9729 30.224 60.9649 30.224Z" fill="black"/>
<path d="M83.1787 25.1657L93.8662 15.8141C95.3743 14.4945 97.6262 14.4945 99.1343 15.8141L109.822 25.1657C112.601 27.5978 110.881 32.176 107.188 32.176H85.8127C82.1193 32.176 80.3991 27.5978 83.1787 25.1657Z" fill="#E6B117"/>
<rect x="84.502" y="26.8426" width="2.66667" height="2.66667" fill="black"/>
<rect x="89.834" y="26.8426" width="2.66667" height="2.66667" fill="black"/>
<rect x="95.166" y="26.8426" width="2.66667" height="2.66667" fill="black"/>
<rect x="100.5" y="26.8426" width="2.66667" height="2.66667" fill="black"/>
<rect x="105.834" y="26.8426" width="2.66667" height="2.66667" fill="black"/>
<path d="M83.1787 14.8343L93.8662 24.1859C95.3743 25.5055 97.6262 25.5055 99.1343 24.1859L109.822 14.8343C112.601 12.4022 110.881 7.82404 107.188 7.82404H85.8127C82.1193 7.82404 80.3991 12.4022 83.1787 14.8343Z" fill="#0095E7"/>
<rect width="2.66667" height="2.66667" transform="matrix(1 0 0 -1 84.502 13.1574)" fill="black"/>
<rect width="2.66667" height="2.66667" transform="matrix(1 0 0 -1 89.834 13.1574)" fill="black"/>
<rect width="2.66667" height="2.66667" transform="matrix(1 0 0 -1 95.166 13.1574)" fill="black"/>
<rect width="2.66667" height="2.66667" transform="matrix(1 0 0 -1 100.5 13.1574)" fill="black"/>
<rect width="2.66667" height="2.66667" transform="matrix(1 0 0 -1 105.834 13.1574)" fill="black"/>
<path fill-rule="evenodd" clip-rule="evenodd" d="M103.916 20L99.132 24.1859C97.6239 25.5055 95.3721 25.5055 93.864 24.1859L89.0801 20L93.864 15.8141C95.3721 14.4945 97.6239 14.4945 99.132 15.8141L103.916 20Z" fill="white"/>
<ellipse cx="96.5013" cy="20.176" rx="3.33333" ry="3.33333" fill="black"/>
</svg>
