<svg width="121" height="40" viewBox="0 0 121 40" fill="none" xmlns="http://www.w3.org/2000/svg">
<rect x="0.5" y="0.5" width="120" height="39" rx="3.5" fill="#F2F2F2"/>
<rect x="0.5" y="0.5" width="120" height="39" rx="3.5" stroke="#373737"/>
<path d="M7.17 17.35V14.88H7.72C8.16 14.33 8.34 12.64 8.34 9.73V9H13.1V14.88H13.92V17.35H12.67V16H8.42V17.35H7.17ZM11.81 14.88V10.11H9.6V10.22C9.58 12.53 9.37 14.04 8.97 14.88H11.81ZM17.231 16.09C15.631 16.09 14.481 15 14.481 13.47V13.33C14.481 11.8 15.631 10.71 17.231 10.71H17.311C18.911 10.71 20.061 11.8 20.061 13.33V13.47C20.061 15 18.911 16.09 17.311 16.09H17.231ZM17.241 15.11H17.301C18.151 15.11 18.771 14.42 18.771 13.45V13.35C18.771 12.38 18.161 11.69 17.301 11.69H17.241C16.391 11.69 15.781 12.38 15.781 13.35V13.45C15.781 14.42 16.391 15.11 17.241 15.11ZM23.5959 16.08C22.0259 16.08 20.9459 15 20.9459 13.47V13.31C20.9459 11.8 22.0659 10.72 23.5759 10.72H23.6359C24.6459 10.72 25.4159 11.18 25.8759 11.91L24.9559 12.52C24.6759 11.99 24.2459 11.71 23.6559 11.71H23.6259C22.7659 11.71 22.2359 12.32 22.2359 13.35V13.45C22.2359 14.44 22.8259 15.07 23.6759 15.07H23.7259C24.3259 15.07 24.7459 14.75 25.0159 14.26L25.9159 14.93C25.4359 15.64 24.6759 16.08 23.6659 16.08H23.5959ZM27.9102 16V11.82H26.3402V10.8H30.7202V11.82H29.1502V16H27.9102ZM32.4467 18.01C32.1667 18.01 31.7767 17.97 31.4867 17.82V16.76C31.7267 16.88 31.9567 16.96 32.2067 16.96C32.6267 16.96 32.9667 16.69 33.2267 16.23L30.9767 10.8H32.2967L33.8267 14.79H33.8967L35.1667 10.8H36.4267L34.5167 16.29C34.2267 17.13 33.7067 18.01 32.4467 18.01ZM37.2129 16V10.8H42.0429V16H40.8029V11.8H38.4529V16H37.2129ZM43.541 16V10.8H44.781V12.78H47.141V10.8H48.381V16H47.141V13.78H44.781V16H43.541ZM52.2489 16.09C50.6689 16.09 49.5689 15.03 49.5689 13.5V13.36C49.5689 11.83 50.6989 10.71 52.2289 10.71H52.2889C53.7289 10.71 54.7689 11.71 54.7689 13.11V13.78H50.7989V13.79C50.8889 14.54 51.4889 15.05 52.3289 15.05H52.3789C53.0189 15.05 53.5989 14.76 53.8989 14.38L54.5889 15.13C54.0989 15.72 53.1989 16.09 52.3389 16.09H52.2489ZM50.8289 12.95H53.5889C53.5289 12.21 52.9989 11.68 52.2389 11.68H52.2289C51.5089 11.68 50.9689 12.18 50.8289 12.95ZM58.6387 16V10.8H59.8787V12.78H62.2387V10.8H63.4787V16H62.2387V13.78H59.8787V16H58.6387ZM66.4266 16.1C65.3466 16.1 64.6066 15.47 64.6066 14.55V14.48C64.6066 13.37 65.6566 12.79 67.7466 12.79H68.1666V12.56C68.1666 12.06 67.7766 11.72 67.0866 11.72H67.0566C66.5166 11.72 65.8866 11.92 65.3666 12.25L64.8566 11.35C65.4966 10.95 66.2966 10.69 67.1266 10.69H67.1866C68.5066 10.69 69.3366 11.41 69.3366 12.58V14.93C69.3366 15.29 69.4166 15.66 69.5166 16H68.3366C68.2766 15.84 68.2266 15.61 68.1966 15.38C67.7566 15.82 67.1366 16.1 66.4266 16.1ZM66.6766 15.1C67.2566 15.1 67.8066 14.85 68.1666 14.46V13.59H67.8166C66.4466 13.59 65.8066 13.87 65.8066 14.42V14.46C65.8066 14.83 66.1566 15.1 66.6766 15.1ZM12.068 31.21C9.45 31.21 7.826 29.698 7.826 27.248V21.2H10.374V27.15C10.374 28.242 11.032 28.928 12.082 28.928C13.104 28.928 13.748 28.242 13.748 27.15V21.2H16.296V27.248C16.296 29.81 14.56 31.21 12.068 31.21ZM16.7591 31L20.0911 21.2H23.2831L26.5871 31H23.8991L23.3531 29.208H20.0071L19.4611 31H16.7591ZM20.5391 27.234H22.8211L21.7571 23.888H21.5891L20.5391 27.234ZM31.0565 31.168C29.4465 31.168 28.0605 30.72 26.9545 29.852L28.1025 27.794C28.9985 28.522 30.2165 28.872 31.1685 28.872C31.9525 28.872 32.3445 28.606 32.3445 28.172C32.3445 27.626 31.6025 27.43 30.6785 27.178C29.0265 26.73 27.1365 26.114 27.1365 24.028C27.1365 22.04 28.8025 21.004 30.5525 21.004C32.0925 21.004 33.3385 21.396 34.4305 22.18L33.2265 24.238C32.4705 23.622 31.3925 23.286 30.6085 23.286C29.9645 23.286 29.5865 23.552 29.5865 24C29.5865 24.574 30.3565 24.728 31.3365 24.98C33.1565 25.428 34.8785 26.114 34.8785 28.074C34.8785 30.02 33.2685 31.168 31.0565 31.168ZM39.6421 31.168C37.3181 31.168 35.7081 29.712 35.7081 27.486V27.234C35.7081 25.12 37.3601 23.552 39.5581 23.552H39.7261C41.7981 23.552 43.3381 24.98 43.3381 26.856V27.962H38.0461V27.976C38.1581 28.802 38.8301 29.292 39.7821 29.292H39.9081C40.7201 29.292 41.4761 28.942 41.9241 28.508L43.0161 30.062C42.3161 30.678 41.0001 31.168 39.8941 31.168H39.6421ZM38.1021 26.604H41.0421C40.9861 25.82 40.4541 25.246 39.6561 25.246H39.6141C38.8861 25.246 38.2981 25.75 38.1021 26.604ZM44.672 31V23.72H46.604C46.702 24.014 46.8 24.504 46.814 24.798C47.374 24.126 48.228 23.72 49.264 23.72H49.488V25.974C49.32 25.918 49.068 25.862 48.858 25.862C47.696 25.862 47.108 26.394 47.108 27.178V31H44.672ZM51.7139 22.922C50.9019 22.922 50.3559 22.446 50.3559 21.746C50.3559 21.032 50.9019 20.542 51.7139 20.542C52.5539 20.542 53.1279 21.032 53.1279 21.746C53.1279 22.446 52.5679 22.922 51.7139 22.922ZM50.5099 31V23.72H52.9459V31H50.5099ZM56.6975 31.168C55.2135 31.168 54.1635 30.3 54.1635 29.012V28.858C54.1635 27.304 55.6055 26.492 58.4895 26.492H58.9935V26.366C58.9935 25.806 58.6155 25.386 57.7895 25.386H57.7195C57.0195 25.386 56.2075 25.638 55.4095 26.072L54.4995 24.42C55.3675 23.888 56.6275 23.552 57.8455 23.552H57.9995C60.0015 23.552 61.2475 24.63 61.2475 26.492V29.18C61.2475 29.824 61.3595 30.37 61.4995 31H59.2595C59.1755 30.762 59.1055 30.496 59.0635 30.174C58.5875 30.72 57.7755 31.168 56.6975 31.168ZM57.3975 29.404C57.9575 29.404 58.5875 29.18 59.0075 28.746V27.78H58.4755C57.1455 27.78 56.4595 28.116 56.4595 28.69V28.746C56.4595 29.124 56.8375 29.404 57.3975 29.404ZM62.9377 31V20.92H65.3737V31H62.9377ZM70.0479 31.182C68.6339 31.182 67.5139 30.86 66.4499 30.188L67.5559 28.466C68.1299 28.956 69.2779 29.348 70.1459 29.348C70.7059 29.348 70.9859 29.166 70.9859 28.802C70.9859 28.27 70.2299 28.41 68.4659 27.78C67.5979 27.5 66.8419 26.968 66.8419 25.848C66.8419 24.434 68.1019 23.538 69.7119 23.538C70.9439 23.538 72.0779 23.874 72.9179 24.49L71.7839 26.1C71.2939 25.666 70.4259 25.358 69.6839 25.358C69.1519 25.358 68.9559 25.54 68.9559 25.834C68.9559 26.254 69.6559 26.366 70.6219 26.59C71.8119 26.884 73.1839 27.346 73.1839 28.872C73.1839 30.258 71.8539 31.182 70.0479 31.182Z" fill="black"/>
<path d="M105.708 9.77084L101.614 10.5833L104.468 14.2708L106.52 13.8542L105.708 9.77084ZM98.5515 11.1875L96.4994 11.5938L99.364 15.2708L101.406 14.8646L98.5515 11.1875ZM93.4473 12.1875L91.3952 12.6146L94.2598 16.2917L96.3015 15.8854L93.4473 12.1875ZM88.3327 13.2292L87.3119 13.4271C86.7706 13.5352 86.2944 13.8538 85.9878 14.3127C85.6811 14.7717 85.5692 15.3336 85.6765 15.875L86.0827 17.9167L91.1869 16.9063L88.3327 13.2292ZM86.0827 17.9167V28.3333C86.0827 28.8859 86.3022 29.4158 86.6929 29.8065C87.0836 30.1972 87.6135 30.4167 88.166 30.4167H104.833C105.989 30.4167 106.916 29.4896 106.916 28.3333V17.9167H86.0827Z" fill="black"/>
</svg>
