<svg width="121" height="40" viewBox="0 0 121 40" fill="none" xmlns="http://www.w3.org/2000/svg">
<rect x="0.5" y="0.5" width="120" height="39" rx="3.5" fill="url(#paint0_radial_1193_274)"/>
<rect x="0.5" y="0.5" width="120" height="39" rx="3.5" stroke="#373737"/>
<path d="M7.17 16.35V13.88H7.72C8.16 13.33 8.34 11.64 8.34 8.73V8H13.1V13.88H13.92V16.35H12.67V15H8.42V16.35H7.17ZM11.81 13.88V9.11H9.6V9.22C9.58 11.53 9.37 13.04 8.97 13.88H11.81ZM17.231 15.09C15.631 15.09 14.481 14 14.481 12.47V12.33C14.481 10.8 15.631 9.71 17.231 9.71H17.311C18.911 9.71 20.061 10.8 20.061 12.33V12.47C20.061 14 18.911 15.09 17.311 15.09H17.231ZM17.241 14.11H17.301C18.151 14.11 18.771 13.42 18.771 12.45V12.35C18.771 11.38 18.161 10.69 17.301 10.69H17.241C16.391 10.69 15.781 11.38 15.781 12.35V12.45C15.781 13.42 16.391 14.11 17.241 14.11ZM23.5959 15.08C22.0259 15.08 20.9459 14 20.9459 12.47V12.31C20.9459 10.8 22.0659 9.72 23.5759 9.72H23.6359C24.6459 9.72 25.4159 10.18 25.8759 10.91L24.9559 11.52C24.6759 10.99 24.2459 10.71 23.6559 10.71H23.6259C22.7659 10.71 22.2359 11.32 22.2359 12.35V12.45C22.2359 13.44 22.8259 14.07 23.6759 14.07H23.7259C24.3259 14.07 24.7459 13.75 25.0159 13.26L25.9159 13.93C25.4359 14.64 24.6759 15.08 23.6659 15.08H23.5959ZM27.9102 15V10.82H26.3402V9.8H30.7202V10.82H29.1502V15H27.9102ZM32.4467 17.01C32.1667 17.01 31.7767 16.97 31.4867 16.82V15.76C31.7267 15.88 31.9567 15.96 32.2067 15.96C32.6267 15.96 32.9667 15.69 33.2267 15.23L30.9767 9.8H32.2967L33.8267 13.79H33.8967L35.1667 9.8H36.4267L34.5167 15.29C34.2267 16.13 33.7067 17.01 32.4467 17.01ZM37.2129 15V9.8H42.0429V15H40.8029V10.8H38.4529V15H37.2129ZM43.541 15V9.8H44.781V11.78H47.141V9.8H48.381V15H47.141V12.78H44.781V15H43.541ZM52.2489 15.09C50.6689 15.09 49.5689 14.03 49.5689 12.5V12.36C49.5689 10.83 50.6989 9.71 52.2289 9.71H52.2889C53.7289 9.71 54.7689 10.71 54.7689 12.11V12.78H50.7989V12.79C50.8889 13.54 51.4889 14.05 52.3289 14.05H52.3789C53.0189 14.05 53.5989 13.76 53.8989 13.38L54.5889 14.13C54.0989 14.72 53.1989 15.09 52.3389 15.09H52.2489ZM50.8289 11.95H53.5889C53.5289 11.21 52.9989 10.68 52.2389 10.68H52.2289C51.5089 10.68 50.9689 11.18 50.8289 11.95ZM58.6387 15V9.8H59.8787V11.78H62.2387V9.8H63.4787V15H62.2387V12.78H59.8787V15H58.6387ZM66.4266 15.1C65.3466 15.1 64.6066 14.47 64.6066 13.55V13.48C64.6066 12.37 65.6566 11.79 67.7466 11.79H68.1666V11.56C68.1666 11.06 67.7766 10.72 67.0866 10.72H67.0566C66.5166 10.72 65.8866 10.92 65.3666 11.25L64.8566 10.35C65.4966 9.95 66.2966 9.69 67.1266 9.69H67.1866C68.5066 9.69 69.3366 10.41 69.3366 11.58V13.93C69.3366 14.29 69.4166 14.66 69.5166 15H68.3366C68.2766 14.84 68.2266 14.61 68.1966 14.38C67.7566 14.82 67.1366 15.1 66.4266 15.1ZM66.6766 14.1C67.2566 14.1 67.8066 13.85 68.1666 13.46V12.59H67.8166C66.4466 12.59 65.8066 12.87 65.8066 13.42V13.46C65.8066 13.83 66.1566 14.1 66.6766 14.1ZM12.792 32.24C9.8 32.24 7.944 30.512 7.944 27.712V20.8H10.856V27.6C10.856 28.848 11.608 29.632 12.808 29.632C13.976 29.632 14.712 28.848 14.712 27.6V20.8H17.624V27.712C17.624 30.64 15.64 32.24 12.792 32.24ZM22.7225 32.128C20.9305 32.128 19.8585 31.104 19.8585 29.232V25.76H18.7705V23.936C19.0425 23.856 19.4745 23.76 19.8585 23.712V21.76L22.6105 21.44V23.68H25.0105V25.76H22.5785V28.72C22.5785 29.536 22.9465 29.84 23.6185 29.84C24.0345 29.84 24.7065 29.728 25.0265 29.664V31.728C24.3865 32 23.3945 32.128 22.7225 32.128ZM30.4801 32.192C27.8241 32.192 25.8561 30.416 25.8561 28.032V27.648C25.8561 25.264 27.8241 23.488 30.4801 23.488H30.6561C33.3281 23.488 35.2961 25.264 35.2961 27.648V28.032C35.2961 30.416 33.3281 32.192 30.6561 32.192H30.4801ZM30.4961 30.224H30.6561C31.6321 30.224 32.4001 29.264 32.4001 27.936V27.744C32.4001 26.416 31.6481 25.456 30.6561 25.456H30.4961C29.5041 25.456 28.7361 26.416 28.7361 27.744V27.936C28.7361 29.264 29.5041 30.224 30.4961 30.224ZM36.7725 35.2V23.68H38.9805C39.0765 23.936 39.1565 24.352 39.2045 24.688C39.9085 23.936 40.9005 23.488 42.0365 23.488H42.1485C44.4365 23.488 46.1005 25.248 46.1005 27.648V28.032C46.1005 30.432 44.4365 32.192 42.1485 32.192H42.0365C41.0765 32.192 40.2125 31.872 39.5565 31.312V35.2H36.7725ZM41.3005 30.224H41.4605C42.4525 30.224 43.2205 29.264 43.2205 27.936V27.744C43.2205 26.416 42.4685 25.456 41.4605 25.456H41.3005C40.3085 25.456 39.5565 26.416 39.5565 27.744V27.936C39.5565 29.264 40.3085 30.224 41.3005 30.224ZM48.961 22.768C48.033 22.768 47.409 22.224 47.409 21.424C47.409 20.608 48.033 20.048 48.961 20.048C49.921 20.048 50.577 20.608 50.577 21.424C50.577 22.224 49.937 22.768 48.961 22.768ZM47.585 32V23.68H50.369V32H47.585ZM54.6565 32.192C52.9605 32.192 51.7605 31.2 51.7605 29.728V29.552C51.7605 27.776 53.4085 26.848 56.7045 26.848H57.2805V26.704C57.2805 26.064 56.8485 25.584 55.9045 25.584H55.8245C55.0245 25.584 54.0965 25.872 53.1845 26.368L52.1445 24.48C53.1365 23.872 54.5765 23.488 55.9685 23.488H56.1445C58.4325 23.488 59.8565 24.72 59.8565 26.848V29.92C59.8565 30.656 59.9845 31.28 60.1445 32H57.5845C57.4885 31.728 57.4085 31.424 57.3605 31.056C56.8165 31.68 55.8885 32.192 54.6565 32.192ZM55.4565 30.176C56.0965 30.176 56.8165 29.92 57.2965 29.424V28.32H56.6885C55.1685 28.32 54.3845 28.704 54.3845 29.36V29.424C54.3845 29.856 54.8165 30.176 55.4565 30.176Z" fill="white"/>
<circle cx="96.5" cy="20" r="11.75" fill="#1B2031" stroke="#7F6EBD" stroke-width="1.5"/>
<path fill-rule="evenodd" clip-rule="evenodd" d="M88.4038 13.3181C87.1037 14.8924 86.2537 16.852 86.0508 19H87.5587C87.7505 17.2651 88.4354 15.6788 89.4701 14.3845L88.4038 13.3181ZM102.119 27.0336C100.824 28.0691 99.2363 28.7543 97.4999 28.9455V30.4533C99.6494 30.2511 101.61 29.4008 103.186 28.0999L102.119 27.0336ZM104.6 26.6861L103.534 25.6198C104.571 24.3247 105.257 22.7368 105.449 21H106.957C106.754 23.1499 105.902 25.1112 104.6 26.6861ZM90.8839 12.9698L89.8177 11.9036C91.3916 10.6023 93.3515 9.75112 95.4999 9.54734V11.0553C93.7646 11.2479 92.1781 11.9339 90.8839 12.9698ZM95.4999 30.4526C93.355 30.2491 91.3981 29.4005 89.8255 28.1028L90.8918 27.0365C92.1846 28.0688 93.7681 28.7524 95.4999 28.9446V30.4526ZM87.5587 21C87.7509 22.7384 88.4382 24.3276 89.4765 25.6234L88.4103 26.6896C87.1066 25.1141 86.2541 23.1515 86.0508 21H87.5587ZM105.449 19C105.257 17.2667 104.573 15.6818 103.54 14.388L104.607 13.3217C105.905 14.8953 106.754 16.8536 106.957 19H105.449ZM102.127 12.9727L103.193 11.9065C101.617 10.602 99.653 9.74921 97.4999 9.5466V11.0545C99.2398 11.246 100.83 11.9336 102.127 12.9727Z" fill="#7F6EBD"/>
<circle cx="96.5" cy="20" r="4.5" fill="#7F6EBD"/>
<rect x="88.5" y="19" width="16" height="2" fill="#7F6EBD"/>
<rect x="95.5" y="28" width="16" height="2" transform="rotate(-90 95.5 28)" fill="#7F6EBD"/>
<rect x="90.1367" y="24.9497" width="16" height="2" transform="rotate(-45 90.1367 24.9497)" fill="#7F6EBD"/>
<rect x="91.5508" y="13.636" width="16" height="2" transform="rotate(45 91.5508 13.636)" fill="#7F6EBD"/>
<defs>
<radialGradient id="paint0_radial_1193_274" cx="0" cy="0" r="1" gradientUnits="userSpaceOnUse" gradientTransform="translate(96.5 20) rotate(-180) scale(58.5 66.8198)">
<stop stop-color="#332C4A"/>
<stop offset="1" stop-color="#18181B"/>
</radialGradient>
</defs>
</svg>
