<svg width="129" height="48" viewBox="0 0 129 48" fill="none" xmlns="http://www.w3.org/2000/svg">
<g filter="url(#filter0_d_1000_54)">
<rect x="4" width="121" height="40" rx="4" fill="#D9D9D9"/>
<rect x="4" width="121" height="40" rx="4" fill="url(#paint0_radial_1000_54)" fill-opacity="0.5"/>
<g clip-path="url(#clip0_1000_54)">
<mask id="mask0_1000_54" style="mask-type:luminance" maskUnits="userSpaceOnUse" x="88" y="8" width="27" height="24">
<path d="M114.281 8H88V31.4375H114.281V8Z" fill="white"/>
</mask>
<g mask="url(#mask0_1000_54)">
<path d="M89.3725 13.2987C89.3467 13.3865 89.2196 13.5371 89.3233 13.5735C90.4151 13.9531 92.5668 14.7129 92.9633 16.4831C93.2535 17.7795 92.4643 19.3968 90.9729 21.8979C90.4693 22.743 90.2635 22.9479 90.336 23.0272C90.7377 23.4682 98.1967 18.32 97.3649 16.0055C96.9662 14.8959 94.863 14.996 94.7573 14.0254C94.6262 12.8203 97.7965 11.994 97.6506 11.3997C97.419 10.4585 89.4797 12.9319 89.3725 13.2987Z" fill="#EF233C"/>
<path d="M89.9745 25.2532C90.0013 24.9215 90.4139 24.7944 90.6261 25.0496C91.4814 26.0777 93.7689 26.521 99.5956 18.4881C106.754 8.6194 104.658 13.7372 105.606 15.8636C105.834 16.3742 106.542 16.4081 106.817 15.9221C107.661 14.4321 109.853 10.9696 112.407 10.1139C112.84 9.96873 113.19 10.4849 112.893 10.8338C111.22 12.8024 107.603 17.6928 108.004 22.7697C108.522 29.3488 100.115 29.6926 102.502 25.6045C104.89 21.5164 104.059 16.2949 100.841 21.4121C97.7921 26.2606 89.4314 31.9527 89.9745 25.2532Z" fill="black"/>
</g>
</g>
<path d="M11.17 14.35V11.88H11.72C12.16 11.33 12.34 9.64 12.34 6.73V6H17.1V11.88H17.92V14.35H16.67V13H12.42V14.35H11.17ZM15.81 11.88V7.11H13.6V7.22C13.58 9.53 13.37 11.04 12.97 11.88H15.81ZM21.231 13.09C19.631 13.09 18.481 12 18.481 10.47V10.33C18.481 8.8 19.631 7.71 21.231 7.71H21.311C22.911 7.71 24.061 8.8 24.061 10.33V10.47C24.061 12 22.911 13.09 21.311 13.09H21.231ZM21.241 12.11H21.301C22.151 12.11 22.771 11.42 22.771 10.45V10.35C22.771 9.38 22.161 8.69 21.301 8.69H21.241C20.391 8.69 19.781 9.38 19.781 10.35V10.45C19.781 11.42 20.391 12.11 21.241 12.11ZM27.5959 13.08C26.0259 13.08 24.9459 12 24.9459 10.47V10.31C24.9459 8.8 26.0659 7.72 27.5759 7.72H27.6359C28.6459 7.72 29.4159 8.18 29.8759 8.91L28.9559 9.52C28.6759 8.99 28.2459 8.71 27.6559 8.71H27.6259C26.7659 8.71 26.2359 9.32 26.2359 10.35V10.45C26.2359 11.44 26.8259 12.07 27.6759 12.07H27.7259C28.3259 12.07 28.7459 11.75 29.0159 11.26L29.9159 11.93C29.4359 12.64 28.6759 13.08 27.6659 13.08H27.5959ZM31.9102 13V8.82H30.3402V7.8H34.7202V8.82H33.1502V13H31.9102ZM36.4467 15.01C36.1667 15.01 35.7767 14.97 35.4867 14.82V13.76C35.7267 13.88 35.9567 13.96 36.2067 13.96C36.6267 13.96 36.9667 13.69 37.2267 13.23L34.9767 7.8H36.2967L37.8267 11.79H37.8967L39.1667 7.8H40.4267L38.5167 13.29C38.2267 14.13 37.7067 15.01 36.4467 15.01ZM41.2129 13V7.8H46.0429V13H44.8029V8.8H42.4529V13H41.2129ZM47.541 13V7.8H48.781V9.78H51.141V7.8H52.381V13H51.141V10.78H48.781V13H47.541ZM56.2489 13.09C54.6689 13.09 53.5689 12.03 53.5689 10.5V10.36C53.5689 8.83 54.6989 7.71 56.2289 7.71H56.2889C57.7289 7.71 58.7689 8.71 58.7689 10.11V10.78H54.7989V10.79C54.8889 11.54 55.4889 12.05 56.3289 12.05H56.3789C57.0189 12.05 57.5989 11.76 57.8989 11.38L58.5889 12.13C58.0989 12.72 57.1989 13.09 56.3389 13.09H56.2489ZM54.8289 9.95H57.5889C57.5289 9.21 56.9989 8.68 56.2389 8.68H56.2289C55.5089 8.68 54.9689 9.18 54.8289 9.95ZM62.6387 13V7.8H63.8787V9.78H66.2387V7.8H67.4787V13H66.2387V10.78H63.8787V13H62.6387ZM70.4266 13.1C69.3466 13.1 68.6066 12.47 68.6066 11.55V11.48C68.6066 10.37 69.6566 9.79 71.7466 9.79H72.1666V9.56C72.1666 9.06 71.7766 8.72 71.0866 8.72H71.0566C70.5166 8.72 69.8866 8.92 69.3666 9.25L68.8566 8.35C69.4966 7.95 70.2966 7.69 71.1266 7.69H71.1866C72.5066 7.69 73.3366 8.41 73.3366 9.58V11.93C73.3366 12.29 73.4166 12.66 73.5166 13H72.3366C72.2766 12.84 72.2266 12.61 72.1966 12.38C71.7566 12.82 71.1366 13.1 70.4266 13.1ZM70.6766 12.1C71.2566 12.1 71.8066 11.85 72.1666 11.46V10.59H71.8166C70.4466 10.59 69.8066 10.87 69.8066 11.42V11.46C69.8066 11.83 70.1566 12.1 70.6766 12.1ZM14.26 33L11.24 19H14.92L16.64 28.8H16.8L19.2 19H22.1L24.5 28.8H24.68L26.38 19H30.04L27.04 33H22.56L20.72 25.06H20.58L18.72 33H14.26ZM33.5003 33.24C31.3803 33.24 29.8803 32 29.8803 30.16V29.94C29.8803 27.72 31.9403 26.56 36.0603 26.56H36.7803V26.38C36.7803 25.58 36.2403 24.98 35.0603 24.98H34.9603C33.9603 24.98 32.8003 25.34 31.6603 25.96L30.3603 23.6C31.6003 22.84 33.4003 22.36 35.1403 22.36H35.3603C38.2203 22.36 40.0003 23.9 40.0003 26.56V30.4C40.0003 31.32 40.1603 32.1 40.3603 33H37.1603C37.0403 32.66 36.9403 32.28 36.8803 31.82C36.2003 32.6 35.0403 33.24 33.5003 33.24ZM34.5003 30.72C35.3003 30.72 36.2003 30.4 36.8003 29.78V28.4H36.0403C34.1403 28.4 33.1603 28.88 33.1603 29.7V29.78C33.1603 30.32 33.7003 30.72 34.5003 30.72ZM46.2391 33.16C43.9991 33.16 42.6591 31.88 42.6591 29.54V25.2H41.2991V22.92C41.6391 22.82 42.1791 22.7 42.6591 22.64V20.2L46.0991 19.8V22.6H49.0991V25.2H46.0591V28.9C46.0591 29.92 46.5191 30.3 47.3591 30.3C47.8791 30.3 48.7191 30.16 49.1191 30.08V32.66C48.3191 33 47.0791 33.16 46.2391 33.16ZM53.8714 33.24C51.7514 33.24 50.2514 32 50.2514 30.16V29.94C50.2514 27.72 52.3114 26.56 56.4314 26.56H57.1514V26.38C57.1514 25.58 56.6114 24.98 55.4314 24.98H55.3314C54.3314 24.98 53.1714 25.34 52.0314 25.96L50.7314 23.6C51.9714 22.84 53.7714 22.36 55.5114 22.36H55.7314C58.5914 22.36 60.3714 23.9 60.3714 26.56V30.4C60.3714 31.32 60.5314 32.1 60.7314 33H57.5314C57.4114 32.66 57.3114 32.28 57.2514 31.82C56.5714 32.6 55.4114 33.24 53.8714 33.24ZM54.8714 30.72C55.6714 30.72 56.5714 30.4 57.1714 29.78V28.4H56.4114C54.5114 28.4 53.5314 28.88 53.5314 29.7V29.78C53.5314 30.32 54.0714 30.72 54.8714 30.72ZM62.7859 33V22.6H65.5459C65.6859 23.02 65.8259 23.72 65.8459 24.14C66.6459 23.18 67.8659 22.6 69.3459 22.6H69.6659V25.82C69.4259 25.74 69.0659 25.66 68.7659 25.66C67.1059 25.66 66.2659 26.42 66.2659 27.54V33H62.7859ZM72.8458 21.46C71.6858 21.46 70.9058 20.78 70.9058 19.78C70.9058 18.76 71.6858 18.06 72.8458 18.06C74.0458 18.06 74.8658 18.76 74.8658 19.78C74.8658 20.78 74.0658 21.46 72.8458 21.46ZM71.1258 33V22.6H74.6058V33H71.1258Z" fill="black"/>
</g>
<defs>
<filter id="filter0_d_1000_54" x="0" y="0" width="129" height="48" filterUnits="userSpaceOnUse" color-interpolation-filters="sRGB">
<feFlood flood-opacity="0" result="BackgroundImageFix"/>
<feColorMatrix in="SourceAlpha" type="matrix" values="0 0 0 0 0 0 0 0 0 0 0 0 0 0 0 0 0 0 127 0" result="hardAlpha"/>
<feOffset dy="4"/>
<feGaussianBlur stdDeviation="2"/>
<feComposite in2="hardAlpha" operator="out"/>
<feColorMatrix type="matrix" values="0 0 0 0 0 0 0 0 0 0 0 0 0 0 0 0 0 0 0.25 0"/>
<feBlend mode="normal" in2="BackgroundImageFix" result="effect1_dropShadow_1000_54"/>
<feBlend mode="normal" in="SourceGraphic" in2="effect1_dropShadow_1000_54" result="shape"/>
</filter>
<radialGradient id="paint0_radial_1000_54" cx="0" cy="0" r="1" gradientUnits="userSpaceOnUse" gradientTransform="translate(99 18.5) rotate(178.493) scale(57.0197 65.1291)">
<stop stop-color="#EF233C"/>
<stop offset="1" stop-color="#D9D9D9"/>
</radialGradient>
<clipPath id="clip0_1000_54">
<rect width="25" height="23.4375" fill="white" transform="translate(88 8)"/>
</clipPath>
</defs>
</svg>
