<svg width="153" height="40" viewBox="0 0 153 40" fill="none" xmlns="http://www.w3.org/2000/svg">
<rect x="1.25" y="1.25" width="150.5" height="37.5" rx="6.75" fill="#18181B"/>
<rect x="1.25" y="1.25" width="150.5" height="37.5" rx="6.75" stroke="url(#paint0_linear_972_29)" stroke-width="2.5"/>
<g clip-path="url(#clip0_972_29)">
<mask id="mask0_972_29" style="mask-type:luminance" maskUnits="userSpaceOnUse" x="115" y="5" width="34" height="30">
<path d="M148.64 5H115V35H148.64V5Z" fill="white"/>
</mask>
<g mask="url(#mask0_972_29)">
<path d="M116.757 11.7824C116.724 11.8947 116.561 12.0875 116.694 12.1341C118.091 12.62 120.846 13.5925 121.353 15.8584C121.725 17.5177 120.714 19.5879 118.805 22.7893C118.161 23.8711 117.897 24.1333 117.99 24.2348C118.504 24.7993 128.052 18.2096 126.987 15.247C126.477 13.8267 123.785 13.9549 123.649 12.7125C123.482 11.17 127.54 10.1123 127.353 9.35168C127.056 8.14692 116.894 11.3128 116.757 11.7824Z" fill="#EF233C"/>
<path d="M117.528 27.0841C117.563 26.6595 118.091 26.4968 118.363 26.8235C119.457 28.1395 122.385 28.7069 129.844 18.4247C139.006 5.79282 136.324 12.3436 137.537 15.0654C137.828 15.719 138.735 15.7624 139.087 15.1403C140.168 13.2331 142.973 8.80103 146.242 7.70573C146.796 7.51997 147.244 8.18062 146.865 8.62728C144.723 11.147 140.093 17.4068 140.606 23.9052C141.27 32.3265 130.508 32.7665 133.564 27.5338C136.62 22.301 135.557 15.6175 131.438 22.1675C127.535 28.3735 116.833 35.6595 117.528 27.0841Z" fill="white"/>
</g>
</g>
<path d="M8.16 24.35V21.52H8.83C9.17 20.84 9.29 19.23 9.29 16.7V16H14.42V21.52H15.27V24.35H13.55V23H9.87V24.35H8.16ZM12.64 21.52V17.46H11.03V17.49C10.99 19.38 10.8 20.72 10.47 21.52H12.64ZM18.5442 23.12C16.8842 23.12 15.6542 22.01 15.6542 20.52V20.28C15.6542 18.79 16.8842 17.68 18.5442 17.68H18.6542C20.3242 17.68 21.5542 18.79 21.5542 20.28V20.52C21.5542 22.01 20.3242 23.12 18.6542 23.12H18.5442ZM18.5542 21.89H18.6542C19.2642 21.89 19.7442 21.29 19.7442 20.46V20.34C19.7442 19.51 19.2742 18.91 18.6542 18.91H18.5542C17.9342 18.91 17.4542 19.51 17.4542 20.34V20.46C17.4542 21.29 17.9342 21.89 18.5542 21.89ZM24.897 23.11C23.307 23.11 22.207 22.01 22.207 20.51V20.26C22.207 18.79 23.357 17.69 24.877 17.69H24.957C25.927 17.69 26.717 18.08 27.247 18.78L26.037 19.67C25.757 19.16 25.447 18.96 25.017 18.96H24.987C24.367 18.96 23.997 19.45 23.997 20.34V20.46C23.997 21.31 24.407 21.8 25.017 21.8H25.087C25.527 21.8 25.847 21.56 26.117 21.07L27.297 22.04C26.757 22.73 25.997 23.11 24.987 23.11H24.897ZM28.9834 23V19.15H27.5934V17.8H32.1134V19.15H30.7234V23H28.9834ZM33.9976 25.06C33.6576 25.06 33.1976 25.01 32.8776 24.87V23.43C33.0976 23.57 33.3476 23.67 33.6576 23.67C33.9376 23.67 34.2376 23.55 34.4776 23.24L32.3476 17.8H34.1476L35.3476 21.44H35.4176L36.3876 17.8H38.1176L36.2676 23.36C36.0376 24.04 35.5176 25.06 33.9976 25.06ZM38.7367 23V17.8H43.8867V23H42.1467V19.1H40.4767V23H38.7367ZM45.0844 23V17.8H46.8244V19.61H48.6044V17.8H50.3444V23H48.6044V20.91H46.8244V23H45.0844ZM54.0697 23.12C52.4097 23.12 51.2597 22.08 51.2597 20.49V20.31C51.2597 18.8 52.4397 17.68 54.0097 17.68H54.1297C55.6097 17.68 56.7097 18.7 56.7097 20.04V20.83H52.9297V20.84C53.0097 21.43 53.4897 21.78 54.1697 21.78H54.2597C54.8397 21.78 55.3797 21.53 55.6997 21.22L56.4797 22.33C55.9797 22.77 55.0397 23.12 54.2497 23.12H54.0697ZM52.9697 19.86H55.0697C55.0297 19.3 54.6497 18.89 54.0797 18.89H54.0497C53.5297 18.89 53.1097 19.25 52.9697 19.86ZM60.1723 23V17.8H61.9123V19.61H63.6923V17.8H65.4323V23H63.6923V20.91H61.9123V23H60.1723ZM68.1076 23.12C67.0476 23.12 66.2976 22.5 66.2976 21.58V21.47C66.2976 20.36 67.3276 19.78 69.3876 19.78H69.7476V19.69C69.7476 19.29 69.4776 18.99 68.8876 18.99H68.8376C68.3376 18.99 67.7576 19.17 67.1876 19.48L66.5376 18.3C67.1576 17.92 68.0576 17.68 68.9276 17.68H69.0376C70.4676 17.68 71.3576 18.45 71.3576 19.78V21.7C71.3576 22.16 71.4376 22.55 71.5376 23H69.9376C69.8776 22.83 69.8276 22.64 69.7976 22.41C69.4576 22.8 68.8776 23.12 68.1076 23.12ZM68.6076 21.86C69.0076 21.86 69.4576 21.7 69.7576 21.39V20.7H69.3776C68.4276 20.7 67.9376 20.94 67.9376 21.35V21.39C67.9376 21.66 68.2076 21.86 68.6076 21.86ZM76.1046 23L74.5946 16H76.4346L77.2946 20.9H77.3746L78.5746 16H80.0246L81.2246 20.9H81.3146L82.1646 16H83.9946L82.4946 23H80.2546L79.3346 19.03H79.2646L78.3346 23H76.1046ZM85.7248 23.12C84.6648 23.12 83.9148 22.5 83.9148 21.58V21.47C83.9148 20.36 84.9448 19.78 87.0048 19.78H87.3648V19.69C87.3648 19.29 87.0948 18.99 86.5048 18.99H86.4548C85.9548 18.99 85.3748 19.17 84.8048 19.48L84.1548 18.3C84.7748 17.92 85.6748 17.68 86.5448 17.68H86.6548C88.0848 17.68 88.9748 18.45 88.9748 19.78V21.7C88.9748 22.16 89.0548 22.55 89.1548 23H87.5548C87.4948 22.83 87.4448 22.64 87.4148 22.41C87.0748 22.8 86.4948 23.12 85.7248 23.12ZM86.2248 21.86C86.6248 21.86 87.0748 21.7 87.3748 21.39V20.7H86.9948C86.0448 20.7 85.5548 20.94 85.5548 21.35V21.39C85.5548 21.66 85.8248 21.86 86.2248 21.86ZM92.0941 23.08C90.9741 23.08 90.3041 22.44 90.3041 21.27V19.1H89.6241V17.96C89.7941 17.91 90.0641 17.85 90.3041 17.82V16.6L92.0241 16.4V17.8H93.5241V19.1H92.0041V20.95C92.0041 21.46 92.2341 21.65 92.6541 21.65C92.9141 21.65 93.3341 21.58 93.5341 21.54V22.83C93.1341 23 92.5141 23.08 92.0941 23.08ZM95.9103 23.12C94.8503 23.12 94.1003 22.5 94.1003 21.58V21.47C94.1003 20.36 95.1303 19.78 97.1903 19.78H97.5503V19.69C97.5503 19.29 97.2803 18.99 96.6903 18.99H96.6403C96.1403 18.99 95.5603 19.17 94.9903 19.48L94.3403 18.3C94.9603 17.92 95.8603 17.68 96.7303 17.68H96.8403C98.2703 17.68 99.1603 18.45 99.1603 19.78V21.7C99.1603 22.16 99.2403 22.55 99.3403 23H97.7403C97.6803 22.83 97.6303 22.64 97.6003 22.41C97.2603 22.8 96.6803 23.12 95.9103 23.12ZM96.4103 21.86C96.8103 21.86 97.2603 21.7 97.5603 21.39V20.7H97.1803C96.2303 20.7 95.7403 20.94 95.7403 21.35V21.39C95.7403 21.66 96.0103 21.86 96.4103 21.86ZM100.368 23V17.8H101.748C101.818 18.01 101.888 18.36 101.898 18.57C102.298 18.09 102.908 17.8 103.648 17.8H103.808V19.41C103.688 19.37 103.508 19.33 103.358 19.33C102.528 19.33 102.108 19.71 102.108 20.27V23H100.368ZM105.398 17.23C104.818 17.23 104.428 16.89 104.428 16.39C104.428 15.88 104.818 15.53 105.398 15.53C105.998 15.53 106.408 15.88 106.408 16.39C106.408 16.89 106.008 17.23 105.398 17.23ZM104.538 23V17.8H106.278V23H104.538Z" fill="white"/>
<defs>
<linearGradient id="paint0_linear_972_29" x1="163" y1="-15" x2="-12" y2="44.5" gradientUnits="userSpaceOnUse">
<stop stop-color="#EF233C"/>
<stop offset="1" stop-color="#EF233C" stop-opacity="0.5"/>
</linearGradient>
<clipPath id="clip0_972_29">
<rect width="32" height="30" fill="white" transform="translate(115 5)"/>
</clipPath>
</defs>
</svg>
