<svg width="121" height="40" viewBox="0 0 121 40" fill="none" xmlns="http://www.w3.org/2000/svg">
<rect x="0.5" y="0.5" width="120" height="39" rx="3.5" fill="#18181B"/>
<rect x="0.5" y="0.5" width="120" height="39" rx="3.5" fill="url(#paint0_radial_1000_53)" fill-opacity="0.5"/>
<rect x="0.5" y="0.5" width="120" height="39" rx="3.5" stroke="#373737"/>
<path d="M7.17 14.85V12.38H7.72C8.16 11.83 8.34 10.14 8.34 7.23V6.5H13.1V12.38H13.92V14.85H12.67V13.5H8.42V14.85H7.17ZM11.81 12.38V7.61H9.6V7.72C9.58 10.03 9.37 11.54 8.97 12.38H11.81ZM17.231 13.59C15.631 13.59 14.481 12.5 14.481 10.97V10.83C14.481 9.3 15.631 8.21 17.231 8.21H17.311C18.911 8.21 20.061 9.3 20.061 10.83V10.97C20.061 12.5 18.911 13.59 17.311 13.59H17.231ZM17.241 12.61H17.301C18.151 12.61 18.771 11.92 18.771 10.95V10.85C18.771 9.88 18.161 9.19 17.301 9.19H17.241C16.391 9.19 15.781 9.88 15.781 10.85V10.95C15.781 11.92 16.391 12.61 17.241 12.61ZM23.5959 13.58C22.0259 13.58 20.9459 12.5 20.9459 10.97V10.81C20.9459 9.3 22.0659 8.22 23.5759 8.22H23.6359C24.6459 8.22 25.4159 8.68 25.8759 9.41L24.9559 10.02C24.6759 9.49 24.2459 9.21 23.6559 9.21H23.6259C22.7659 9.21 22.2359 9.82 22.2359 10.85V10.95C22.2359 11.94 22.8259 12.57 23.6759 12.57H23.7259C24.3259 12.57 24.7459 12.25 25.0159 11.76L25.9159 12.43C25.4359 13.14 24.6759 13.58 23.6659 13.58H23.5959ZM27.9102 13.5V9.32H26.3402V8.3H30.7202V9.32H29.1502V13.5H27.9102ZM32.4467 15.51C32.1667 15.51 31.7767 15.47 31.4867 15.32V14.26C31.7267 14.38 31.9567 14.46 32.2067 14.46C32.6267 14.46 32.9667 14.19 33.2267 13.73L30.9767 8.3H32.2967L33.8267 12.29H33.8967L35.1667 8.3H36.4267L34.5167 13.79C34.2267 14.63 33.7067 15.51 32.4467 15.51ZM37.2129 13.5V8.3H42.0429V13.5H40.8029V9.3H38.4529V13.5H37.2129ZM43.541 13.5V8.3H44.781V10.28H47.141V8.3H48.381V13.5H47.141V11.28H44.781V13.5H43.541ZM52.2489 13.59C50.6689 13.59 49.5689 12.53 49.5689 11V10.86C49.5689 9.33 50.6989 8.21 52.2289 8.21H52.2889C53.7289 8.21 54.7689 9.21 54.7689 10.61V11.28H50.7989V11.29C50.8889 12.04 51.4889 12.55 52.3289 12.55H52.3789C53.0189 12.55 53.5989 12.26 53.8989 11.88L54.5889 12.63C54.0989 13.22 53.1989 13.59 52.3389 13.59H52.2489ZM50.8289 10.45H53.5889C53.5289 9.71 52.9989 9.18 52.2389 9.18H52.2289C51.5089 9.18 50.9689 9.68 50.8289 10.45ZM58.6387 13.5V8.3H59.8787V10.28H62.2387V8.3H63.4787V13.5H62.2387V11.28H59.8787V13.5H58.6387ZM66.4266 13.6C65.3466 13.6 64.6066 12.97 64.6066 12.05V11.98C64.6066 10.87 65.6566 10.29 67.7466 10.29H68.1666V10.06C68.1666 9.56 67.7766 9.22 67.0866 9.22H67.0566C66.5166 9.22 65.8866 9.42 65.3666 9.75L64.8566 8.85C65.4966 8.45 66.2966 8.19 67.1266 8.19H67.1866C68.5066 8.19 69.3366 8.91 69.3366 10.08V12.43C69.3366 12.79 69.4166 13.16 69.5166 13.5H68.3366C68.2766 13.34 68.2266 13.11 68.1966 12.88C67.7566 13.32 67.1366 13.6 66.4266 13.6ZM66.6766 12.6C67.2566 12.6 67.8066 12.35 68.1666 11.96V11.09H67.8166C66.4466 11.09 65.8066 11.37 65.8066 11.92V11.96C65.8066 12.33 66.1566 12.6 66.6766 12.6ZM10.26 33.5L7.24 19.5H10.92L12.64 29.3H12.8L15.2 19.5H18.1L20.5 29.3H20.68L22.38 19.5H26.04L23.04 33.5H18.56L16.72 25.56H16.58L14.72 33.5H10.26ZM29.5003 33.74C27.3803 33.74 25.8803 32.5 25.8803 30.66V30.44C25.8803 28.22 27.9403 27.06 32.0603 27.06H32.7803V26.88C32.7803 26.08 32.2403 25.48 31.0603 25.48H30.9603C29.9603 25.48 28.8003 25.84 27.6603 26.46L26.3603 24.1C27.6003 23.34 29.4003 22.86 31.1403 22.86H31.3603C34.2203 22.86 36.0003 24.4 36.0003 27.06V30.9C36.0003 31.82 36.1603 32.6 36.3603 33.5H33.1603C33.0403 33.16 32.9403 32.78 32.8803 32.32C32.2003 33.1 31.0403 33.74 29.5003 33.74ZM30.5003 31.22C31.3003 31.22 32.2003 30.9 32.8003 30.28V28.9H32.0403C30.1403 28.9 29.1603 29.38 29.1603 30.2V30.28C29.1603 30.82 29.7003 31.22 30.5003 31.22ZM42.2391 33.66C39.9991 33.66 38.6591 32.38 38.6591 30.04V25.7H37.2991V23.42C37.6391 23.32 38.1791 23.2 38.6591 23.14V20.7L42.0991 20.3V23.1H45.0991V25.7H42.0591V29.4C42.0591 30.42 42.5191 30.8 43.3591 30.8C43.8791 30.8 44.7191 30.66 45.1191 30.58V33.16C44.3191 33.5 43.0791 33.66 42.2391 33.66ZM49.8714 33.74C47.7514 33.74 46.2514 32.5 46.2514 30.66V30.44C46.2514 28.22 48.3114 27.06 52.4314 27.06H53.1514V26.88C53.1514 26.08 52.6114 25.48 51.4314 25.48H51.3314C50.3314 25.48 49.1714 25.84 48.0314 26.46L46.7314 24.1C47.9714 23.34 49.7714 22.86 51.5114 22.86H51.7314C54.5914 22.86 56.3714 24.4 56.3714 27.06V30.9C56.3714 31.82 56.5314 32.6 56.7314 33.5H53.5314C53.4114 33.16 53.3114 32.78 53.2514 32.32C52.5714 33.1 51.4114 33.74 49.8714 33.74ZM50.8714 31.22C51.6714 31.22 52.5714 30.9 53.1714 30.28V28.9H52.4114C50.5114 28.9 49.5314 29.38 49.5314 30.2V30.28C49.5314 30.82 50.0714 31.22 50.8714 31.22ZM58.7859 33.5V23.1H61.5459C61.6859 23.52 61.8259 24.22 61.8459 24.64C62.6459 23.68 63.8659 23.1 65.3459 23.1H65.6659V26.32C65.4259 26.24 65.0659 26.16 64.7659 26.16C63.1059 26.16 62.2659 26.92 62.2659 28.04V33.5H58.7859ZM68.8458 21.96C67.6858 21.96 66.9058 21.28 66.9058 20.28C66.9058 19.26 67.6858 18.56 68.8458 18.56C70.0458 18.56 70.8658 19.26 70.8658 20.28C70.8658 21.28 70.0658 21.96 68.8458 21.96ZM67.1258 33.5V23.1H70.6058V33.5H67.1258Z" fill="white"/>
<g clip-path="url(#clip0_1000_53)">
<mask id="mask0_1000_53" style="mask-type:luminance" maskUnits="userSpaceOnUse" x="84" y="8" width="27" height="24">
<path d="M110.281 8.28125H84V31.7188H110.281V8.28125Z" fill="white"/>
</mask>
<g mask="url(#mask0_1000_53)">
<path d="M85.3725 13.58C85.3467 13.6678 85.2196 13.8184 85.3233 13.8547C86.4151 14.2344 88.5668 14.9941 88.9633 16.7644C89.2535 18.0607 88.4643 19.678 86.9729 22.1791C86.4693 23.0243 86.2635 23.2291 86.336 23.3084C86.7377 23.7495 94.1967 18.6012 93.3649 16.2867C92.9662 15.1771 90.863 15.2772 90.7573 14.3067C90.6262 13.1016 93.7965 12.2752 93.6506 11.681C93.419 10.7398 85.4797 13.2132 85.3725 13.58Z" fill="#EF233C"/>
<path d="M85.9745 25.5345C86.0013 25.2027 86.4139 25.0756 86.6261 25.3309C87.4814 26.359 89.7689 26.8023 95.5956 18.7693C102.754 8.90065 100.658 14.0185 101.606 16.1449C101.834 16.6555 102.542 16.6894 102.817 16.2034C103.661 14.7134 105.853 11.2508 108.407 10.3951C108.84 10.25 109.19 10.7661 108.893 11.1151C107.22 13.0836 103.603 17.9741 104.004 23.0509C104.522 29.6301 96.1146 29.9738 98.5022 25.8858C100.89 21.7977 100.059 16.5762 96.8413 21.6934C93.7921 26.5418 85.4314 32.234 85.9745 25.5345Z" fill="white"/>
</g>
</g>
<defs>
<radialGradient id="paint0_radial_1000_53" cx="0" cy="0" r="1" gradientUnits="userSpaceOnUse" gradientTransform="translate(95 18.5) rotate(178.493) scale(57.0197 65.1291)">
<stop stop-color="#EF233C"/>
<stop offset="1" stop-color="#18181B"/>
</radialGradient>
<clipPath id="clip0_1000_53">
<rect width="25" height="23.4375" fill="white" transform="translate(84 8.28125)"/>
</clipPath>
</defs>
</svg>
