<svg width="121" height="40" viewBox="0 0 121 40" fill="none" xmlns="http://www.w3.org/2000/svg">
<rect x="1.25" y="1.25" width="118.5" height="37.5" rx="6.75" fill="white"/>
<rect x="1.25" y="1.25" width="118.5" height="37.5" rx="6.75" stroke="url(#paint0_linear_995_27)" stroke-width="2.5"/>
<g clip-path="url(#clip0_995_27)">
<mask id="mask0_995_27" style="mask-type:luminance" maskUnits="userSpaceOnUse" x="84" y="8" width="27" height="24">
<path d="M110.281 8H84V31.4375H110.281V8Z" fill="white"/>
</mask>
<g mask="url(#mask0_995_27)">
<path d="M85.3725 13.2987C85.3467 13.3865 85.2196 13.5371 85.3233 13.5735C86.4151 13.9531 88.5668 14.7129 88.9633 16.4831C89.2535 17.7795 88.4643 19.3968 86.9729 21.8979C86.4693 22.743 86.2635 22.9479 86.336 23.0272C86.7377 23.4682 94.1967 18.32 93.3649 16.0055C92.9662 14.8959 90.863 14.996 90.7573 14.0254C90.6262 12.8203 93.7965 11.994 93.6506 11.3997C93.419 10.4585 85.4797 12.9319 85.3725 13.2987Z" fill="#EF233C"/>
<path d="M85.9745 25.2532C86.0013 24.9215 86.4139 24.7944 86.6261 25.0496C87.4814 26.0777 89.7689 26.521 95.5956 18.4881C102.754 8.6194 100.658 13.7372 101.606 15.8636C101.834 16.3742 102.542 16.4081 102.817 15.9221C103.661 14.4321 105.853 10.9696 108.407 10.1139C108.84 9.96873 109.19 10.4849 108.893 10.8338C107.22 12.8024 103.603 17.6928 104.004 22.7697C104.522 29.3488 96.1146 29.6926 98.5022 25.6045C100.89 21.5164 100.059 16.2949 96.8413 21.4121C93.7921 26.2606 85.4314 31.9527 85.9745 25.2532Z" fill="black"/>
</g>
</g>
<path d="M7.17 14.35V11.88H7.72C8.16 11.33 8.34 9.64 8.34 6.73V6H13.1V11.88H13.92V14.35H12.67V13H8.42V14.35H7.17ZM11.81 11.88V7.11H9.6V7.22C9.58 9.53 9.37 11.04 8.97 11.88H11.81ZM17.231 13.09C15.631 13.09 14.481 12 14.481 10.47V10.33C14.481 8.8 15.631 7.71 17.231 7.71H17.311C18.911 7.71 20.061 8.8 20.061 10.33V10.47C20.061 12 18.911 13.09 17.311 13.09H17.231ZM17.241 12.11H17.301C18.151 12.11 18.771 11.42 18.771 10.45V10.35C18.771 9.38 18.161 8.69 17.301 8.69H17.241C16.391 8.69 15.781 9.38 15.781 10.35V10.45C15.781 11.42 16.391 12.11 17.241 12.11ZM23.5959 13.08C22.0259 13.08 20.9459 12 20.9459 10.47V10.31C20.9459 8.8 22.0659 7.72 23.5759 7.72H23.6359C24.6459 7.72 25.4159 8.18 25.8759 8.91L24.9559 9.52C24.6759 8.99 24.2459 8.71 23.6559 8.71H23.6259C22.7659 8.71 22.2359 9.32 22.2359 10.35V10.45C22.2359 11.44 22.8259 12.07 23.6759 12.07H23.7259C24.3259 12.07 24.7459 11.75 25.0159 11.26L25.9159 11.93C25.4359 12.64 24.6759 13.08 23.6659 13.08H23.5959ZM27.9102 13V8.82H26.3402V7.8H30.7202V8.82H29.1502V13H27.9102ZM32.4467 15.01C32.1667 15.01 31.7767 14.97 31.4867 14.82V13.76C31.7267 13.88 31.9567 13.96 32.2067 13.96C32.6267 13.96 32.9667 13.69 33.2267 13.23L30.9767 7.8H32.2967L33.8267 11.79H33.8967L35.1667 7.8H36.4267L34.5167 13.29C34.2267 14.13 33.7067 15.01 32.4467 15.01ZM37.2129 13V7.8H42.0429V13H40.8029V8.8H38.4529V13H37.2129ZM43.541 13V7.8H44.781V9.78H47.141V7.8H48.381V13H47.141V10.78H44.781V13H43.541ZM52.2489 13.09C50.6689 13.09 49.5689 12.03 49.5689 10.5V10.36C49.5689 8.83 50.6989 7.71 52.2289 7.71H52.2889C53.7289 7.71 54.7689 8.71 54.7689 10.11V10.78H50.7989V10.79C50.8889 11.54 51.4889 12.05 52.3289 12.05H52.3789C53.0189 12.05 53.5989 11.76 53.8989 11.38L54.5889 12.13C54.0989 12.72 53.1989 13.09 52.3389 13.09H52.2489ZM50.8289 9.95H53.5889C53.5289 9.21 52.9989 8.68 52.2389 8.68H52.2289C51.5089 8.68 50.9689 9.18 50.8289 9.95ZM58.6387 13V7.8H59.8787V9.78H62.2387V7.8H63.4787V13H62.2387V10.78H59.8787V13H58.6387ZM66.4266 13.1C65.3466 13.1 64.6066 12.47 64.6066 11.55V11.48C64.6066 10.37 65.6566 9.79 67.7466 9.79H68.1666V9.56C68.1666 9.06 67.7766 8.72 67.0866 8.72H67.0566C66.5166 8.72 65.8866 8.92 65.3666 9.25L64.8566 8.35C65.4966 7.95 66.2966 7.69 67.1266 7.69H67.1866C68.5066 7.69 69.3366 8.41 69.3366 9.58V11.93C69.3366 12.29 69.4166 12.66 69.5166 13H68.3366C68.2766 12.84 68.2266 12.61 68.1966 12.38C67.7566 12.82 67.1366 13.1 66.4266 13.1ZM66.6766 12.1C67.2566 12.1 67.8066 11.85 68.1666 11.46V10.59H67.8166C66.4466 10.59 65.8066 10.87 65.8066 11.42V11.46C65.8066 11.83 66.1566 12.1 66.6766 12.1ZM10.26 33L7.24 19H10.92L12.64 28.8H12.8L15.2 19H18.1L20.5 28.8H20.68L22.38 19H26.04L23.04 33H18.56L16.72 25.06H16.58L14.72 33H10.26ZM29.5003 33.24C27.3803 33.24 25.8803 32 25.8803 30.16V29.94C25.8803 27.72 27.9403 26.56 32.0603 26.56H32.7803V26.38C32.7803 25.58 32.2403 24.98 31.0603 24.98H30.9603C29.9603 24.98 28.8003 25.34 27.6603 25.96L26.3603 23.6C27.6003 22.84 29.4003 22.36 31.1403 22.36H31.3603C34.2203 22.36 36.0003 23.9 36.0003 26.56V30.4C36.0003 31.32 36.1603 32.1 36.3603 33H33.1603C33.0403 32.66 32.9403 32.28 32.8803 31.82C32.2003 32.6 31.0403 33.24 29.5003 33.24ZM30.5003 30.72C31.3003 30.72 32.2003 30.4 32.8003 29.78V28.4H32.0403C30.1403 28.4 29.1603 28.88 29.1603 29.7V29.78C29.1603 30.32 29.7003 30.72 30.5003 30.72ZM42.2391 33.16C39.9991 33.16 38.6591 31.88 38.6591 29.54V25.2H37.2991V22.92C37.6391 22.82 38.1791 22.7 38.6591 22.64V20.2L42.0991 19.8V22.6H45.0991V25.2H42.0591V28.9C42.0591 29.92 42.5191 30.3 43.3591 30.3C43.8791 30.3 44.7191 30.16 45.1191 30.08V32.66C44.3191 33 43.0791 33.16 42.2391 33.16ZM49.8714 33.24C47.7514 33.24 46.2514 32 46.2514 30.16V29.94C46.2514 27.72 48.3114 26.56 52.4314 26.56H53.1514V26.38C53.1514 25.58 52.6114 24.98 51.4314 24.98H51.3314C50.3314 24.98 49.1714 25.34 48.0314 25.96L46.7314 23.6C47.9714 22.84 49.7714 22.36 51.5114 22.36H51.7314C54.5914 22.36 56.3714 23.9 56.3714 26.56V30.4C56.3714 31.32 56.5314 32.1 56.7314 33H53.5314C53.4114 32.66 53.3114 32.28 53.2514 31.82C52.5714 32.6 51.4114 33.24 49.8714 33.24ZM50.8714 30.72C51.6714 30.72 52.5714 30.4 53.1714 29.78V28.4H52.4114C50.5114 28.4 49.5314 28.88 49.5314 29.7V29.78C49.5314 30.32 50.0714 30.72 50.8714 30.72ZM58.7859 33V22.6H61.5459C61.6859 23.02 61.8259 23.72 61.8459 24.14C62.6459 23.18 63.8659 22.6 65.3459 22.6H65.6659V25.82C65.4259 25.74 65.0659 25.66 64.7659 25.66C63.1059 25.66 62.2659 26.42 62.2659 27.54V33H58.7859ZM68.8458 21.46C67.6858 21.46 66.9058 20.78 66.9058 19.78C66.9058 18.76 67.6858 18.06 68.8458 18.06C70.0458 18.06 70.8658 18.76 70.8658 19.78C70.8658 20.78 70.0658 21.46 68.8458 21.46ZM67.1258 33V22.6H70.6058V33H67.1258Z" fill="black"/>
<defs>
<linearGradient id="paint0_linear_995_27" x1="128.908" y1="-15" x2="-15.0786" y2="23.7165" gradientUnits="userSpaceOnUse">
<stop stop-color="#EF233C"/>
<stop offset="1" stop-color="#EF233C" stop-opacity="0.5"/>
</linearGradient>
<clipPath id="clip0_995_27">
<rect width="25" height="23.4375" fill="white" transform="translate(84 8)"/>
</clipPath>
</defs>
</svg>
