<svg width="121" height="40" viewBox="0 0 121 40" fill="none" xmlns="http://www.w3.org/2000/svg">
<rect x="1.25" y="1.25" width="118.5" height="37.5" rx="6.75" fill="#18181B"/>
<rect x="1.25" y="1.25" width="118.5" height="37.5" rx="6.75" stroke="url(#paint0_linear_972_29)" stroke-width="2.5"/>
<g clip-path="url(#clip0_972_29)">
<mask id="mask0_972_29" style="mask-type:luminance" maskUnits="userSpaceOnUse" x="84" y="8" width="27" height="24">
<path d="M110.281 8H84V31.4375H110.281V8Z" fill="white"/>
</mask>
<g mask="url(#mask0_972_29)">
<path d="M85.3725 13.2987C85.3467 13.3865 85.2196 13.5371 85.3233 13.5735C86.4151 13.9531 88.5668 14.7129 88.9633 16.4831C89.2535 17.7795 88.4643 19.3968 86.9729 21.8979C86.4693 22.743 86.2635 22.9479 86.336 23.0272C86.7377 23.4682 94.1967 18.32 93.3649 16.0055C92.9662 14.8959 90.863 14.996 90.7573 14.0254C90.6262 12.8203 93.7965 11.994 93.6506 11.3997C93.419 10.4585 85.4797 12.9319 85.3725 13.2987Z" fill="#EF233C"/>
<path d="M85.9745 25.2532C86.0013 24.9215 86.4139 24.7944 86.6261 25.0496C87.4814 26.0777 89.7689 26.521 95.5956 18.4881C102.754 8.6194 100.658 13.7372 101.606 15.8636C101.834 16.3742 102.542 16.4081 102.817 15.9221C103.661 14.4321 105.853 10.9696 108.407 10.1139C108.84 9.96873 109.19 10.4849 108.893 10.8338C107.22 12.8024 103.603 17.6928 104.004 22.7697C104.522 29.3488 96.1146 29.6926 98.5022 25.6045C100.89 21.5164 100.059 16.2949 96.8413 21.4121C93.7921 26.2606 85.4314 31.9527 85.9745 25.2532Z" fill="white"/>
</g>
</g>
<path d="M7.17 14.35V12.06H7.67C8.16 11.57 8.37 9.85 8.37 6.74V6H12.94V12.06H13.74V14.35H12.73V13H8.19V14.35H7.17ZM11.9 12.06V6.93H9.39V7.08C9.38 9.61 9.15 11.2 8.72 12.06H11.9ZM17.0843 13.08C15.5143 13.08 14.4043 11.99 14.4043 10.45V10.35C14.4043 8.81 15.5143 7.72 17.0843 7.72H17.1443C18.7043 7.72 19.8143 8.81 19.8143 10.35V10.45C19.8143 11.99 18.7043 13.08 17.1443 13.08H17.0843ZM17.0943 12.22H17.1243C18.1043 12.22 18.7843 11.49 18.7843 10.44V10.36C18.7843 9.31 18.1043 8.58 17.1243 8.58H17.0943C16.1243 8.58 15.4443 9.31 15.4443 10.36V10.44C15.4443 11.49 16.1243 12.22 17.0943 12.22ZM23.4403 13.07C21.8903 13.07 20.8203 12 20.8203 10.45V10.34C20.8203 8.8 21.9203 7.73 23.4203 7.73H23.4803C24.5003 7.73 25.2603 8.23 25.6903 8.97L24.9203 9.45C24.6303 8.91 24.1403 8.59 23.4703 8.59H23.4503C22.4703 8.59 21.8603 9.26 21.8603 10.36V10.44C21.8603 11.51 22.5403 12.21 23.5103 12.21H23.5403C24.2303 12.21 24.7003 11.84 24.9703 11.36L25.7203 11.87C25.2803 12.6 24.5203 13.07 23.5103 13.07H23.4403ZM27.8637 13V8.66H26.2037V7.8H30.5137V8.66H28.8537V13H27.8637ZM32.1614 14.99C31.9214 14.99 31.5614 14.95 31.2914 14.8V13.93C31.5414 14.04 31.7514 14.1 31.9714 14.1C32.4614 14.1 32.8214 13.76 33.0914 13.23L30.7814 7.8H31.8714L33.5614 11.97H33.6314L35.0514 7.8H36.0814L34.1414 13.26C33.8114 14.18 33.2914 14.99 32.1614 14.99ZM36.9509 13V7.8H41.6309V13H40.6409V8.65H37.9409V13H36.9509ZM43.2692 13V7.8H44.2592V9.86H46.9092V7.8H47.8992V13H46.9092V10.71H44.2592V13H43.2692ZM51.8485 13.08C50.3085 13.08 49.2285 12 49.2285 10.51V10.38C49.2285 8.84 50.3385 7.73 51.8385 7.73H51.8685C53.2985 7.73 54.2985 8.72 54.2985 10.14V10.76H50.2385C50.3385 11.6 50.9885 12.19 51.9185 12.19H51.9385C52.6185 12.19 53.2085 11.87 53.5085 11.46L54.1485 12.03C53.6585 12.69 52.7785 13.08 51.8885 13.08H51.8485ZM50.2685 9.99H53.3485C53.2885 9.16 52.6785 8.58 51.8285 8.58H51.8185C50.9985 8.58 50.3985 9.14 50.2685 9.99ZM58.3766 13V7.8H59.3666V9.86H62.0166V7.8H63.0066V13H62.0166V10.71H59.3666V13H58.3766ZM66.0859 13.09C65.0059 13.09 64.2659 12.46 64.2659 11.53V11.48C64.2659 10.37 65.3259 9.79 67.4259 9.79H67.8759V9.5C67.8759 8.94 67.4359 8.59 66.6959 8.59H66.6759C66.1159 8.59 65.4559 8.8 64.9559 9.13L64.5259 8.38C65.1759 7.97 65.9259 7.7 66.7259 7.7H66.7659C68.0259 7.7 68.8359 8.39 68.8359 9.48V12.04C68.8359 12.36 68.9159 12.72 69.0159 13H68.0359C67.9759 12.85 67.9259 12.6 67.9059 12.37C67.4059 12.83 66.7659 13.09 66.0859 13.09ZM66.2159 12.22C66.8859 12.22 67.4859 11.93 67.8759 11.5V10.54H67.5459C65.9559 10.54 65.2459 10.84 65.2459 11.46V11.49C65.2459 11.92 65.6359 12.22 66.2159 12.22ZM10.26 33L7.24 19H10.92L12.64 28.8H12.8L15.2 19H18.1L20.5 28.8H20.68L22.38 19H26.04L23.04 33H18.56L16.72 25.06H16.58L14.72 33H10.26ZM29.5003 33.24C27.3803 33.24 25.8803 32 25.8803 30.16V29.94C25.8803 27.72 27.9403 26.56 32.0603 26.56H32.7803V26.38C32.7803 25.58 32.2403 24.98 31.0603 24.98H30.9603C29.9603 24.98 28.8003 25.34 27.6603 25.96L26.3603 23.6C27.6003 22.84 29.4003 22.36 31.1403 22.36H31.3603C34.2203 22.36 36.0003 23.9 36.0003 26.56V30.4C36.0003 31.32 36.1603 32.1 36.3603 33H33.1603C33.0403 32.66 32.9403 32.28 32.8803 31.82C32.2003 32.6 31.0403 33.24 29.5003 33.24ZM30.5003 30.72C31.3003 30.72 32.2003 30.4 32.8003 29.78V28.4H32.0403C30.1403 28.4 29.1603 28.88 29.1603 29.7V29.78C29.1603 30.32 29.7003 30.72 30.5003 30.72ZM42.2391 33.16C39.9991 33.16 38.6591 31.88 38.6591 29.54V25.2H37.2991V22.92C37.6391 22.82 38.1791 22.7 38.6591 22.64V20.2L42.0991 19.8V22.6H45.0991V25.2H42.0591V28.9C42.0591 29.92 42.5191 30.3 43.3591 30.3C43.8791 30.3 44.7191 30.16 45.1191 30.08V32.66C44.3191 33 43.0791 33.16 42.2391 33.16ZM49.8714 33.24C47.7514 33.24 46.2514 32 46.2514 30.16V29.94C46.2514 27.72 48.3114 26.56 52.4314 26.56H53.1514V26.38C53.1514 25.58 52.6114 24.98 51.4314 24.98H51.3314C50.3314 24.98 49.1714 25.34 48.0314 25.96L46.7314 23.6C47.9714 22.84 49.7714 22.36 51.5114 22.36H51.7314C54.5914 22.36 56.3714 23.9 56.3714 26.56V30.4C56.3714 31.32 56.5314 32.1 56.7314 33H53.5314C53.4114 32.66 53.3114 32.28 53.2514 31.82C52.5714 32.6 51.4114 33.24 49.8714 33.24ZM50.8714 30.72C51.6714 30.72 52.5714 30.4 53.1714 29.78V28.4H52.4114C50.5114 28.4 49.5314 28.88 49.5314 29.7V29.78C49.5314 30.32 50.0714 30.72 50.8714 30.72ZM58.7859 33V22.6H61.5459C61.6859 23.02 61.8259 23.72 61.8459 24.14C62.6459 23.18 63.8659 22.6 65.3459 22.6H65.6659V25.82C65.4259 25.74 65.0659 25.66 64.7659 25.66C63.1059 25.66 62.2659 26.42 62.2659 27.54V33H58.7859ZM68.8458 21.46C67.6858 21.46 66.9058 20.78 66.9058 19.78C66.9058 18.76 67.6858 18.06 68.8458 18.06C70.0458 18.06 70.8658 18.76 70.8658 19.78C70.8658 20.78 70.0658 21.46 68.8458 21.46ZM67.1258 33V22.6H70.6058V33H67.1258Z" fill="white"/>
<defs>
<linearGradient id="paint0_linear_972_29" x1="128.908" y1="-15" x2="-15.0786" y2="23.7165" gradientUnits="userSpaceOnUse">
<stop stop-color="#EF233C"/>
<stop offset="1" stop-color="#EF233C" stop-opacity="0.5"/>
</linearGradient>
<clipPath id="clip0_972_29">
<rect width="25" height="23.4375" fill="white" transform="translate(84 8)"/>
</clipPath>
</defs>
</svg>
